<svg width="113" height="71" viewBox="0 0 113 71" fill="none" xmlns="http://www.w3.org/2000/svg">
<g clip-path="url(#clip0_10323_2930)">
<path d="M47.0887 20.0199C47.3672 17.4299 48.6897 14.9099 50.7084 12.88C52.7966 10.85 55.3721 9.51997 57.9476 9.24C58.3653 9.24 58.7133 9.24 59.1309 9.24C64.0035 9.24 67.2752 12.88 66.7182 17.7799C66.4398 20.3699 65.1173 22.8899 63.0986 24.9199C61.0104 26.9499 58.4348 28.2799 55.8594 28.5599C55.4417 28.5599 55.0936 28.6299 54.6761 28.6299C49.8035 28.6299 46.5318 24.9899 47.0887 20.0899M62.4721 0C57.5996 0 52.3093 1.89 47.9936 5.66998C39.3622 13.2999 37.1347 26.7399 45.6269 31.7799C47.576 32.8999 49.873 33.5299 52.3093 33.5299C53.2838 33.5999 54.328 33.5999 55.3721 33.5299C63.5859 32.5498 71.034 25.1999 71.8693 17.15C72.7742 9.09993 66.7879 3.35999 58.5045 4.33998C50.2907 5.31998 42.8426 12.67 42.0073 20.7199C41.5897 24.7099 42.8426 28.1399 45.2093 30.4499C44.8613 30.1699 44.5132 29.8899 44.1652 29.5399C40.5455 25.7599 40.6151 19.3199 43.6083 13.79C46.4622 8.53998 51.6133 4.19998 57.1819 2.58999C63.3075 0.769998 69.3634 2.37999 72.9134 6.29998C79.6654 13.79 76.185 27.5799 66.231 35.1398C60.732 39.2698 54.0496 41.3699 48.1328 40.7399C42.9122 40.2498 38.0396 38.0099 34.768 34.5099C34.4896 34.2298 34.2112 33.8799 33.9327 33.5299C36.2298 37.4499 41.2416 39.8299 45.8358 40.8099C51.474 41.9998 57.9476 40.8798 63.7947 37.4499C74.7232 31.0099 81.4056 17.22 76.4635 7.69998C76.2546 7.20997 75.9762 6.78997 75.6977 6.36997C72.983 2.31 68.1104 0.14 62.7506 0.14H62.4721V0Z" fill="url(#paint0_linear_10323_2930)"/>
<path d="M56.1387 13.4401C57.1132 13.4401 57.7396 13.7201 58.0877 14.0001C58.5054 13.7201 59.2015 13.4401 60.2455 13.4401C60.5936 13.4401 61.0113 13.4401 61.4289 13.5802L64.3525 4.13015C64.5613 3.29015 64.0044 2.66016 63.2387 2.66016L58.2269 3.50016C57.4612 3.50016 56.6259 4.13015 56.4171 4.97015L54.3984 13.6501C55.0249 13.5101 55.5122 13.4401 55.9298 13.4401H56.1387Z" fill="url(#paint1_linear_10323_2930)"/>
<path d="M56.903 23.24C56.5549 23.38 56.2765 23.38 56.1373 23.38C55.9981 23.38 55.7197 23.38 55.3716 23.24C55.1628 23.17 55.0236 22.96 54.8843 22.82C54.7451 22.82 54.6755 22.82 54.5363 22.82C54.3274 22.82 54.1187 22.82 53.9099 22.82C53.1441 25.41 52.1 27.65 50.9863 29.1199L47.1579 42.2799C46.949 43.0499 47.4363 43.7499 48.2715 43.7499L53.4922 42.1399C54.2578 42.1399 55.0932 41.51 55.302 40.67L57.9471 29.1199C57.5295 27.58 57.4598 25.34 57.9471 22.75C57.8079 22.75 57.7383 22.75 57.5991 22.75C57.4598 22.96 57.251 23.1 57.0422 23.17L56.903 23.24Z" fill="url(#paint2_linear_10323_2930)"/>
<path d="M72.5648 14.6299L64.5598 15.4699C64.2814 15.6099 63.8637 15.7499 63.3765 15.8898V16.3099L64.1421 20.5799V21.0698C64.2118 21.0698 64.2814 21.2098 64.2814 21.2798V22.1198C64.2814 22.1898 64.2814 22.3299 64.2118 22.3999C64.2118 22.3999 64.2118 22.3999 64.2118 22.4699H69.9196C70.6854 22.4699 71.5206 21.8398 71.7294 20.9998L73.6089 16.1699C73.8177 15.3299 73.3304 14.6999 72.4952 14.6999L72.5648 14.6299Z" fill="url(#paint3_linear_10323_2930)"/>
<path d="M48.3412 22.12C48.3412 21.98 48.3412 21.91 48.3412 21.77L48.6891 20.93C48.6891 20.93 48.6891 20.79 48.7588 20.79L49.0372 20.3L51.6824 16.03V15.89C51.1951 15.75 50.7078 15.5401 50.4294 15.3301H43.4685C42.6332 15.3301 41.8676 15.96 41.6587 16.8L39.7793 21.63C39.5705 22.47 40.0577 23.1001 40.893 23.1001L48.0627 22.4V22.2601C48.1323 22.1901 48.2019 22.05 48.3412 22.05V22.12Z" fill="url(#paint4_linear_10323_2930)"/>
<path d="M69.9902 22.4696H64.2127C64.2127 22.4696 64.2127 22.3996 64.2127 22.3295C64.2127 22.2596 64.2823 22.1896 64.2823 22.1196V21.2796V21.1396V20.6496C64.2127 20.6496 63.447 15.8896 63.447 15.8896C63.9343 15.7496 64.2823 15.6096 64.6303 15.3996L72.6352 14.5596C73.0529 14.5596 73.401 14.6996 73.6098 14.9796C73.8186 15.2596 73.8882 15.6796 73.8186 16.0996L71.9392 20.9296C71.7303 21.7696 70.8951 22.4696 70.0598 22.4696H69.9902ZM64.2823 22.3295H69.9902C70.7558 22.3295 71.5215 21.6996 71.7303 20.9296L73.6098 16.0996C73.6794 15.7496 73.6098 15.3996 73.401 15.1196C73.1922 14.8396 72.9137 14.6996 72.5657 14.6996L64.6303 15.5396C64.3519 15.6796 64.0038 15.8196 63.5166 15.9596V16.3096L64.3518 20.9996C64.3518 20.9996 64.3518 21.1396 64.3518 21.2096V22.0496C64.3518 22.1196 64.3519 22.2596 64.2823 22.3295Z" fill="white"/>
<path d="M40.963 23.24C40.5453 23.24 40.1973 23.1001 39.9885 22.8201C39.7796 22.5401 39.71 22.1201 39.7796 21.7001L41.6591 16.8701C41.8679 16.0301 42.7032 15.3301 43.5385 15.3301H50.569C50.8474 15.5401 51.3346 15.7501 51.8915 15.8901H51.9611L51.8219 16.1001L48.8983 20.8601C48.8983 20.8601 48.8287 20.9301 48.8287 21.0001L48.4807 21.8401C48.4807 21.9101 48.4807 22.0501 48.4807 22.1201V22.1901C48.4111 22.1901 48.3415 22.33 48.3415 22.4V22.5401H48.2023L41.0326 23.24H40.963ZM43.5385 15.5401C42.7728 15.5401 42.0071 16.1701 41.7983 16.9401L39.9189 21.7701C39.8493 22.1201 39.9189 22.4701 40.1277 22.7501C40.3365 23.0301 40.6149 23.17 40.963 23.17L48.063 22.4701C48.063 22.33 48.1327 22.1901 48.2718 22.1901C48.2718 22.0501 48.2718 21.9801 48.2718 21.9101L48.6199 21.0701C48.6199 21.0701 48.6199 20.9301 48.6895 20.9301L48.9679 20.4401L51.613 16.1701C51.0562 16.0301 50.6386 15.8201 50.3601 15.6101H43.3993L43.5385 15.5401Z" fill="white"/>
<path d="M58.0886 14.1394C57.7405 13.8595 57.1837 13.5794 56.2091 13.5794H56.1396C55.6523 13.5794 55.1651 13.5794 54.6082 13.7895H54.469V13.7195L56.4876 5.03948C56.6965 4.19949 57.5317 3.56948 58.367 3.56948L63.3788 2.72949C63.7965 2.72949 64.1445 2.86949 64.3534 3.14948C64.5622 3.42949 64.6318 3.84949 64.5622 4.26948L61.569 13.7895C61.1513 13.7195 60.7337 13.6495 60.3857 13.6495C59.3415 13.6495 58.6454 13.9295 58.2278 14.2094L58.0886 14.1394ZM56.1396 13.3694C57.114 13.3694 57.7405 13.6495 58.0189 13.9295C58.4366 13.6495 59.1327 13.3694 60.1768 13.3694C60.5249 13.3694 60.9426 13.3694 61.3602 13.5094L64.2837 4.12949C64.3534 3.77949 64.2837 3.42949 64.0749 3.14948C63.8661 2.86949 63.5876 2.72949 63.2396 2.72949L58.2278 3.56948C57.4621 3.56948 56.6965 4.19949 56.4876 4.96948L54.5386 13.5094C55.0954 13.4394 55.5131 13.3694 56.0003 13.3694H56.1396Z" fill="white"/>
<path d="M48.2743 43.8199C47.8566 43.8199 47.5086 43.6799 47.2998 43.3999C47.0909 43.1199 47.0213 42.6999 47.0909 42.2799L50.9194 29.05C52.1027 27.5099 53.1469 25.27 53.8429 22.75C54.0518 22.75 54.2606 22.75 54.4694 22.75C54.6086 22.75 54.7479 22.75 54.8174 22.75C54.887 22.96 55.0263 23.1 55.2351 23.17C55.5135 23.31 55.7223 23.31 55.9312 23.31H56.0704C56.2792 23.31 56.4881 23.31 56.7665 23.17C56.9753 23.1 57.1842 22.96 57.3233 22.75C57.4626 22.75 57.5321 22.75 57.6714 22.75H57.741V22.82C57.3233 25.34 57.3233 27.58 57.741 29.1199L55.0958 40.67C54.887 41.51 54.1214 42.1399 53.286 42.2099L48.0654 43.8199H48.2743ZM51.0586 29.1899L47.2301 42.35C47.1605 42.6999 47.2301 43.0499 47.4389 43.3299C47.6478 43.6099 47.9262 43.6799 48.2743 43.6799L53.4949 42.0699C54.2606 42.0699 55.0263 41.4399 55.2351 40.67L57.8802 29.1199C57.393 27.58 57.393 25.34 57.8802 22.82C57.8106 22.82 57.741 22.82 57.6714 22.82C57.5321 23.03 57.3233 23.17 57.1145 23.24C56.8361 23.38 56.5577 23.38 56.3488 23.38H56.2096C56.0704 23.38 55.7919 23.38 55.5135 23.24C55.3047 23.17 55.1655 23.03 55.0263 22.82C54.9567 22.82 54.8174 22.82 54.6783 22.82C54.539 22.82 54.3302 22.82 54.1214 22.82C53.4253 25.34 52.3811 27.58 51.1978 29.1199L51.0586 29.1899Z" fill="white"/>
<path d="M69.9902 22.4696H64.2127C64.2127 22.4696 64.2127 22.3996 64.2127 22.3295C64.2127 22.2596 64.2823 22.1896 64.2823 22.1196V21.2796V21.1396V20.6496C64.2127 20.6496 63.447 15.8896 63.447 15.8896C63.9343 15.7496 64.2823 15.6096 64.6303 15.3996L72.6352 14.5596C73.0529 14.5596 73.401 14.6996 73.6098 14.9796C73.8186 15.2596 73.8882 15.6796 73.8186 16.0996L71.9392 20.9296C71.7303 21.7696 70.8951 22.4696 70.0598 22.4696H69.9902ZM64.2823 22.3295H69.9902C70.7558 22.3295 71.5215 21.6996 71.7303 20.9296L73.6098 16.0996C73.6794 15.7496 73.6098 15.3996 73.401 15.1196C73.1922 14.8396 72.9137 14.6996 72.5657 14.6996L64.6303 15.5396C64.3519 15.6796 64.0038 15.8196 63.5166 15.9596V16.3096L64.3518 20.9996C64.3518 20.9996 64.3518 21.1396 64.3518 21.2096V22.0496C64.3518 22.1196 64.3519 22.2596 64.2823 22.3295Z" fill="white"/>
<path d="M58.0886 14.1394C57.7405 13.8595 57.1837 13.5794 56.2091 13.5794H56.1396C55.6523 13.5794 55.1651 13.5794 54.6082 13.7895H54.469V13.7195L56.4876 5.03948C56.6965 4.19949 57.5317 3.56948 58.367 3.56948L63.3788 2.72949C63.7965 2.72949 64.1445 2.86949 64.3534 3.14948C64.5622 3.42949 64.6318 3.84949 64.5622 4.26948L61.569 13.7895C61.1513 13.7195 60.7337 13.6495 60.3857 13.6495C59.3415 13.6495 58.6454 13.9295 58.2278 14.2094L58.0886 14.1394ZM56.1396 13.3694C57.114 13.3694 57.7405 13.6495 58.0189 13.9295C58.4366 13.6495 59.1327 13.3694 60.1768 13.3694C60.5249 13.3694 60.9426 13.3694 61.3602 13.5094L64.2837 4.12949C64.3534 3.77949 64.2837 3.42949 64.0749 3.14948C63.8661 2.86949 63.5876 2.72949 63.2396 2.72949L58.2278 3.56948C57.4621 3.56948 56.6965 4.19949 56.4876 4.96948L54.5386 13.5094C55.0954 13.4394 55.5131 13.3694 56.0003 13.3694H56.1396Z" fill="white"/>
<path d="M48.2743 43.8199C47.8566 43.8199 47.5086 43.6799 47.2998 43.3999C47.0909 43.1199 47.0213 42.6999 47.0909 42.2799L50.9194 29.05C52.1027 27.5099 53.1469 25.27 53.8429 22.75C54.0518 22.75 54.2606 22.75 54.4694 22.75C54.6086 22.75 54.7479 22.75 54.8174 22.75C54.887 22.96 55.0263 23.1 55.2351 23.17C55.5135 23.31 55.7223 23.31 55.9312 23.31H56.0704C56.2792 23.31 56.4881 23.31 56.7665 23.17C56.9753 23.1 57.1842 22.96 57.3233 22.75C57.4626 22.75 57.5321 22.75 57.6714 22.75H57.741V22.82C57.3233 25.34 57.3233 27.58 57.741 29.1199L55.0958 40.67C54.887 41.51 54.1214 42.1399 53.286 42.2099L48.0654 43.8199H48.2743ZM51.0586 29.1899L47.2301 42.35C47.1605 42.6999 47.2301 43.0499 47.4389 43.3299C47.6478 43.6099 47.9262 43.6799 48.2743 43.6799L53.4949 42.0699C54.2606 42.0699 55.0263 41.4399 55.2351 40.67L57.8802 29.1199C57.393 27.58 57.393 25.34 57.8802 22.82C57.8106 22.82 57.741 22.82 57.6714 22.82C57.5321 23.03 57.3233 23.17 57.1145 23.24C56.8361 23.38 56.5577 23.38 56.3488 23.38H56.2096C56.0704 23.38 55.7919 23.38 55.5135 23.24C55.3047 23.17 55.1655 23.03 55.0263 22.82C54.9567 22.82 54.8174 22.82 54.6783 22.82C54.539 22.82 54.3302 22.82 54.1214 22.82C53.4253 25.34 52.3811 27.58 51.1978 29.1199L51.0586 29.1899Z" fill="white"/>
<path d="M69.9902 22.4696H64.2127C64.2127 22.4696 64.2127 22.3996 64.2127 22.3295C64.2127 22.2596 64.2823 22.1896 64.2823 22.1196V21.2796V21.1396V20.6496C64.2127 20.6496 63.447 15.8896 63.447 15.8896C63.9343 15.7496 64.2823 15.6096 64.6303 15.3996L72.6352 14.5596C73.0529 14.5596 73.401 14.6996 73.6098 14.9796C73.8186 15.2596 73.8882 15.6796 73.8186 16.0996L71.9392 20.9296C71.7303 21.7696 70.8951 22.4696 70.0598 22.4696H69.9902ZM64.2823 22.3295H69.9902C70.7558 22.3295 71.5215 21.6996 71.7303 20.9296L73.6098 16.0996C73.6794 15.7496 73.6098 15.3996 73.401 15.1196C73.1922 14.8396 72.9137 14.6996 72.5657 14.6996L64.6303 15.5396C64.3519 15.6796 64.0038 15.8196 63.5166 15.9596V16.3096L64.3518 20.9996C64.3518 20.9996 64.3518 21.1396 64.3518 21.2096V22.0496C64.3518 22.1196 64.3519 22.2596 64.2823 22.3295Z" fill="white"/>
<path d="M58.0886 14.1394C57.7405 13.8595 57.1837 13.5794 56.2091 13.5794H56.1396C55.6523 13.5794 55.1651 13.5794 54.6082 13.7895H54.469V13.7195L56.4876 5.03948C56.6965 4.19949 57.5317 3.56948 58.367 3.56948L63.3788 2.72949C63.7965 2.72949 64.1445 2.86949 64.3534 3.14948C64.5622 3.42949 64.6318 3.84949 64.5622 4.26948L61.569 13.7895C61.1513 13.7195 60.7337 13.6495 60.3857 13.6495C59.3415 13.6495 58.6454 13.9295 58.2278 14.2094L58.0886 14.1394ZM56.1396 13.3694C57.114 13.3694 57.7405 13.6495 58.0189 13.9295C58.4366 13.6495 59.1327 13.3694 60.1768 13.3694C60.5249 13.3694 60.9426 13.3694 61.3602 13.5094L64.2837 4.12949C64.3534 3.77949 64.2837 3.42949 64.0749 3.14948C63.8661 2.86949 63.5876 2.72949 63.2396 2.72949L58.2278 3.56948C57.4621 3.56948 56.6965 4.19949 56.4876 4.96948L54.5386 13.5094C55.0954 13.4394 55.5131 13.3694 56.0003 13.3694H56.1396Z" fill="white"/>
<path d="M48.2743 43.8199C47.8566 43.8199 47.5086 43.6799 47.2998 43.3999C47.0909 43.1199 47.0213 42.6999 47.0909 42.2799L50.9194 29.05C52.1027 27.5099 53.1469 25.27 53.8429 22.75C54.0518 22.75 54.2606 22.75 54.4694 22.75C54.6086 22.75 54.7479 22.75 54.8174 22.75C54.887 22.96 55.0263 23.1 55.2351 23.17C55.5135 23.31 55.7223 23.31 55.9312 23.31H56.0704C56.2792 23.31 56.4881 23.31 56.7665 23.17C56.9753 23.1 57.1842 22.96 57.3233 22.75C57.4626 22.75 57.5321 22.75 57.6714 22.75H57.741V22.82C57.3233 25.34 57.3233 27.58 57.741 29.1199L55.0958 40.67C54.887 41.51 54.1214 42.1399 53.286 42.2099L48.0654 43.8199H48.2743ZM51.0586 29.1899L47.2301 42.35C47.1605 42.6999 47.2301 43.0499 47.4389 43.3299C47.6478 43.6099 47.9262 43.6799 48.2743 43.6799L53.4949 42.0699C54.2606 42.0699 55.0263 41.4399 55.2351 40.67L57.8802 29.1199C57.393 27.58 57.393 25.34 57.8802 22.82C57.8106 22.82 57.741 22.82 57.6714 22.82C57.5321 23.03 57.3233 23.17 57.1145 23.24C56.8361 23.38 56.5577 23.38 56.3488 23.38H56.2096C56.0704 23.38 55.7919 23.38 55.5135 23.24C55.3047 23.17 55.1655 23.03 55.0263 22.82C54.9567 22.82 54.8174 22.82 54.6783 22.82C54.539 22.82 54.3302 22.82 54.1214 22.82C53.4253 25.34 52.3811 27.58 51.1978 29.1199L51.0586 29.1899Z" fill="white"/>
<path d="M69.9902 22.4696H64.2127C64.2127 22.4696 64.2127 22.3996 64.2127 22.3295C64.2127 22.2596 64.2823 22.1896 64.2823 22.1196V21.2796V21.1396V20.6496C64.2127 20.6496 63.447 15.8896 63.447 15.8896C63.9343 15.7496 64.2823 15.6096 64.6303 15.3996L72.6352 14.5596C73.0529 14.5596 73.401 14.6996 73.6098 14.9796C73.8186 15.2596 73.8882 15.6796 73.8186 16.0996L71.9392 20.9296C71.7303 21.7696 70.8951 22.4696 70.0598 22.4696H69.9902ZM64.2823 22.3295H69.9902C70.7558 22.3295 71.5215 21.6996 71.7303 20.9296L73.6098 16.0996C73.6794 15.7496 73.6098 15.3996 73.401 15.1196C73.1922 14.8396 72.9137 14.6996 72.5657 14.6996L64.6303 15.5396C64.3519 15.6796 64.0038 15.8196 63.5166 15.9596V16.3096L64.3518 20.9996C64.3518 20.9996 64.3518 21.1396 64.3518 21.2096V22.0496C64.3518 22.1196 64.3519 22.2596 64.2823 22.3295Z" fill="white"/>
<path d="M52.4472 36.54L52.5864 37.87L53.9786 37.9401L52.656 38.7801L52.7953 40.11L51.8207 39.27L50.4981 40.11L51.1942 38.7801L50.2893 37.9401L51.6815 37.87L52.4472 36.54Z" fill="white"/>
<path d="M60.2457 4.90039L60.3849 6.23038L61.7771 6.30038L60.5241 7.14038L60.5937 8.4704L59.6192 7.63038L58.2966 8.4704L58.9927 7.14038L58.0878 6.30038L59.4799 6.23038L60.2457 4.90039Z" fill="white"/>
<path d="M69.4352 16.5898L69.644 17.9199H71.0361L69.7136 18.7599L69.7832 20.0898L68.8087 19.3198L67.4862 20.0898L68.2518 18.7599L67.2773 17.9199H68.7391L69.4352 16.5898Z" fill="white"/>
<path d="M64.3529 25.8994L64.4922 27.0194H65.6755L64.5617 27.7194L64.6313 28.9094L63.7961 28.2094L62.6823 28.9094L63.3088 27.7194L62.5431 27.0194H63.7264L64.3529 25.8994Z" fill="white"/>
<path d="M45.1391 17.3604L45.2783 18.6904H46.6705L45.3479 19.6004L45.4871 20.9303L44.5126 20.0903L43.19 20.9303L43.8861 19.6004L42.9812 18.6904H44.3734L45.1391 17.3604Z" fill="white"/>
<path d="M58.3646 11.6201L57.4597 17.1501L59.1304 11.6901L57.6686 17.2201L59.7569 11.9002L57.8078 17.2901L60.4529 12.1801L58.0166 17.3601L61.0098 12.6702L58.1559 17.5001L61.5667 13.2301L58.2255 17.6401L61.9843 13.8601L58.3646 17.8502L62.3323 14.6301L58.4343 18.0601L62.6108 15.4701L58.5039 18.2701L62.75 16.3801L58.5039 18.5501L62.8196 17.3601L58.5039 18.7602L62.75 18.3401L58.5039 19.0401L62.6108 19.3201L58.4343 19.2501L62.3323 20.3701L58.3646 19.5301L61.9843 21.2801L58.2255 19.7401L61.5667 22.2601L58.1559 20.0201L61.0098 23.1001L58.0166 20.2301L60.4529 23.9401L57.8078 20.4401L59.8265 24.6401L57.6686 20.5801L59.1304 25.2701L57.4597 20.7201L58.3646 25.7601L57.3206 20.8601L57.599 26.1801L57.1117 20.9301L56.8333 26.3901L56.9029 21.0001L56.0676 26.5301L56.6941 21.0001L55.3715 26.5301L56.4852 21.0001L54.6059 26.3901L56.346 20.9301L53.9794 26.1101L56.1372 20.8601L53.3529 25.7601L55.998 20.7201L52.796 25.2001L55.8588 20.5801L52.3087 24.5701L55.7892 20.3701L51.8911 23.8701L55.7196 20.2301L51.6126 23.1001L55.6499 20.0201L51.4038 22.1901L55.5803 19.7401L51.3342 21.2801L55.5803 19.5301L51.3342 20.3001L55.5803 19.2501L51.4038 19.3201L55.6499 19.0401L51.6126 18.3401L55.6499 18.7602L51.8911 17.2901L55.7892 18.4801L52.3087 16.3801L55.8588 18.2701L52.796 15.4701L55.998 18.0601L53.3529 14.6301L56.1372 17.8502L53.9098 13.8601L56.346 17.6401L54.6059 13.2301L56.4852 17.5001L55.3019 12.6001L56.6941 17.3601L56.0676 12.1801L56.9029 17.2901L56.8333 11.8302L57.1117 17.2201L57.599 11.6901L57.2509 17.1501L58.3646 11.6201Z" fill="white"/>
<path d="M64.3534 20.8601V20.5801L63.6573 16.3102L63.3788 14.4902C63.3788 14.2101 63.1004 13.9301 62.822 13.8602C61.8475 13.5101 61.0122 13.3701 60.3161 13.3701C59.3415 13.3701 58.5759 13.6502 58.1582 13.9301C57.7405 13.6502 57.1141 13.3701 56.2092 13.3701C55.5131 13.3701 54.6082 13.5101 53.4944 13.8602C53.2856 13.9301 53.0768 14.0701 52.9376 14.2801L51.8239 16.1001L49.1787 20.3701L48.9003 20.7901L48.2738 22.1901L46.6033 25.9701L48.8307 24.7801C50.7797 23.7301 53.216 23.1001 54.5386 23.0301H54.6082H54.7474C54.817 23.0301 54.8866 23.0301 54.9563 23.0301C55.0954 23.2401 55.2347 23.3801 55.4435 23.4501C55.7916 23.5901 56.07 23.5901 56.2788 23.5901C56.4876 23.5901 56.7661 23.5901 57.1141 23.4501C57.3229 23.3801 57.5317 23.2401 57.7405 23.0301C57.8102 23.0301 57.9494 23.0301 58.019 23.0301H58.1582C59.4808 23.0301 61.6387 23.6601 63.0308 24.7101L63.3788 24.9901L64.423 25.76V23.3101V21.0701L64.3534 20.8601Z" fill="white"/>
<path d="M56.2771 20.5104L56.1378 21.0003C55.8594 20.8603 55.3722 20.6503 54.7457 20.5104C54.2584 20.3703 53.6319 20.3003 52.9359 20.3003H52.727C52.727 20.3003 52.727 20.3003 52.6574 20.3003C52.6574 20.3003 52.6574 20.3003 52.5878 20.3003C52.5878 20.3003 52.5878 20.3003 52.5182 20.3003C52.5182 20.3003 52.5182 20.3003 52.4485 20.3003C52.4485 20.3003 52.4486 20.3003 52.379 20.3003C52.379 20.3003 52.3094 20.3003 52.2398 20.3003C52.2398 20.3003 52.2398 20.3003 52.1701 20.3003C52.1701 20.3003 52.1005 20.3003 52.031 20.3003C52.031 20.3003 52.031 20.3003 51.9613 20.3003C51.9613 20.3003 51.8221 20.3003 51.7525 20.3003C51.7525 20.3003 51.7525 20.3003 51.6829 20.3003C51.6829 20.3003 51.6133 20.3003 51.5436 20.3003C51.5436 20.3003 51.5436 20.3003 51.4741 20.3003C51.4741 20.3003 51.4045 20.3003 51.3349 20.3003C51.3349 20.3003 51.3349 20.3003 51.2652 20.3003C51.2652 20.3003 51.1956 20.3003 51.1261 20.3003C51.1261 20.3003 51.1261 20.3003 51.0564 20.3003C51.0564 20.3003 50.9868 20.3003 50.9172 20.3003C50.9172 20.3003 50.9172 20.3003 50.8476 20.3003H50.7084C50.7084 20.3003 50.5692 20.3003 50.4996 20.3703C50.4996 20.3703 50.4996 20.3703 50.4299 20.3703C50.4299 20.3703 50.3603 20.3703 50.2907 20.3703C50.2907 20.3703 50.2907 20.3703 50.2212 20.3703C50.2212 20.3703 50.2212 20.3703 50.1515 20.3703C50.1515 20.3003 52.7966 16.0303 52.7966 16.0303L53.9104 14.2803C54.8848 14.0003 55.6506 13.8604 56.2074 13.8604C56.7643 13.8604 57.3211 14.0003 57.53 14.1403C57.6692 14.2103 57.7388 14.2803 57.7388 14.3503L56.4858 19.8803L56.2771 20.5104Z" fill="white"/>
<path d="M56.9723 20.9999L57.1115 20.5099L58.3644 14.9799C58.5037 14.8399 59.0605 14.4899 60.1743 14.4199C60.7312 14.4199 61.4272 14.4899 62.3321 14.8399L62.6106 16.5899L63.3066 20.8599C63.3066 20.8599 63.3066 20.8599 63.237 20.8599C63.237 20.8599 63.1675 20.8599 63.0978 20.8599C62.9586 20.8599 62.8194 20.7199 62.7498 20.7199C62.7498 20.7199 62.6801 20.7199 62.6106 20.7199C62.6106 20.7199 62.541 20.7199 62.4714 20.7199C62.4714 20.7199 62.4017 20.7199 62.3321 20.7199H62.1929C62.1929 20.7199 62.0537 20.7199 61.9841 20.7199C61.9841 20.7199 61.9145 20.7199 61.8449 20.7199C61.8449 20.7199 61.7752 20.7199 61.7056 20.7199C61.7056 20.7199 61.6361 20.7199 61.5664 20.7199C61.5664 20.7199 61.4968 20.7199 61.4272 20.7199H61.2184C59.687 20.7199 58.2253 21.2098 57.5988 21.4199" fill="white"/>
<path d="M55.7903 21.7696C55.1638 21.4896 54.4678 21.3496 53.6324 21.3496C54.3982 21.3496 55.1638 21.4896 55.7903 21.7696Z" fill="#317F3E"/>
<path d="M63.7931 22.6103C62.5402 21.9103 60.8696 21.4203 59.3382 21.4203C58.5725 21.4203 57.7372 21.5603 57.0411 21.8403V21.7003C57.946 21.3504 58.9902 21.2103 60.0342 21.2103C61.0784 21.2103 62.5402 21.4903 63.5843 21.9803C63.6539 21.9803 63.7235 22.0503 63.7931 22.1203V21.2803L63.7235 20.7203L63.0275 16.4503L62.749 14.6304C62.749 14.6304 62.749 14.4904 62.6794 14.4904C61.7049 14.1403 60.9392 14.0703 60.3127 14.0703C58.8509 14.0703 58.1549 14.7004 58.0853 14.8403C58.0853 14.7004 57.598 14.0703 56.2058 14.0703C55.5794 14.0703 54.7441 14.2103 53.6303 14.4904C53.6303 14.4904 53.4911 14.4904 53.4911 14.6304L52.3773 16.4503L49.7322 20.7203L49.3842 21.2803L49.0361 22.1203C49.1058 22.1203 49.245 22.0503 49.3146 21.9803C50.6372 21.4903 52.0293 21.2103 53.2822 21.2103C54.5352 21.2103 55.2313 21.3504 55.997 21.7003V21.8403C55.3706 21.5603 54.6048 21.4203 53.8392 21.4203C52.3078 21.4203 50.4284 21.9103 48.8273 22.6103L48.0616 24.2903L48.5489 24.0103C50.7068 22.8203 53.2822 22.1904 54.7441 22.1904C56.2058 22.1904 55.3706 22.1904 55.5794 22.2603C55.5794 22.4703 55.7185 22.6103 55.8578 22.6803C56.0666 22.7503 56.2058 22.7503 56.4146 22.7503C56.6235 22.7503 56.7627 22.7503 56.9715 22.6803C57.1804 22.6803 57.3195 22.4703 57.3892 22.2603C57.598 22.2603 57.8764 22.1904 58.2244 22.1904C59.6863 22.1904 61.9833 22.8203 63.5843 24.0103L63.9324 24.2903V22.6103H63.7931ZM56.2755 20.5104L56.1362 21.0003C55.8578 20.8603 55.3706 20.6503 54.7441 20.5104C54.2568 20.3703 53.6303 20.3003 52.9343 20.3003H52.7254C52.7254 20.3003 52.7254 20.3003 52.6558 20.3003C52.6558 20.3003 52.6558 20.3003 52.5862 20.3003C52.5862 20.3003 52.5862 20.3003 52.5166 20.3003C52.5166 20.3003 52.5166 20.3003 52.447 20.3003C52.447 20.3003 52.447 20.3003 52.3773 20.3003C52.3773 20.3003 52.3078 20.3003 52.2382 20.3003C52.2382 20.3003 52.2382 20.3003 52.1685 20.3003C52.1685 20.3003 52.0989 20.3003 52.0293 20.3003C52.0293 20.3003 52.0293 20.3003 51.9597 20.3003C51.9597 20.3003 51.8205 20.3003 51.7508 20.3003C51.7508 20.3003 51.7509 20.3003 51.6813 20.3003C51.6813 20.3003 51.6117 20.3003 51.5421 20.3003C51.5421 20.3003 51.5421 20.3003 51.4724 20.3003C51.4724 20.3003 51.4029 20.3003 51.3333 20.3003C51.3333 20.3003 51.3333 20.3003 51.2636 20.3003C51.2636 20.3003 51.194 20.3003 51.1244 20.3003C51.1244 20.3003 51.1244 20.3003 51.0548 20.3003C51.0548 20.3003 50.9852 20.3003 50.9156 20.3003C50.9156 20.3003 50.9156 20.3003 50.8459 20.3003H50.7068C50.7068 20.3003 50.5675 20.3003 50.4979 20.3703C50.4979 20.3703 50.4979 20.3703 50.4284 20.3703C50.4284 20.3703 50.3587 20.3703 50.2891 20.3703C50.2891 20.3703 50.2891 20.3703 50.2195 20.3703C50.2195 20.3703 50.2195 20.3703 50.1499 20.3703C50.1499 20.3003 52.795 16.0303 52.795 16.0303L53.9087 14.2803C54.8832 14.0003 55.649 13.8604 56.2058 13.8604C56.7627 13.8604 57.3195 14.0003 57.5284 14.1403C57.6676 14.2103 57.7372 14.2803 57.7372 14.3503L56.4843 19.8803L56.2755 20.5104ZM56.9715 21.0003L57.1107 20.5104L58.3637 14.9803C58.5029 14.8403 59.0598 14.4904 60.1735 14.4204C60.7304 14.4204 61.4265 14.4904 62.3314 14.8403L62.6098 16.5903L63.3059 20.8603C63.3059 20.8603 63.3059 20.8603 63.2363 20.8603C63.2363 20.8603 63.1666 20.8603 63.097 20.8603C62.9579 20.8603 62.8186 20.7203 62.749 20.7203C62.749 20.7203 62.6794 20.7203 62.6098 20.7203C62.6098 20.7203 62.5402 20.7203 62.4705 20.7203C62.4705 20.7203 62.401 20.7203 62.3314 20.7203H62.1921C62.1921 20.7203 62.0529 20.7203 61.9833 20.7203C61.9833 20.7203 61.9137 20.7203 61.8441 20.7203C61.8441 20.7203 61.7745 20.7203 61.7049 20.7203C61.7049 20.7203 61.6353 20.7203 61.5656 20.7203C61.5656 20.7203 61.4961 20.7203 61.4265 20.7203H61.2176C59.6862 20.7203 58.2244 21.2103 57.598 21.4203" fill="#2B7534"/>
<path d="M61.5658 19.04C61.5658 18.97 61.705 18.5499 61.7746 18.4799V18.4099C61.7746 18.4799 61.705 18.5499 61.6354 18.6199C61.5658 18.6899 61.4266 18.6899 61.2178 18.6899H60.9393C61.4266 18.34 61.7746 17.99 61.9138 17.5C62.1227 16.7299 61.705 16.1699 60.8001 16.1699C59.8952 16.1699 59.1295 16.59 58.9207 17.5699C58.851 17.99 58.9207 18.4799 59.3383 18.6899H59.0599C58.9207 18.6899 58.7815 18.6899 58.7119 18.5499C58.7119 18.5499 58.7119 18.4799 58.7119 18.34C58.7119 18.34 58.7119 18.34 58.7119 18.4099C58.7119 18.4799 58.6422 18.9 58.6422 18.97C58.6422 19.04 58.6422 19.04 58.851 19.04C59.1295 19.04 59.5471 19.04 59.7559 19.04C59.8256 19.04 59.7559 19.04 59.8952 19.04V18.83C59.6168 18.6199 59.4775 17.99 59.6168 17.5C59.7559 17.0099 60.104 16.38 60.8697 16.38C61.6354 16.38 61.705 16.9399 61.5658 17.5699C61.4266 18.27 61.0785 18.6199 60.6609 18.83V19.04C60.7305 19.04 60.6609 19.04 60.8001 19.04C60.9393 19.04 61.3569 19.04 61.6354 19.04C61.9138 19.04 61.8443 19.04 61.8443 18.97" fill="#2B7534"/>
<path d="M55.3027 19.04C55.3027 19.04 55.233 19.04 55.1634 19.04C55.0939 19.04 55.0242 18.97 54.9546 18.6199C54.8154 18.06 54.6066 16.52 54.537 16.31C54.537 16.24 54.537 16.1699 54.537 16.1699C54.537 16.1699 54.4674 16.1699 54.3978 16.31L52.936 18.6899C52.7967 18.9 52.7271 19.04 52.5183 19.04C52.5183 19.04 52.4487 19.04 52.3792 19.04C52.588 19.04 52.7967 19.04 52.7967 19.04C52.936 19.04 53.0752 19.04 53.2144 19.04C53.3536 19.04 53.2144 19.04 53.2841 19.04C53.1448 19.04 53.1448 19.04 53.1448 18.9C53.1448 18.9 53.1448 18.7599 53.2841 18.6899L53.6321 18.13H54.4674L54.6066 18.9V18.97C54.6066 18.97 54.6066 18.97 54.6762 18.97C54.9546 18.97 55.233 18.97 55.3723 18.97C55.5115 18.97 55.5115 18.97 55.5811 18.97M54.3281 17.99H53.6321L54.189 17.08L54.3281 17.99Z" fill="#2B7534"/>
<path d="M1.74023 48.8135L0 57.9135H3.75887L3.9677 56.7235H1.60098L2.15789 53.7135H4.24611L4.45495 52.5935H2.36672L2.85396 50.0035H5.08144L5.29027 48.8135H1.74023Z" fill="#27251F"/>
<path d="M6.75088 48.9535C7.16854 48.8835 7.72545 48.8135 8.28228 48.8135C9.32643 48.8135 10.0225 49.1635 10.4402 49.7235C10.9274 50.3535 11.0667 51.1235 11.0667 52.0335C11.0667 54.2735 10.1618 56.3035 9.18719 57.0735C8.42153 57.7035 7.65579 57.9835 6.54214 57.9835C5.4284 57.9835 5.4284 57.9835 5.08032 57.8435L6.75088 49.0235V48.9535ZM6.61172 56.7235C6.75088 56.7235 6.89013 56.7235 7.09896 56.7235C7.72545 56.7235 8.35195 56.3035 8.76953 55.5335C9.25685 54.6935 9.67443 53.2935 9.67443 51.8235C9.67443 50.3535 9.32643 49.8635 8.35195 49.8635C7.37738 49.8635 8.00387 49.8635 7.93428 49.8635L6.61172 56.6534V56.7235Z" fill="#27251F"/>
<path d="M16.9157 57.9138L17.4726 53.6438C17.5422 52.8738 17.7511 52.0338 17.8903 50.9838C17.5422 52.0338 17.1246 53.0138 16.8462 53.7138L15.0363 57.8438H14.0619L13.853 53.6438C13.853 52.9438 13.853 52.0338 13.853 50.9838C13.6442 52.0338 13.4354 52.9438 13.2961 53.7138L12.3216 57.9838H11.1383L13.3658 48.8838H14.8275L15.0363 53.6438C15.0363 54.3438 15.0363 55.1138 15.0363 55.8138C15.2452 55.1138 15.5933 54.3438 15.8717 53.6438L17.8206 48.8838H19.2825L18.0991 57.9838H16.9157V57.9138Z" fill="#27251F"/>
<path d="M22.4835 48.8135L21.3698 54.7635C21.3002 55.1835 21.3002 55.5335 21.3002 55.8134C21.3002 56.4435 21.6482 56.7935 22.1354 56.7935C22.6227 56.7935 23.1796 56.3035 23.458 54.9035L24.6414 48.8835H25.9639L24.8501 54.7635C24.4325 56.9335 23.5972 58.0535 21.9266 58.0535C20.256 58.0535 19.908 57.2835 19.908 56.0235C19.908 54.7635 19.908 55.1835 20.0472 54.6935L21.1609 48.8835H22.4835V48.8135Z" fill="#27251F"/>
<path d="M25.8945 57.9135L27.6348 48.8135H28.8877L29.6534 53.0135C29.8622 54.0635 30.0014 54.9734 30.0711 55.7435C30.2102 54.7635 30.3495 53.4335 30.5583 52.1035L31.1848 48.8135H32.3681L30.6279 57.9135H29.4446L28.6093 53.9235C28.4004 52.8035 28.2613 52.1035 28.1916 50.9835C28.0524 51.8935 27.9132 53.2235 27.6348 54.5535L27.0083 57.8435H25.825L25.8945 57.9135Z" fill="#27251F"/>
<path d="M34.1787 48.9535C34.5963 48.8835 35.1535 48.8135 35.7098 48.8135C36.7544 48.8135 37.4502 49.1635 37.8679 49.7235C38.3553 50.3535 38.4939 51.1235 38.4939 52.0335C38.4939 54.2735 37.5897 56.3035 36.6149 57.0735C35.8493 57.7035 35.0837 57.9835 33.9694 57.9835C32.856 57.9835 32.856 57.9835 32.5079 57.8435L34.1787 49.0235V48.9535ZM33.9694 56.7235C34.1089 56.7235 34.2484 56.7235 34.4568 56.7235C35.0837 56.7235 35.7098 56.3035 36.1275 55.5335C36.6149 54.6935 37.0325 53.2935 37.0325 51.8235C37.0325 50.3535 36.6846 49.8635 35.7098 49.8635C34.7358 49.8635 35.3619 49.8635 35.2922 49.8635L33.9694 56.6534V56.7235Z" fill="#27251F"/>
<path d="M42.6263 49.0239C43.1129 48.9538 43.7398 48.8838 44.2272 48.8838C44.7146 48.8838 45.6189 49.0239 46.0366 49.4438C46.3845 49.7938 46.5937 50.2838 46.5937 50.9138C46.5937 52.2438 45.8281 53.3638 44.7836 53.6438C45.271 53.9238 45.5491 54.4838 45.5491 55.5338C45.5491 56.6538 45.5491 57.6338 45.6886 57.9138H44.3659C44.3659 57.6338 44.3659 56.7938 44.297 55.6738C44.297 54.4838 44.018 54.0638 43.3222 54.0638H42.9742L42.2776 57.8438H40.9557L42.6263 48.8838V49.0239ZM43.1827 53.0838H43.6003C44.5751 53.0838 45.2012 52.1038 45.2012 51.0538C45.2012 50.0038 44.9231 49.9339 44.2272 49.9339C43.5306 49.9339 43.8793 49.9339 43.7398 49.9339L43.1827 53.0838Z" fill="#27251F"/>
<path d="M49.9342 48.8838L48.1938 57.9838H46.8021L48.5417 48.8838H49.9342Z" fill="#27251F"/>
<path d="M53.9723 57.8435C53.6941 57.9835 53.2765 58.0535 52.789 58.0535C50.7007 58.0535 50.2831 56.1635 50.2831 54.9035C50.2831 52.8735 50.9092 51.0535 52.0235 49.9334C52.789 49.1635 53.6941 48.8135 54.5984 48.8135C55.5034 48.8135 55.4337 48.8835 55.5732 49.0235L55.1555 50.2135C54.9463 50.1435 54.7379 50.0735 54.3899 50.0735C53.8328 50.0735 53.2765 50.3535 52.9277 50.8434C52.2319 51.6834 51.7445 53.0835 51.7445 54.6235C51.7445 56.1635 52.0924 56.7934 53.0672 56.7934C54.042 56.7934 53.763 56.7934 53.9723 56.6534V57.8435Z" fill="#27251F"/>
<path d="M59.331 53.7838H57.1729L56.6166 56.7938H59.0528L58.7738 57.9838H55.0846L56.7552 48.8838H60.3747L60.0965 50.0738H57.9385L57.3821 52.6638H59.5402L59.331 53.7838Z" fill="#27251F"/>
<path d="M67.0818 53.7828H64.9935L64.4372 56.7929H66.8037L66.5952 57.9828H62.8363L64.5759 48.8828H68.1264L67.9172 50.0729H65.6902L65.2028 52.6629H67.2911L67.0818 53.7828Z" fill="#27251F"/>
<path d="M69.5913 49.0229C70.0089 48.9528 70.5661 48.8828 71.1921 48.8828C72.2367 48.8828 72.9325 49.2329 73.3502 49.7928C73.8376 50.4228 73.9763 51.1928 73.9763 52.1028C73.9763 54.3429 73.072 56.3728 72.0972 57.1428C71.3317 57.7728 70.4963 58.0528 69.4518 58.0528C68.408 58.0528 68.3383 58.0528 67.9904 57.9128L69.661 49.0929L69.5913 49.0229ZM69.4518 56.7929C69.5913 56.7929 69.7307 56.7929 69.9392 56.7929C70.5661 56.7929 71.1921 56.3728 71.6098 55.6028C72.0972 54.7628 72.5149 53.3629 72.5149 51.8928C72.5149 50.4228 72.167 49.9329 71.1921 49.9329C70.2182 49.9329 70.8442 49.9329 70.7745 49.9329L69.4518 56.7228V56.7929Z" fill="#27251F"/>
<path d="M77.2475 48.8828L76.1341 54.8328C76.0643 55.2528 75.9946 55.6028 75.9946 55.8828C75.9946 56.5128 76.3425 56.8629 76.8299 56.8629C77.3173 56.8629 77.8744 56.3728 78.1526 54.9728L79.3358 48.9528H80.6586L79.5451 54.8328C79.1274 57.0028 78.2921 58.1228 76.6215 58.1228C74.9508 58.1228 74.6029 57.3528 74.6029 56.0928C74.6029 54.8328 74.6029 55.2528 74.7416 54.7628L75.8559 48.9528H77.1778L77.2475 48.8828Z" fill="#27251F"/>
<path d="M84.6249 57.8435C84.3468 57.9835 83.9291 58.0535 83.3719 58.0535C81.2836 58.0535 80.866 56.1635 80.866 54.9035C80.866 52.8735 81.4929 51.0535 82.6064 49.9334C83.3719 49.1635 84.277 48.8135 85.1821 48.8135C86.0872 48.8135 86.0174 48.8835 86.1561 49.0235L85.7392 50.2135C85.53 50.1435 85.3216 50.0735 84.9728 50.0735C84.4165 50.0735 83.8593 50.3535 83.4417 50.8434C82.7459 51.6834 82.2584 53.0835 82.2584 54.6235C82.2584 56.1635 82.6064 56.7934 83.5812 56.7934C84.5552 56.7934 84.277 56.7934 84.4862 56.6534V57.8435H84.6249Z" fill="#27251F"/>
<path d="M87.5492 55.6028L86.6441 57.9828H85.3214L89.0106 48.8828H90.5418L90.751 57.9828H89.4283V55.6028H87.5492ZM89.4283 54.5528V52.3828C89.4283 51.8229 89.4283 50.9129 89.4283 50.2128C89.2199 50.9129 88.9409 51.8229 88.7325 52.3828L87.8971 54.5528H89.4283Z" fill="#27251F"/>
<path d="M93.6053 50.1429H92.0044L92.2128 48.8828H96.8071L96.5289 50.1429H94.9272L93.4658 57.9828H92.0733L93.6053 50.1429Z" fill="#27251F"/>
<path d="M99.2432 48.8828L97.5028 57.9828H96.1104L97.8507 48.8828H99.2432Z" fill="#27251F"/>
<path d="M101.609 58.0532C99.7989 58.0532 99.5208 56.0932 99.5208 55.1131C99.5208 53.2931 100.147 50.7731 101.4 49.5132C101.887 49.0231 102.513 48.7432 103.21 48.7432C105.019 48.7432 105.229 50.5631 105.229 51.6131C105.229 53.4332 104.602 56.0232 103.418 57.2132C102.862 57.7732 102.235 58.0532 101.539 58.0532H101.609ZM101.817 56.8632C102.027 56.8632 102.305 56.7231 102.513 56.5131C103.488 55.5332 103.906 52.5932 103.906 51.6131C103.906 50.6331 103.906 50.0032 103.07 50.0032C102.235 50.0032 102.583 50.1432 102.375 50.3532C101.47 51.2632 100.982 53.9231 100.982 55.2532C100.982 56.5831 100.982 56.9332 101.817 56.9332V56.8632Z" fill="#27251F"/>
<path d="M105.577 57.9828L107.318 48.8828H108.571L109.336 53.0828C109.545 54.1328 109.684 55.0428 109.754 55.8128C109.893 54.8328 110.033 53.5029 110.241 52.1728L110.868 48.8828H112.051L110.311 57.9828H109.128L108.292 53.9928C108.083 52.8728 107.945 52.1728 107.875 51.0528C107.735 51.9628 107.597 53.2928 107.318 54.6228L106.692 57.9128H105.508L105.577 57.9828Z" fill="#27251F"/>
<path d="M36.8807 68.2459L36.2547 69.9959H34.8622L37.9253 62.2959H39.5959V69.9959C39.6657 69.9959 38.2732 69.9959 38.2732 69.9959V68.2459H36.8807ZM38.343 67.1959V65.5159C38.343 65.026 38.4825 64.256 38.4825 63.6259C38.2732 64.186 38.0648 65.026 37.9253 65.4459L37.2984 67.1259H38.4127L38.343 67.1959Z" fill="#27251F"/>
<path d="M43.2858 62.2959L42.3118 67.2659C42.2421 67.616 42.2421 67.8959 42.2421 68.1059C42.2421 68.5259 42.4505 68.8059 42.7984 68.8059C43.1472 68.8059 43.5648 68.456 43.7732 67.3359L44.7481 62.2959H46.1397L45.2355 67.1259C44.8867 68.9459 44.1909 70.0659 42.6597 70.0659C41.1286 70.0659 40.8496 69.3659 40.8496 68.2459C40.8496 67.1259 40.8496 67.4759 40.9891 67.0559L41.8942 62.2959H43.3556H43.2858Z" fill="#27251F"/>
<path d="M46.3493 68.5256C46.6282 68.6656 46.9762 68.8056 47.3938 68.8056C48.0199 68.8056 48.5073 68.4556 48.5073 67.8256C48.5073 67.1956 48.2291 66.9856 47.7417 66.5657C47.1846 66.0056 46.8367 65.3756 46.8367 64.6756C46.8367 63.2057 47.8812 62.2256 49.3426 62.2256C50.8049 62.2256 50.3175 62.3657 50.4561 62.5056L50.0385 63.6956C49.83 63.5556 49.5519 63.4856 49.204 63.4856C48.5771 63.4856 48.1594 63.9056 48.1594 64.4656C48.1594 65.0256 48.2989 65.0956 48.925 65.6556C49.5519 66.2156 49.83 66.9156 49.83 67.5456C49.83 69.1556 48.7863 70.0656 47.3241 70.0656C45.8627 70.0656 46.0711 69.9256 45.8627 69.7856L46.2106 68.5256H46.3493Z" fill="#27251F"/>
<path d="M51.5001 62.2959L51.2219 63.6259H52.5447L51.3614 69.9959H52.7531L53.9363 63.6259H55.259L55.5372 62.2959H51.5001Z" fill="#27251F"/>
<path d="M56.5128 62.436C56.9994 62.366 57.5565 62.2959 58.0439 62.2959C58.5314 62.2959 59.3667 62.436 59.7146 62.8559C60.0625 63.1359 60.202 63.6259 60.202 64.116C60.202 65.2359 59.5054 66.1459 58.67 66.4259C59.0877 66.6359 59.2272 67.0559 59.2969 67.9659C59.2969 68.8059 59.2969 69.7859 59.4356 70.0659H58.0439C58.0439 69.8559 58.0439 69.0859 58.0439 68.2459C58.0439 67.4059 57.8347 66.9859 57.3481 66.9859H57.1389L56.5817 70.0659H55.1901L56.6515 62.506L56.5128 62.436ZM57.2784 65.7959H57.6263C58.3221 65.7959 58.8095 65.026 58.8095 64.256C58.8095 63.4859 58.67 63.416 58.1137 63.416C57.5565 63.416 57.8347 63.416 57.7658 63.416L57.3481 65.7959H57.2784Z" fill="#27251F"/>
<path d="M62.0101 68.2459L61.3841 69.9959H59.9916L63.0547 62.2959H64.7253V69.9959C64.7951 69.9959 63.4026 69.9959 63.4026 69.9959V68.2459H62.0101ZM63.4724 67.1959V65.5159C63.4724 65.026 63.5421 64.256 63.6119 63.6259C63.4026 64.186 63.1942 65.026 63.0547 65.4459L62.4278 67.1259H63.5421L63.4724 67.1959Z" fill="#27251F"/>
<path d="M67.233 62.2959L65.7708 69.9959H69.0423L69.3213 68.7359H67.4414L68.6944 62.2959H67.233Z" fill="#27251F"/>
<path d="M71.4767 62.2959L70.0145 69.9959H71.407L72.8684 62.2959H71.4767Z" fill="#27251F"/>
<path d="M74.4723 68.2459L73.8454 69.9959H72.4537L75.516 62.2959H77.1867V69.9959C77.2564 69.9959 75.8648 69.9959 75.8648 69.9959V68.2459H74.4723ZM75.9337 67.1959V65.5159C75.9337 65.026 76.0034 64.256 76.0732 63.6259C75.8648 64.186 75.6555 65.026 75.4471 65.4459L74.8202 67.1259H75.9337V67.1959Z" fill="#27251F"/>
</g>
<defs>
<linearGradient id="paint0_linear_10323_2930" x1="60.732" y1="26.6699" x2="64.2348" y2="30.7105" gradientUnits="userSpaceOnUse">
<stop stop-color="#FBB53D"/>
<stop offset="1" stop-color="#EFA625"/>
</linearGradient>
<linearGradient id="paint1_linear_10323_2930" x1="57.5308" y1="15.6801" x2="59.9225" y2="6.65675" gradientUnits="userSpaceOnUse">
<stop stop-color="#B2CA38"/>
<stop offset="1" stop-color="#1E4E26"/>
</linearGradient>
<linearGradient id="paint2_linear_10323_2930" x1="55.5108" y1="24.71" x2="51.3606" y2="40.7287" gradientUnits="userSpaceOnUse">
<stop stop-color="#B2CA38"/>
<stop offset="1" stop-color="#1E4E26"/>
</linearGradient>
<linearGradient id="paint3_linear_10323_2930" x1="58.9215" y1="18.4798" x2="72.6343" y2="18.4798" gradientUnits="userSpaceOnUse">
<stop stop-color="#B2CA38"/>
<stop offset="1" stop-color="#1E4E26"/>
</linearGradient>
<linearGradient id="paint4_linear_10323_2930" x1="53.9098" y1="20.16" x2="42.8408" y2="19.0524" gradientUnits="userSpaceOnUse">
<stop stop-color="#B2CA38"/>
<stop offset="1" stop-color="#1E4E26"/>
</linearGradient>
<clipPath id="clip0_10323_2930">
<rect width="112.051" height="70.0656" fill="white"/>
</clipPath>
</defs>
</svg>
