<svg width="84" height="84" viewBox="0 0 84 84" fill="none" xmlns="http://www.w3.org/2000/svg">
<g clip-path="url(#clip0_10323_2928)">
<path d="M41.6108 79.2581C62.388 79.2581 79.2312 62.4142 79.2312 41.6364C79.2312 20.8585 62.388 4.01465 41.6108 4.01465C20.8337 4.01465 3.99048 20.8585 3.99048 41.6364C3.99048 62.4142 20.8337 79.2581 41.6108 79.2581Z" fill="white" stroke="#231F20" stroke-width="0.277206" stroke-miterlimit="10"/>
<path d="M12.13 53.4046C16.7311 65.1728 28.1756 73.5132 41.5749 73.5132C54.9742 73.5132 67.188 64.601 71.4598 52.2041L42.5897 30.4609L12.13 53.4076V53.4046Z" fill="#2B328C"/>
<path d="M41.6019 9.57422C24.0295 9.57422 9.78308 23.8212 9.78308 41.3942C9.78308 44.7591 10.307 48.0042 11.2769 51.0488L11.3098 51.0249L42.5898 27.4615L72.1933 49.7585L72.2891 49.8304C73.0255 47.145 73.4237 44.316 73.4237 41.3971C73.4237 23.8242 59.1772 9.57721 41.6049 9.57721L41.6019 9.57422Z" fill="#2B328C"/>
<path d="M72.2981 49.8008L42.5898 27.4619L11.2739 51.0462C11.6122 52.1539 11.6481 52.2377 12.1301 53.4082L42.5898 30.4616L71.4599 52.2048C71.9568 50.9624 72.0077 50.8636 72.2951 49.8008H72.2981Z" fill="#87754E"/>
<path d="M63.3323 34.6156C68.0352 29.5773 63.7065 23.8384 63.7065 23.8384C61.5691 20.1471 55.8484 18.3509 53.8187 18.0516C51.7891 17.7522 48.5979 17.8031 48.5979 17.8031L51.0317 19.9106V56.8019L50.0228 59.8644L55.7945 55.6733L54.7258 55.1254C61.2458 52.5808 63.8652 51.3324 65.8978 46.5425C68.125 41.2916 64.4549 36.0137 63.3323 34.6186V34.6156ZM62.8503 44.396C62.2696 46.7132 60.9255 48.9375 54.5671 51.53V21.3446C54.5671 21.3446 60.1262 22.9403 61.7278 27.0835C63.3293 31.2268 60.6052 32.9721 58.4677 34.5169C58.4677 34.5169 64.0268 39.7049 62.8503 44.396Z" fill="#87754E"/>
<path d="M49.1457 17.8005C50.1455 17.8005 52.3039 17.8274 53.8187 18.0519C55.8483 18.3513 61.5691 20.1475 63.7065 23.8387C63.7065 23.8387 68.0352 29.5777 63.3323 34.616C64.4549 36.0141 68.125 41.289 65.8978 46.5399C63.8681 51.3298 61.2487 52.5782 54.7257 55.1228L55.7944 55.6707L50.0228 59.8618L51.0316 56.7993V19.908L48.5979 17.8005C48.5979 17.8005 48.8044 17.7975 49.1457 17.7975M54.5671 51.5304C60.9284 48.9349 62.2695 46.7105 62.8503 44.3964C64.0268 39.7053 58.4677 34.5172 58.4677 34.5172C60.6051 32.9695 63.3323 31.2242 61.7277 27.0839C60.1231 22.9436 54.5671 21.345 54.5671 21.345V51.5304ZM49.1457 17.5011C48.8014 17.5011 48.5949 17.5041 48.5949 17.5041L47.8105 17.5161L48.4033 18.028L50.7353 20.0457V56.7514L49.7414 59.766L49.451 60.6462L50.2024 60.1013L55.974 55.9101L56.3692 55.6228L55.9351 55.4012L55.4562 55.1557C61.3685 52.8326 64.1375 51.4555 66.1762 46.6537C68.4244 41.3488 64.8321 36.065 63.7274 34.625C66.0744 31.9786 66.0355 29.1705 65.5775 27.2635C65.0955 25.2518 64.0867 23.8387 63.9609 23.6681C61.8295 20.0068 56.2405 18.0998 53.8666 17.7496C52.3638 17.528 50.2653 17.4951 49.1487 17.4951L49.1457 17.5011ZM54.8664 51.0813V21.7581C56.1297 22.2042 60.1591 23.8567 61.4493 27.1917C62.9072 30.9548 60.5902 32.6222 58.5455 34.0921L58.2941 34.2748L58.0007 34.4873L58.2671 34.7358C58.321 34.7867 63.6825 39.861 62.5629 44.3246C61.9522 46.7584 60.4375 48.7492 54.8694 51.0843L54.8664 51.0813Z" fill="#2B328C"/>
<path d="M41.5809 0C18.653 0 0 18.6537 0 41.5824C0 64.511 18.653 83.1647 41.5809 83.1647C64.5087 83.1647 83.1617 64.511 83.1617 41.5824C83.1617 18.6537 64.5087 0 41.5809 0ZM41.5809 74.5698C23.3919 74.5698 8.59458 59.772 8.59458 41.5824C8.59458 23.3927 23.3919 8.59488 41.5809 8.59488C59.7699 8.59488 74.5672 23.3927 74.5672 41.5824C74.5672 59.772 59.7699 74.5698 41.5809 74.5698Z" fill="#231F20"/>
<path d="M36.1505 41.9096L36.2823 41.8438L36.1505 41.9066L36.0967 41.7929L36.0368 41.7061C35.1267 40.305 34.4083 39.4009 33.4024 38.5507C33.3635 38.5178 33.3246 38.4848 33.2827 38.4519C33.2438 38.419 33.2049 38.386 33.163 38.3561C32.4625 37.7933 31.6153 37.2425 30.4837 36.5719C30.4418 36.5479 30.3969 36.521 30.355 36.497C30.3131 36.4731 30.2712 36.4461 30.2262 36.4222C29.3192 35.8923 28.2385 35.2846 26.9153 34.5422L26.8525 34.5062C26.8525 34.5062 26.8495 34.5062 26.8465 34.5032C26.4304 34.2308 26.0412 33.9674 25.673 33.7039C24.9905 33.2159 24.3918 32.7399 23.8769 32.255C22.3142 30.7851 21.5149 29.2194 21.491 26.9232C21.6915 25.0522 22.7513 23.4625 24.4756 22.4297C26.7926 21.0436 29.9149 20.9478 32.8307 22.1752L32.8726 22.2022L35.5758 24.6869L33.6449 17.6338L31.9056 18.502L31.8518 18.49C28.6367 17.7026 25.4335 18.1277 22.8291 19.6845C20.2187 21.2442 18.5632 23.7918 18.2908 26.6747L18.2819 26.7586V26.8274C18.2819 30.1534 19.5422 32.4406 21.3114 34.2368C21.8472 34.7787 22.428 35.2756 23.0327 35.7426C23.7092 36.2635 24.4187 36.7455 25.1282 37.2095L25.3377 37.3323C26.9124 38.2154 28.0948 38.88 29.0228 39.4309C29.0677 39.4578 29.1126 39.4847 29.1545 39.5117C29.1994 39.5386 29.2444 39.5656 29.2863 39.5925C30.6513 40.4188 31.4147 40.9936 32.0583 41.712C32.1002 41.7569 32.1421 41.8048 32.1811 41.8527C32.223 41.9006 32.2649 41.9515 32.3068 42.0024C32.6151 42.3796 32.9085 42.8017 33.2468 43.3197L33.121 43.4005L33.2528 43.3346C33.8904 44.7955 33.7856 46.4481 33.0013 47.5707C32.9085 47.7024 32.7199 47.9569 32.4445 48.2712C32.3427 48.388 32.229 48.5107 32.1032 48.6394C32.1032 48.6394 30.9178 50.0854 28.9749 50.747C28.8672 50.7829 28.7564 50.8188 28.6426 50.8488C28.5498 50.8757 28.469 50.8907 28.3942 50.9176C27.8853 51.0583 27.3404 51.1511 26.7567 51.1691C23.8379 51.2499 22.395 50.9326 21.3802 50.5135C21.3293 50.4925 21.2754 50.4716 21.2275 50.4506C21.1826 50.4297 21.1377 50.4087 21.0958 50.3908C20.8144 50.259 20.56 50.1213 20.3085 49.9836L18.4794 48.5466L18.3567 48.4508L18.2399 48.358L18.1621 48.2982L18.192 48.4149L18.2399 48.5945L18.2908 48.7831L19.2608 52.4205L19.3027 52.5761L19.3476 52.7498L19.7547 54.2736L21.2275 53.7736L21.2814 53.7976C22.3172 54.2616 23.4129 54.4652 26.8435 54.3724C27.8643 54.3454 28.7953 54.1688 29.6455 53.8964C29.6455 53.8964 31.3039 53.3934 33.0073 52.1151C34.3783 51.0853 35.2435 49.9447 35.6207 49.4058C37.0935 47.3013 37.2881 44.4303 36.1296 41.9126L36.1505 41.9096Z" fill="#87754E"/>
<path d="M33.6509 17.6303L35.5818 24.6834L32.8786 22.1987L32.8366 22.1717C31.4776 21.5999 30.0736 21.3155 28.7235 21.3155C27.1818 21.3155 25.7149 21.6868 24.4816 22.4262C22.7573 23.456 21.6975 25.0457 21.497 26.9197C21.5209 29.2159 22.3202 30.7816 23.8828 32.2515C24.3977 32.7365 24.9965 33.2125 25.679 33.7004C26.0472 33.9609 26.4364 34.2273 26.8525 34.4998C26.8525 34.4998 26.8555 34.4998 26.8585 34.5027L26.9213 34.5387C28.2445 35.2811 29.3252 35.8888 30.2322 36.4187C30.2771 36.4457 30.319 36.4696 30.361 36.4936C30.4029 36.5175 30.4478 36.5444 30.4897 36.5684C31.6212 37.239 32.4684 37.7898 33.1689 38.3526C33.2078 38.3856 33.2498 38.4185 33.2887 38.4484C33.3276 38.4814 33.3695 38.5143 33.4084 38.5472C34.4143 39.3974 35.1327 40.3015 36.0428 41.7026L36.1026 41.7894L36.1565 41.9032L36.2882 41.8403L36.1565 41.9061C37.315 44.4208 37.1235 47.2918 35.6476 49.3994C35.2704 49.9382 34.4053 51.0818 33.0342 52.1086C31.3309 53.3869 29.6724 53.8899 29.6724 53.8899C28.8223 54.1593 27.8883 54.3359 26.8704 54.3659C26.3256 54.3809 25.8376 54.3868 25.4006 54.3868C23.0925 54.3868 22.1795 54.1803 21.3084 53.7911L21.2545 53.7672L19.7816 54.2671L19.3745 52.7433L19.3296 52.5697L19.2877 52.414L18.3178 48.7767L18.2669 48.5881L18.219 48.4084L18.189 48.2917L18.2669 48.3516L18.3836 48.4444L18.5064 48.5402L20.3354 49.9771C20.5869 50.1148 20.8414 50.2526 21.1228 50.3843C21.1677 50.4052 21.2096 50.4262 21.2545 50.4442C21.3024 50.4651 21.3563 50.4861 21.4071 50.507C22.3142 50.8812 23.5655 51.1746 25.9065 51.1746C26.1819 51.1746 26.4753 51.1716 26.7836 51.1626C27.3674 51.1477 27.9122 51.0549 28.4211 50.9112C28.4959 50.8842 28.5768 50.8663 28.6696 50.8423C28.7833 50.8094 28.8941 50.7765 29.0019 50.7405C30.9447 50.0789 32.1302 48.633 32.1302 48.633C32.2559 48.5042 32.3696 48.3815 32.4714 48.2647C32.7468 47.9504 32.9354 47.6959 33.0282 47.5642C33.8126 46.4416 33.9173 44.7891 33.2797 43.3281L33.148 43.394L33.2737 43.3132C32.9354 42.7953 32.6391 42.3702 32.3337 41.996C32.2918 41.9451 32.2499 41.8972 32.208 41.8463C32.1661 41.7984 32.1272 41.7505 32.0853 41.7056C31.4416 40.9901 30.6753 40.4123 29.3132 39.586C29.2683 39.5591 29.2264 39.5322 29.1815 39.5052C29.1366 39.4783 29.0947 39.4513 29.0498 39.4244C28.1247 38.8735 26.9393 38.2089 25.3647 37.3258L25.1551 37.2031C24.4426 36.739 23.7362 36.2541 23.0596 35.7362C22.4519 35.2691 21.8712 34.7722 21.3383 34.2303C19.5691 32.4371 18.3088 30.1469 18.3088 26.8209V26.7521L18.3148 26.6683C18.5902 23.7853 20.2456 21.2377 22.853 19.678C24.6013 18.6332 26.619 18.0973 28.7324 18.0973C29.7652 18.0973 30.819 18.2261 31.8757 18.4835L31.9296 18.4955L33.6689 17.6273M33.8455 17.1992L33.5192 17.3639L31.8787 18.1841C30.825 17.9297 29.7622 17.8009 28.7175 17.8009C26.5471 17.8009 24.4606 18.3608 22.6854 19.4235C19.9942 21.0341 18.2848 23.6656 18.0004 26.6443L17.9915 26.7281V26.7431V26.7581V26.8269C17.9915 29.8236 19.0123 32.3174 21.1078 34.4429C21.6167 34.9578 22.1915 35.4607 22.862 35.9756C23.4577 36.4337 24.1104 36.8887 24.9785 37.4575H24.9845L24.9935 37.4665L25.203 37.5892C26.7417 38.4544 27.9571 39.134 28.8851 39.6878L29.0168 39.7657L29.1486 39.8465C30.5106 40.6698 31.2411 41.2296 31.8547 41.9091C31.8937 41.954 31.9356 41.999 31.9745 42.0439C32.0134 42.0918 32.0553 42.1397 32.0942 42.1876C32.3607 42.5139 32.6331 42.8941 33.0013 43.4569C33.591 44.813 33.5042 46.3608 32.7768 47.3966C32.693 47.5163 32.5103 47.7648 32.2409 48.0731C32.1361 48.1929 32.0224 48.3126 31.9116 48.4294L31.9026 48.4384L31.8937 48.4474C31.8937 48.4474 30.7351 49.8364 28.9001 50.4621C28.7983 50.498 28.6905 50.531 28.5858 50.5609C28.5558 50.5699 28.5289 50.5759 28.5019 50.5819C28.4391 50.5968 28.3822 50.6148 28.3283 50.6328C27.8044 50.7794 27.2955 50.8543 26.7716 50.8693C26.4723 50.8782 26.1789 50.8812 25.9035 50.8812C23.3979 50.8812 22.2424 50.537 21.5179 50.2376L21.476 50.2196C21.4401 50.2047 21.4042 50.1897 21.3712 50.1747C21.3413 50.1598 21.3113 50.1478 21.2814 50.1328L21.2425 50.1148C20.9821 49.9921 20.7486 49.8664 20.4941 49.7287L18.683 48.3067L18.5602 48.2109L18.4435 48.1181L18.3657 48.0582L17.6592 47.5043L17.8897 48.3725L17.9196 48.4893L17.9675 48.6689L18.0184 48.8575L18.9883 52.4948L19.0302 52.6505L19.0751 52.8241L19.4823 54.3479L19.5661 54.6563L19.8684 54.5545L21.2305 54.0935C22.1136 54.4826 23.0626 54.6922 25.3886 54.6922C25.8317 54.6922 26.3136 54.6862 26.8674 54.6682C27.8463 54.6413 28.8193 54.4767 29.7533 54.1803C29.8191 54.1593 31.4805 53.6474 33.2049 52.3541C34.4831 51.3932 35.3692 50.3124 35.8841 49.576C37.4198 47.3846 37.6234 44.3999 36.42 41.7864L36.2853 41.8493L36.42 41.7834L36.3661 41.6696L36.3571 41.6487L36.3451 41.6307L36.2853 41.5439C35.2914 40.0141 34.5609 39.143 33.597 38.3257C33.5641 38.2987 33.5282 38.2688 33.4952 38.2419L33.4743 38.2269L33.4443 38.203C33.4144 38.179 33.3845 38.1521 33.3515 38.1281C32.678 37.5892 31.8667 37.0474 30.6364 36.3199L30.5406 36.263L30.5046 36.2421L30.4597 36.2151L30.3729 36.1642C29.4599 35.6284 28.3463 35.0057 27.059 34.2812L27.0051 34.2513C26.5741 33.9699 26.1969 33.7124 25.8436 33.4609C25.1431 32.961 24.5654 32.497 24.0774 32.0389C22.4968 30.5541 21.8113 29.0273 21.7873 26.9407C21.9819 25.1774 22.9907 23.6686 24.6282 22.6896C25.7987 21.9891 27.2117 21.6209 28.7175 21.6209C30.0287 21.6209 31.3997 21.9053 32.69 22.4442L35.3722 24.911L36.1386 25.6145L35.8632 24.6116L33.9323 17.5585L33.8365 17.2052L33.8455 17.1992Z" fill="#2B328C"/>
<path d="M36.9438 52.9438C36.9438 48.0192 38.0455 44.2352 40.2488 41.5888C42.452 38.9424 45.1942 37.6191 48.4811 37.6191C50.6036 37.6191 52.5404 38.2089 54.2887 39.3914C56.0369 40.5739 57.4229 42.2893 58.4438 44.5435C59.4646 46.7948 59.9765 49.4771 59.9765 52.5906C59.9765 56.8716 58.9886 60.3562 57.0128 63.0505C54.8365 66.0173 51.9866 67.5022 48.4602 67.5022C44.9337 67.5022 42.0509 65.9784 39.8895 62.9338C37.9257 60.1766 36.9468 56.8476 36.9468 52.9468L36.9438 52.9438ZM40.2278 52.9947C40.2278 56.5572 41.0241 59.3204 42.6197 61.2843C44.2153 63.2481 46.1551 64.233 48.4362 64.233C50.7173 64.233 52.732 63.2421 54.3126 61.2573C55.8932 59.2725 56.6865 56.3566 56.6865 52.5038C56.6865 50.019 56.2794 47.7977 55.4651 45.8398C54.8365 44.343 53.8935 43.1425 52.6302 42.2414C51.3669 41.3403 49.9899 40.8912 48.4931 40.8912C46.0892 40.8912 44.1105 41.8762 42.5568 43.849C41.0002 45.8219 40.2248 48.8694 40.2248 52.9947H40.2278Z" fill="#87754E"/>
<path d="M48.4781 37.6188C50.6006 37.6188 52.5374 38.2085 54.2857 39.391C56.0339 40.5735 57.42 42.2889 58.4408 44.5432C59.4616 46.7944 59.9735 49.4768 59.9735 52.5902C59.9735 56.8712 58.9856 60.3558 57.0098 63.0502C54.8335 66.0169 51.9836 67.5018 48.4572 67.5018C44.9307 67.5018 42.0479 65.978 39.8866 62.9334C37.9228 60.1762 36.9439 56.8472 36.9439 52.9465C36.9439 48.0218 38.0455 44.2378 40.2488 41.5914C42.4521 38.945 45.1942 37.6218 48.4811 37.6218M48.4392 64.2297C50.7742 64.2297 52.735 63.2388 54.3156 61.254C55.8962 59.2691 56.6895 56.3533 56.6895 52.5004C56.6895 50.0156 56.2824 47.7943 55.4681 45.8364C54.8395 44.3396 53.8965 43.1391 52.6332 42.238C51.3699 41.3369 49.9929 40.8879 48.4961 40.8879C46.0922 40.8879 44.1135 41.8728 42.5598 43.8456C41.0032 45.8185 40.2278 48.8661 40.2278 52.9914C40.2278 56.5539 41.0241 59.317 42.6197 61.2809C44.2153 63.2448 46.1551 64.2297 48.4362 64.2297M48.4781 37.3194C45.0984 37.3194 42.2395 38.6935 39.9823 41.4088C37.7461 44.0941 36.6116 47.9769 36.6116 52.9435C36.6116 56.8832 37.6204 60.299 39.6081 63.0921C41.8264 66.2145 44.805 67.7982 48.4602 67.7982C52.1153 67.7982 55.058 66.2564 57.2882 63.2118C59.291 60.4816 60.3058 56.9071 60.3058 52.5872C60.3058 49.4498 59.7819 46.7046 58.7491 44.4264C57.7103 42.1333 56.2734 40.358 54.4863 39.1485C52.6871 37.9331 50.6664 37.3164 48.4781 37.3164V37.3194ZM48.4392 63.9303C46.2778 63.9303 44.4099 62.9813 42.8891 61.1043C41.3444 59.2003 40.5601 56.473 40.5601 52.9914C40.5601 48.9469 41.3235 45.9293 42.8322 44.0193C44.335 42.1153 46.188 41.1872 48.4991 41.1872C49.9121 41.1872 51.2322 41.6213 52.4297 42.4745C53.6361 43.3367 54.5551 44.5043 55.1598 45.9442C55.9561 47.8602 56.3602 50.0665 56.3602 52.5004C56.3602 56.2695 55.5819 59.1554 54.0492 61.0773C52.5195 62.9963 50.6844 63.9303 48.4392 63.9303Z" fill="#2B328C"/>
<path d="M44.3619 43.5344C44.3888 41.2203 43.6674 38.8433 42.3322 36.6818C41.9401 36.0472 41.497 35.4335 41.0031 34.8437C40.6618 34.4366 40.2996 34.0414 39.9134 33.6612C37.2401 31.0328 33.8604 29.4641 30.8758 29.4641H29.9777L26.8135 29.2725L29.2323 31.38V31.4459L29.2143 43.714V46.555L29.1844 64.1998L29.1515 64.9782L28.3163 67.915L32.6599 64.7208L33.8215 63.9005L32.5941 63.4335L32.5791 56.3893L32.6779 56.3534C35.6206 55.2248 37.9436 53.9495 39.7248 52.4466C39.7248 52.4466 41.0779 51.4617 42.0478 49.9469C43.3051 48.1716 44.0505 46.121 44.3529 43.714L44.3649 43.6182V43.5374L44.3619 43.5344ZM32.7857 52.8418L32.5701 52.9346L32.5492 44.0373L32.5432 41.2023L32.5252 32.8829L32.7228 32.9397C34.3992 33.4217 36.1205 34.4755 37.5754 35.9035C37.8688 36.1909 38.1442 36.4903 38.4046 36.7956C38.9075 37.3884 39.3446 38.011 39.7128 38.6517C40.5929 40.1845 41.0719 41.819 41.0749 43.3967C40.8324 45.2228 40.2786 46.7586 39.3476 48.0938H39.3536C39.3596 48.1177 39.3177 48.2285 38.7489 48.8722C37.4108 50.4199 35.4739 51.6892 32.7887 52.8418H32.7857Z" fill="#87754E"/>
<path d="M26.8135 29.2665L29.9777 29.4581H30.8758C33.8604 29.4581 37.2402 31.0268 39.9134 33.6553C40.2996 34.0355 40.6618 34.4306 41.0031 34.8378C41.497 35.4275 41.9401 36.0442 42.3323 36.6759C43.6674 38.8404 44.3888 41.2143 44.3619 43.5285V43.6093L44.3499 43.7051C44.0476 46.112 43.3052 48.1627 42.0449 49.938C41.0749 51.4528 39.7218 52.4377 39.7218 52.4377C37.9407 53.9405 35.6176 55.2158 32.675 56.3445L32.5762 56.3804L32.5911 63.4245L33.8185 63.8916L32.657 64.7118L28.3133 67.9061L29.1485 64.9693L29.1814 64.1909L29.2084 46.5461V43.7051L29.2293 31.437V31.3711L26.8105 29.2635M32.5702 52.9347L32.7857 52.8418C35.471 51.6923 37.4078 50.4199 38.7459 48.8722C39.3177 48.2286 39.3566 48.1148 39.3506 48.0968H39.3447C40.2757 46.7587 40.8295 45.2229 41.0719 43.3968C41.0719 41.8161 40.59 40.1815 39.7099 38.6518C39.3417 38.0111 38.9046 37.3884 38.4017 36.7957C38.1412 36.4903 37.8658 36.1909 37.5725 35.9035C36.1206 34.4756 34.3963 33.4218 32.7199 32.9398L32.5223 32.8829L32.5402 41.2024L32.5462 44.0374L32.5672 52.9347M25.9484 28.9133L26.61 29.4881L28.927 31.5058L28.909 43.7051V46.5461L28.8791 64.1909L28.8462 64.9214L28.0199 67.8253L27.7774 68.6755L28.5019 68.1426L32.8456 64.9483L34.0011 64.1311L34.4561 63.8107L33.9323 63.6101L32.8995 63.218L32.8845 56.581C35.8452 55.4374 38.1472 54.1561 39.9164 52.6682C40.0511 52.5694 41.3504 51.5905 42.3083 50.0936C43.5746 48.3094 44.3439 46.2258 44.6553 43.738L44.6672 43.6422V43.6243V43.6063V43.5255C44.6942 41.1844 43.9757 38.7595 42.5927 36.5173C42.1916 35.8646 41.7365 35.236 41.2396 34.6432C40.8834 34.2181 40.5092 33.811 40.129 33.4367C37.3988 30.7544 33.9382 29.1498 30.8728 29.1498H29.9837L26.8285 28.9582L25.9424 28.9043L25.9484 28.9133ZM32.8785 52.4766L32.8606 44.0374L32.8546 41.2024L32.8366 33.2871C34.3993 33.781 35.9978 34.7779 37.3569 36.1131C37.6353 36.3855 37.9077 36.6789 38.1652 36.9843C38.6501 37.5561 39.0812 38.1668 39.4404 38.7954C40.2996 40.2923 40.7576 41.876 40.7606 43.3758C40.5211 45.163 39.9763 46.6509 39.0872 47.9232L38.9256 48.1537L38.9405 48.1657C38.8597 48.2675 38.728 48.4291 38.5065 48.6776C37.2462 50.1355 35.453 51.345 32.8725 52.4736L32.8785 52.4766Z" fill="#2B328C"/>
<path d="M0.706543 39.3757L2.90982 41.0013L2.11353 43.5729L4.38865 42.0431L6.66377 43.5729L5.86449 41.0013L8.07076 39.3787L5.30169 39.3189L4.38865 36.7832L3.47561 39.3189L0.706543 39.3757Z" fill="#FFF200"/>
<path d="M0.320312 39.2564L3.38275 39.1905L4.38859 36.4004L5.39444 39.1905L8.45687 39.2564L6.02009 41.0526L6.90021 43.8876L4.39159 42.1992L1.88296 43.8876L2.76308 41.0526L0.3263 39.2564H0.320312ZM4.38859 37.1698L3.56835 39.448L1.09266 39.5019L3.06243 40.9538L2.34697 43.2589L4.38859 41.8878L6.43022 43.2589L5.71475 40.9538L7.68453 39.5019L5.20883 39.448L4.38859 37.1698Z" fill="#87754E"/>
<path d="M75.0969 39.3757L77.3002 41.0013L76.5039 43.5729L78.779 42.0431L81.0542 43.5729L80.2549 41.0013L82.4611 39.3787L79.6921 39.3189L78.779 36.7832L77.866 39.3189L75.0969 39.3757Z" fill="#FFF200"/>
<path d="M74.7108 39.2564L77.7732 39.1905L78.7791 36.4004L79.7849 39.1905L82.8474 39.2564L80.4106 41.0526L81.2907 43.8876L78.7821 42.1992L76.2735 43.8876L77.1536 41.0526L74.7168 39.2564H74.7108ZM78.7791 37.1698L77.9589 39.448L75.4832 39.5019L77.4529 40.9538L76.7375 43.2589L78.7791 41.8878L80.8207 43.2589L80.1052 40.9538L82.075 39.5019L79.5993 39.448L78.7791 37.1698Z" fill="#87754E"/>
<path d="M32.1331 52.7219C32.4235 52.5422 32.193 52.7488 32.4983 52.5213C33.8694 51.4915 35.2674 49.9407 35.6446 49.4019C37.1174 47.2973 37.312 44.4263 36.1535 41.9087L36.2852 41.8428L36.1535 41.9057L36.0996 41.7919L36.0397 41.7051C35.1297 40.304 34.4112 39.3999 33.4054 38.5497C33.3665 38.5168 33.3275 38.4839 33.2856 38.4509C33.2467 38.418 33.2078 38.3851 33.1659 38.3551C32.4654 37.7923 31.6182 37.2415 30.4866 36.5709C30.4447 36.547 30.3998 36.52 30.3579 36.4961C30.316 36.4721 30.2741 36.4452 30.2292 36.4212C29.3221 35.8913 28.2414 35.2836 26.9183 34.5412L26.8554 34.5053C26.8554 34.5053 26.8524 34.5053 26.8494 34.5023C26.4333 34.2298 26.0442 33.9664 25.6759 33.7029C24.9934 33.215 24.3947 32.739 23.8798 32.254C22.3171 30.7841 21.5179 29.2184 21.4939 26.9222C21.6945 25.0512 22.7542 23.4615 24.4785 22.4287C26.7955 21.0426 29.9179 20.9468 32.8336 22.1742L32.8755 22.2012L35.5787 24.6859L33.6479 17.6328L31.9086 18.501L31.8547 18.489C28.6396 17.7017 25.4365 18.1268 22.832 19.6835C20.2216 21.2432 18.5662 23.7908 18.2938 26.6738L18.2848 26.7576V26.8264C18.2848 30.1524 19.5451 32.4396 21.3143 34.2358C21.8501 34.7777 22.4309 35.2746 23.0356 35.7416C23.7122 36.2625 24.4216 36.7445 25.1311 37.2086L25.3407 37.3313C26.9153 38.2144 28.0978 38.879 29.0258 39.4299C29.0707 39.4568 29.1156 39.4838 29.1575 39.5107C29.2024 39.5376 29.2473 39.5646 29.2892 39.5915C30.6543 40.4178 31.4176 40.9926 32.0613 41.7111C32.1032 41.756 32.1451 41.8039 32.184 41.8518C32.2259 41.8997 32.2678 41.9506 32.3097 42.0015C32.6181 42.3787 32.9114 42.8008 33.2497 43.3187L33.124 43.3995L33.2557 43.3336C33.8933 44.7946 33.7886 46.4471 33.0042 47.5697C32.9114 47.7014 32.7228 47.9559 32.4474 48.2702C32.3456 48.387 32.2319 48.5097 32.1062 48.6385C32.1062 48.6385 31.6751 49.1654 30.9057 49.7282" fill="#87754E"/>
<path d="M31.8996 48.4353L33.2078 52.3511C34.4861 51.3901 35.3722 50.3094 35.8871 49.5729C37.4228 47.3815 37.6264 44.3968 36.4229 41.7833L36.2882 41.8462L36.4229 41.7803L36.3691 41.6666L36.3601 41.6456L36.3481 41.6277L36.2882 41.5408C35.2944 40.0111 34.5639 39.1399 33.6 38.3226C33.5671 38.2957 33.5311 38.2658 33.4982 38.2388L33.4773 38.2238L33.4473 38.1999C33.4174 38.1759 33.3875 38.149 33.3545 38.125C32.681 37.5862 31.8697 37.0443 30.6393 36.3169L30.5436 36.26L30.5076 36.239L30.4627 36.2121L30.3759 36.1612C29.4629 35.6253 28.3493 35.0026 27.062 34.2782L27.0081 34.2482C26.5771 33.9668 26.1999 33.7094 25.8466 33.4579C25.1461 32.9579 24.5684 32.4939 24.0804 32.0359C22.4998 30.551 21.8143 29.0242 21.7903 26.9376C21.9849 25.1743 22.9937 23.6655 24.6312 22.6866C25.8017 21.9861 27.2147 21.6178 28.7205 21.6178C30.0317 21.6178 31.4027 21.9022 32.6929 22.4411L35.3752 24.9079L36.1416 25.6114L35.8661 24.6085L33.9353 17.5554L33.8395 17.2021L33.5132 17.3668L31.8727 18.1871C30.819 17.9326 29.7562 17.8039 28.7115 17.8039C26.5411 17.8039 24.4546 18.3637 22.6794 19.4265C19.9882 21.0371 18.2788 23.6685 17.9945 26.6472L17.9855 26.7311V26.746V26.761V26.8299C17.9855 29.8265 19.0063 32.3203 21.1018 34.4458C21.6107 34.9607 22.1855 35.4637 22.856 35.9786C23.4518 36.4366 24.1044 36.8916 24.9725 37.4605H24.9785L24.9875 37.4694L25.197 37.5922C26.7357 38.4573 27.9511 39.1369 28.8791 39.6908L29.0108 39.7686L29.1426 39.8494C30.5046 40.6727 31.2351 41.2325 31.8488 41.9121C31.8877 41.957 31.9296 42.0019 31.9685 42.0468C32.0074 42.0947 32.0493 42.1426 32.0882 42.1905C32.3547 42.5168 32.6271 42.897 32.9953 43.4598C33.585 44.8159 33.4982 46.3637 32.7708 47.3995M32.3786 48.3605C32.654 48.0461 32.9294 47.6989 33.0222 47.5642C33.8066 46.4415 33.9682 44.5345 33.2737 43.3281C32.5972 42.1546 32.2439 41.8941 32.202 41.8462C32.1601 41.7983 32.1212 41.7504 32.0793 41.7055C31.4356 40.99 30.6693 40.4122 29.3072 39.586C29.2623 39.559 29.2204 39.5321 29.1755 39.5051C29.1306 39.4782 29.0887 39.4513 29.0438 39.4243C28.1187 38.8735 26.9333 38.2089 25.3587 37.3257L25.1491 37.203C24.4366 36.739 23.7302 36.254 23.0536 35.7361C22.4459 35.2691 21.8652 34.7721 21.3323 34.2303C19.5631 32.437 18.3028 30.1469 18.3028 26.8209V26.752L18.3088 26.6682C18.5842 23.7853 20.2396 21.2376 22.8471 19.6779C24.5953 18.6331 26.613 18.0973 28.7264 18.0973C29.7592 18.0973 30.813 18.226 31.8697 18.4834L31.9236 18.4954L33.6629 17.6273L35.5937 24.6804L32.8905 22.1956L32.8486 22.1687C31.4895 21.5969 30.0855 21.3125 28.7354 21.3125C27.1937 21.3125 25.7269 21.6837 24.4935 22.4231C22.7692 23.453 21.7095 25.0426 21.5089 26.9167C21.5329 29.2128 22.3322 30.7785 23.8948 32.2484C24.4097 32.7334 25.0084 33.2094 25.691 33.6974C26.0592 33.9578 26.4483 34.2243 26.8644 34.4967C26.8644 34.4967 26.8674 34.4967 26.8704 34.4997L26.9333 34.5356C28.2565 35.2781 29.3371 35.8858 30.2442 36.4157C30.2891 36.4426 30.331 36.4665 30.3729 36.4905C30.4148 36.5144 30.4597 36.5414 30.5016 36.5653C31.6332 37.2359 32.4804 37.7868 33.1809 38.3496C33.2198 38.3825 33.2617 38.4154 33.3006 38.4454C33.3396 38.4783 33.3815 38.5112 33.4204 38.5442C34.4262 39.3944 35.1058 40.2266 36.0158 41.6277L36.1116 41.7863L36.1655 41.9031C37.324 44.4178 37.1264 47.2857 35.6566 49.3963C35.1237 50.1627 33.8215 51.5458 32.3906 52.5846V48.3575L32.3786 48.3605Z" fill="#2B328C"/>
<path d="M33.7527 51.4496C33.0701 52.1501 32.3457 52.71 32.3457 52.71C32.3457 52.71 32.0643 48.7104 32.208 48.5128C32.4804 48.1386 32.7798 47.8871 32.7798 47.8871L33.136 47.4111L33.7527 51.4526V51.4496Z" fill="#87754E"/>
<path d="M32.8625 47.4201L32.5542 47.4209L32.5672 52.7467L32.8756 52.7459L32.8625 47.4201Z" fill="#2B328C"/>
<path d="M60.7996 47.9414C60.7996 47.9414 59.5783 49.0221 56.2075 50.8393C55.0729 51.453 55.2106 54.8928 55.7225 54.7311C56.2344 54.5694 61.0661 52.6415 61.8205 51.7554C62.3383 51.1447 60.7996 47.9444 60.7996 47.9444V47.9414Z" fill="#87754E"/>
<path d="M55.4591 51.0966L55.3693 50.8122C55.3962 50.8032 58.1383 49.9291 60.611 47.6748L60.8116 47.8963C58.291 50.1985 55.486 51.0906 55.4591 51.0996V51.0966Z" fill="#2B328C"/>
<path d="M56.2704 54.8568L56.1566 54.5814C56.1836 54.5694 58.9257 53.4318 61.8325 51.8242L61.9761 52.0877C59.0574 53.7013 56.2973 54.8478 56.2704 54.8598V54.8568Z" fill="#2B328C"/>
<path d="M44.0356 38.5771C42.6107 39.3016 40.9642 40.4123 39.6111 42.3941C39.2129 42.9749 38.0095 45.4387 37.7042 46.711C37.5695 47.2708 36.1415 52.3811 37.4827 51.3752C39.198 50.0909 43.2992 42.5947 44.799 41.7954L44.0356 38.5771Z" fill="#87754E"/>
<path d="M35.7733 51.3212L35.6385 51.0518C35.6625 51.0398 38.1981 49.7465 40.7007 46.0134C43.1405 42.3731 45.0264 41.7144 45.1073 41.6875L45.203 41.9719C45.1851 41.9779 43.3231 42.6395 40.9522 46.178C38.4016 49.983 35.881 51.2643 35.7733 51.3182V51.3212Z" fill="#2B328C"/>
<path d="M38.8508 43.5818L38.5844 43.4471C39.3747 41.8934 41.0151 39.705 44.332 38.0884C44.4009 38.0555 44.4488 38.0315 44.4667 38.0195L44.5446 38.1423L44.6972 38.0854C44.7481 38.2171 44.6523 38.265 44.4637 38.3548C41.2217 39.9325 39.6231 42.067 38.8508 43.5788V43.5818Z" fill="#2B328C"/>
<path d="M8.20243 27.9038C8.01084 27.832 7.83422 27.838 7.66658 27.9278C7.50193 28.0176 7.30435 28.2062 7.07385 28.5026C6.68468 29.0085 6.31647 29.3617 5.96921 29.5683C5.62196 29.7749 5.24776 29.8018 4.84662 29.6461C4.44249 29.4905 4.17306 29.1971 4.04434 28.766C3.91562 28.3349 3.94855 27.8619 4.14612 27.344C4.35567 26.7962 4.66102 26.407 5.06515 26.1795C5.46929 25.9519 5.89437 25.928 6.33742 26.1106L6.35539 26.1256L5.98718 27.0865C5.7417 26.9937 5.52317 26.9937 5.33158 27.0925C5.14298 27.1913 4.9963 27.3769 4.89152 27.6464C4.79872 27.8918 4.78375 28.1014 4.85261 28.281C4.92146 28.4606 5.0442 28.5834 5.22681 28.6552C5.39445 28.7181 5.55909 28.7001 5.72374 28.5954C5.88539 28.4906 6.09494 28.284 6.35239 27.9757C6.71462 27.4907 7.07385 27.1524 7.43008 26.9638C7.78632 26.7722 8.1695 26.7542 8.57363 26.9099C8.99573 27.0716 9.26814 27.365 9.38489 27.7871C9.50464 28.2122 9.45973 28.6942 9.25018 29.239C9.04662 29.7719 8.74127 30.176 8.32816 30.4574C7.91804 30.7388 7.45104 30.7718 6.93015 30.5592L6.91219 30.5443L7.2804 29.5833C7.57377 29.694 7.81925 29.6911 8.02281 29.5713C8.22638 29.4516 8.38504 29.245 8.4958 28.9516C8.59758 28.6882 8.61854 28.4636 8.56166 28.281C8.50478 28.0984 8.38204 27.9727 8.19644 27.9008L8.20243 27.9038Z" fill="#87754E"/>
<path d="M8.2713 20.9342L7.53788 22.2574L11.4535 24.4249L10.9386 25.3529L7.02298 23.1855L6.30153 24.4907L5.58606 24.0956L7.55584 20.5391L8.2713 20.9342Z" fill="#87754E"/>
<path d="M13.3843 18.2854L14.8332 19.5458L14.1357 20.3481L10.1422 16.8754L11.4714 15.3486C11.8695 14.8906 12.3006 14.6301 12.7646 14.5703C13.2286 14.5104 13.6507 14.6481 14.0339 14.9804C14.417 15.3127 14.6086 15.7109 14.6116 16.1779C14.6146 16.6419 14.417 17.1059 14.0189 17.5639L13.3873 18.2914L13.3843 18.2854ZM12.7676 17.7496L13.3992 17.0221C13.5938 16.7976 13.6806 16.576 13.6567 16.3545C13.6327 16.133 13.5309 15.9414 13.3424 15.7767C13.1508 15.6091 12.9412 15.5282 12.7167 15.5342C12.4922 15.5402 12.2826 15.654 12.085 15.8785L11.4534 16.606L12.7646 17.7466L12.7676 17.7496Z" fill="#87754E"/>
<path d="M18.4555 14.2769L17.1712 15.4145L17.6622 16.5042L16.833 17.2407L14.6566 12.0945L15.4709 11.373L20.3115 14.1542L19.4823 14.8906L18.4555 14.2739V14.2769ZM16.815 14.6182L17.7101 13.8249L16.0337 12.816L16.0187 12.831L16.815 14.6182Z" fill="#87754E"/>
<path d="M21.3892 8.03797L20.1349 8.88219L22.6345 12.5944L21.7544 13.1871L19.2548 9.47494L18.0184 10.3072L17.5604 9.62762L20.9312 7.3584L21.3892 8.03797Z" fill="#87754E"/>
<path d="M24.8048 8.89066L25.7269 10.7946L24.7719 11.2557L22.4698 6.48972L24.1193 5.6934C24.6641 5.42995 25.1491 5.34912 25.5742 5.44792C25.9993 5.54671 26.3196 5.81913 26.5351 6.2622C26.6519 6.50768 26.6908 6.75017 26.6459 6.98967C26.601 7.22916 26.4812 7.46566 26.2867 7.69318C26.607 7.6393 26.8764 7.68121 27.0949 7.81593C27.3135 7.95064 27.4901 8.1602 27.6278 8.44759L27.7984 8.79786C27.8613 8.92958 27.9481 9.0613 28.0529 9.19003C28.1577 9.31876 28.2714 9.39659 28.3941 9.42354L28.4271 9.49239L27.4422 9.96839C27.3224 9.94145 27.2087 9.85163 27.1069 9.70195C27.0051 9.55227 26.9153 9.40258 26.8435 9.2529L26.6818 8.91461C26.5681 8.67811 26.4124 8.52244 26.2178 8.45358C26.0232 8.38473 25.8077 8.40868 25.5712 8.52244L24.8108 8.89066H24.8048ZM24.4486 8.15421L25.1252 7.8279C25.3946 7.69917 25.5652 7.5435 25.643 7.36687C25.7179 7.19024 25.7029 6.98967 25.5951 6.76813C25.4904 6.54959 25.3407 6.40889 25.1461 6.34303C24.9515 6.27717 24.727 6.30711 24.4726 6.42985L23.778 6.76514L24.4486 8.15421Z" fill="#87754E"/>
<path d="M30.5795 8.76502L29.5766 9.11529L27.8284 4.11882L28.8312 3.76855L30.5795 8.76502Z" fill="#87754E"/>
<path d="M35.4949 5.6903L35.5069 5.71125C35.6416 6.2591 35.5697 6.72911 35.2973 7.11829C35.0219 7.50747 34.5818 7.77091 33.9741 7.90862C33.3545 8.04933 32.8096 7.96251 32.3396 7.65116C31.8697 7.33982 31.5613 6.86682 31.4206 6.23515L31.1901 5.21131C31.0494 4.58263 31.1183 4.02581 31.3967 3.54083C31.6781 3.05585 32.1181 2.74451 32.7228 2.60979C33.3515 2.46609 33.8784 2.511 34.3034 2.73852C34.7285 2.96604 34.998 3.35821 35.1147 3.91803V3.94198L34.1059 4.1695C34.031 3.8372 33.8963 3.60968 33.6987 3.48395C33.5012 3.35821 33.2377 3.33426 32.9054 3.40911C32.5971 3.47796 32.3816 3.65758 32.2648 3.94797C32.1481 4.23536 32.1331 4.57964 32.2229 4.97181L32.4564 6.00464C32.5462 6.4028 32.7109 6.70516 32.9503 6.91472C33.1898 7.12428 33.4742 7.19014 33.8005 7.11829C34.1089 7.04943 34.3244 6.91472 34.4382 6.72013C34.5549 6.52254 34.5729 6.2591 34.498 5.92081L35.5009 5.69329L35.4949 5.6903Z" fill="#87754E"/>
<path d="M38.3358 4.93024L37.9467 4.96018L38.1083 7.16354L37.0486 7.24137L36.6594 1.9605L37.7192 1.88267L37.8778 4.04112L38.1742 4.02016L39.4614 1.75693L40.7696 1.66113L39.1231 4.25068L41.2995 6.93003L39.9494 7.02882L38.3298 4.93024H38.3358Z" fill="#87754E"/>
<path d="M43.383 2.69652L42.9759 3.72036L42.452 3.7024L42.5239 1.72656L43.419 1.75949L43.386 2.69951L43.383 2.69652Z" fill="#87754E"/>
<path d="M47.6638 6.1369C47.6937 5.93632 47.6458 5.76269 47.5231 5.62199C47.4004 5.47829 47.1699 5.3286 46.8346 5.16994C46.2568 4.90051 45.8287 4.6191 45.5503 4.32572C45.2719 4.03234 45.1642 3.67309 45.227 3.24799C45.2899 2.81989 45.5174 2.49358 45.9096 2.27205C46.3017 2.05051 46.7717 1.97866 47.3195 2.05949C47.9003 2.14332 48.3463 2.35886 48.6577 2.70314C48.969 3.04741 49.0828 3.45455 49.0019 3.92756L48.993 3.94851L47.9751 3.80182C48.0141 3.54137 47.9632 3.32882 47.8255 3.16417C47.6878 2.99951 47.4752 2.89773 47.1908 2.85582C46.9304 2.8169 46.7238 2.85282 46.5622 2.95461C46.4035 3.05939 46.3077 3.20907 46.2808 3.40366C46.2538 3.58029 46.3107 3.73895 46.4484 3.87367C46.5861 4.01138 46.8316 4.17005 47.1908 4.34967C47.7416 4.59515 48.1518 4.87356 48.4152 5.17892C48.6786 5.48428 48.7804 5.8525 48.7175 6.28359C48.6517 6.73264 48.4272 7.06195 48.038 7.26852C47.6488 7.47807 47.1699 7.53795 46.5921 7.45412C46.0293 7.37329 45.5653 7.16074 45.2001 6.82246C44.8379 6.48417 44.7002 6.03511 44.793 5.48128L44.8019 5.46033L45.8198 5.60702C45.7749 5.91537 45.8317 6.15786 45.9934 6.33149C46.155 6.50512 46.3915 6.6129 46.7029 6.6578C46.9843 6.69971 47.2058 6.66978 47.3704 6.57398C47.5351 6.47818 47.6309 6.33149 47.6608 6.13391L47.6638 6.1369Z" fill="#87754E"/>
<path d="M56.2943 8.3189V8.34285C56.1027 8.87573 55.7854 9.22898 55.3424 9.40262C54.8993 9.57625 54.3844 9.5553 53.8007 9.33376C53.2079 9.10924 52.7978 8.73802 52.5763 8.21712C52.3548 7.69621 52.3578 7.1334 52.5883 6.52867L52.9595 5.54674C53.187 4.94202 53.5522 4.51691 54.0521 4.26544C54.5521 4.01397 55.0939 3.99901 55.6717 4.21755C56.2764 4.44507 56.6925 4.77138 56.92 5.19349C57.1505 5.6156 57.1595 6.09459 56.9469 6.62747L56.932 6.64543L55.965 6.2802C56.0848 5.96287 56.0967 5.69643 56.0039 5.48388C55.9081 5.27132 55.7016 5.10368 55.3813 4.98393C55.0849 4.87316 54.8065 4.9031 54.5491 5.07973C54.2916 5.25636 54.091 5.53477 53.9503 5.91197L53.5761 6.90289C53.4325 7.28308 53.4025 7.62736 53.4893 7.93571C53.5732 8.24107 53.7737 8.45362 54.088 8.57337C54.3844 8.68413 54.6359 8.69012 54.8424 8.59133C55.046 8.49254 55.2106 8.27998 55.3304 7.95667L56.2943 8.3189Z" fill="#87754E"/>
<path d="M61.5331 10.6785C61.2127 11.2473 60.7697 11.6126 60.2039 11.7802C59.6381 11.9479 59.0723 11.867 58.5006 11.5437C57.9318 11.2204 57.5725 10.7743 57.4289 10.2055C57.2822 9.63673 57.372 9.06793 57.6893 8.50213L58.1593 7.67287C58.4766 7.11006 58.9197 6.74183 59.4825 6.57419C60.0452 6.40355 60.611 6.47839 61.1768 6.80171C61.7486 7.12503 62.1078 7.57408 62.2575 8.14588C62.4072 8.71767 62.3204 9.28647 62.0031 9.84929L61.5331 10.6785ZM61.084 9.3224C61.2876 8.96315 61.3654 8.61888 61.3145 8.28658C61.2666 7.95428 61.084 7.69982 60.7667 7.52019C60.4554 7.34357 60.147 7.31962 59.8417 7.45134C59.5363 7.58306 59.2849 7.82854 59.0813 8.18779L58.6083 9.02303C58.4018 9.38826 58.3209 9.73553 58.3659 10.0648C58.4108 10.3941 58.5904 10.6486 58.9047 10.8252C59.222 11.0049 59.5333 11.0288 59.8417 10.9001C60.15 10.7713 60.4045 10.5229 60.611 10.1576L61.084 9.3224Z" fill="#87754E"/>
<path d="M62.8234 13.3092L64.6944 14.7641L64.1944 15.4078L61.4852 13.3032L64.7333 9.12402L65.5715 9.77665L62.8234 13.3152V13.3092Z" fill="#87754E"/>
<path d="M66.3648 16.3628L68.0292 18.0482L67.4485 18.62L65.0356 16.1771L68.8016 12.459L69.547 13.2134L66.3588 16.3598L66.3648 16.3628Z" fill="#87754E"/>
<path d="M71.864 20.5069L70.6785 18.9412L69.4721 19.8542L70.8791 21.7163L70.2295 22.2073L68.1819 19.498L72.4028 16.3037L74.4475 19.007L73.7949 19.501L72.3909 17.6449L71.3311 18.4472L72.5166 20.0129L71.864 20.5069Z" fill="#87754E"/>
<path d="M73.4745 26.3804C73.2051 26.3415 72.9237 26.2157 72.6273 26.0062C72.331 25.7966 72.0556 25.4643 71.8071 25.0123C71.4988 24.4524 71.4209 23.8956 71.5766 23.3448C71.7323 22.7939 72.0915 22.3628 72.6543 22.0515L73.6212 21.5186C74.181 21.2103 74.7348 21.1294 75.2767 21.2821C75.8215 21.4318 76.2436 21.7791 76.543 22.3239C76.8543 22.8897 76.9621 23.3987 76.8603 23.8477C76.7585 24.2968 76.4801 24.641 76.0281 24.8775H76.0041L75.5221 24.0064C75.7676 23.8717 75.9203 23.695 75.9802 23.4765C76.037 23.2579 75.9921 23.0155 75.8425 22.743C75.6868 22.4586 75.4503 22.291 75.133 22.2371C74.8186 22.1832 74.4864 22.2521 74.1421 22.4437L73.1692 22.9825C72.8189 23.1771 72.5824 23.4226 72.4597 23.722C72.337 24.0213 72.3579 24.3207 72.5226 24.6201C72.6453 24.8416 72.7621 25.0033 72.8788 25.1081C72.9956 25.2128 73.1063 25.2787 73.2111 25.3116L74.1092 24.8147L73.6182 23.9226L74.2618 23.5663L75.2677 25.3895L73.4775 26.3774L73.4745 26.3804Z" fill="#87754E"/>
<path d="M76.6058 29.951L75.9142 28.1129L74.4983 28.6458L75.3215 30.8312L74.5582 31.1186L73.3607 27.9423L78.3151 26.0742L79.5095 29.2445L78.7432 29.5319L77.9229 27.3555L76.6776 27.8255L77.3691 29.6637L76.6028 29.951H76.6058Z" fill="#87754E"/>
<path d="M6.21769 54.3802C5.58604 54.5658 5.00529 54.5209 4.47842 54.2425C3.95155 53.9671 3.59531 53.5091 3.40971 52.8714C3.22411 52.2367 3.27799 51.6619 3.57436 51.147C3.87072 50.6321 4.33173 50.2819 4.96338 50.0962L5.8854 49.8268C6.51406 49.6442 7.09182 49.6861 7.61869 49.9585C8.14556 50.231 8.50179 50.683 8.6874 51.3147C8.873 51.9523 8.81911 52.5301 8.52574 53.051C8.22938 53.5719 7.76837 53.9252 7.14271 54.1078L6.22068 54.3772L6.21769 54.3802ZM6.84634 53.084C7.24449 52.9672 7.54385 52.7696 7.74142 52.4972C7.939 52.2218 7.9869 51.9074 7.88212 51.5572C7.78034 51.2099 7.57378 50.9764 7.25946 50.8566C6.94513 50.7369 6.5889 50.7369 6.19075 50.8566L5.25974 51.1291C4.85262 51.2488 4.55026 51.4434 4.35269 51.7128C4.15511 51.9823 4.10422 52.2936 4.209 52.6439C4.31377 52.9971 4.52033 53.2336 4.83466 53.3564C5.14898 53.4791 5.50821 53.4791 5.91534 53.3624L6.84634 53.0899V53.084Z" fill="#87754E"/>
<path d="M6.02305 57.407L7.02291 59.5834L6.27451 59.9276L4.82861 56.7753L9.69019 54.542L10.1392 55.5179L6.02605 57.407H6.02305Z" fill="#87754E"/>
<path d="M7.11572 61.4809L11.6121 58.583L12.6239 60.1517C12.9772 60.7025 13.0939 61.2683 12.9742 61.8491C12.8544 62.4299 12.5161 62.8999 11.9683 63.2532L11.2229 63.7322C10.6721 64.0884 10.1063 64.1992 9.52855 64.0674C8.95079 63.9357 8.48379 63.5944 8.13055 63.0466L7.11872 61.4779L7.11572 61.4809ZM11.4983 59.9332L8.388 61.9359L8.81907 62.6035C9.01066 62.8999 9.2741 63.0676 9.61237 63.1065C9.95065 63.1454 10.2919 63.0526 10.6392 62.8311L11.3906 62.3461C11.7348 62.1245 11.9593 61.8521 12.0611 61.5288C12.1659 61.2055 12.121 60.8971 11.9294 60.6008L11.4983 59.9332Z" fill="#87754E"/>
<path d="M12.2827 68.5313L16.0516 64.7354L17.294 65.9688C17.74 66.4118 18.0035 66.8459 18.0783 67.268C18.1561 67.6901 18.0214 68.0733 17.6801 68.4176C17.5065 68.5912 17.3089 68.702 17.0814 68.7499C16.8539 68.7978 16.6204 68.7708 16.3779 68.6661C16.5725 68.9445 16.6474 69.2229 16.6084 69.5043C16.5665 69.7857 16.4408 70.0342 16.2253 70.2497C15.863 70.612 15.4709 70.7676 15.0458 70.7167C14.6207 70.6659 14.1866 70.4204 13.7496 69.9863L12.2827 68.5284V68.5313ZM14.7105 67.6093L13.6238 68.705L14.3303 69.4055C14.5309 69.6061 14.7285 69.7139 14.9231 69.7318C15.1176 69.7498 15.2973 69.6719 15.4679 69.5013C15.6505 69.3157 15.7403 69.1241 15.7343 68.9205C15.7283 68.717 15.6206 68.5134 15.411 68.3038L14.7135 67.6093H14.7105ZM15.2344 67.0824L15.7433 67.5883C15.9469 67.7889 16.1444 67.9027 16.336 67.9296C16.5276 67.9536 16.7042 67.8877 16.8629 67.729C17.0365 67.5524 17.1114 67.3698 17.0844 67.1752C17.0575 66.9806 16.9347 66.777 16.7162 66.5585L16.2342 66.0795L15.2374 67.0824H15.2344Z" fill="#87754E"/>
<path d="M21.3473 73.3513C20.9581 73.8842 20.4731 74.2015 19.8864 74.3033C19.2997 74.4051 18.7399 74.2614 18.204 73.8692C17.6711 73.48 17.3628 72.9921 17.282 72.4023C17.2012 71.8126 17.3568 71.2557 17.743 70.7229L18.3088 69.9445C18.6949 69.4146 19.1799 69.1003 19.7637 68.9925C20.3474 68.8877 20.9072 69.0284 21.4401 69.4176C21.9759 69.8098 22.2872 70.3007 22.3681 70.8935C22.4489 71.4862 22.2992 72.0461 21.916 72.5759L21.3503 73.3543L21.3473 73.3513ZM21.0539 71.9383C21.2994 71.603 21.4161 71.2647 21.4041 70.9264C21.3922 70.5881 21.2395 70.3097 20.9431 70.0942C20.6498 69.8816 20.3444 69.8217 20.0241 69.9175C19.7038 70.0133 19.4194 70.2319 19.1769 70.5672L18.6051 71.3515C18.3567 71.6928 18.2339 72.0341 18.2399 72.3694C18.2459 72.7047 18.3986 72.9801 18.692 73.1956C18.9883 73.4112 19.2997 73.4741 19.623 73.3783C19.9463 73.2825 20.2337 73.0669 20.4821 72.7226L21.0539 71.9383Z" fill="#87754E"/>
<path d="M24.5833 74.357L24.6042 74.366L26.7806 72.7224L27.8223 73.2673L24.5923 75.4916L23.7211 77.1591L22.7692 76.6621L23.6672 74.9468L23.6493 71.0879L24.691 71.6327L24.5833 74.357Z" fill="#87754E"/>
<path d="M29.8641 78.195C29.9329 78.0004 29.9179 77.8208 29.8251 77.6561C29.7323 77.4915 29.5318 77.2969 29.2294 77.0724C28.7085 76.6922 28.3403 76.3299 28.1218 75.9886C27.9033 75.6444 27.8673 75.2672 28.011 74.857C28.1547 74.4439 28.4451 74.1655 28.8762 74.0218C29.3072 73.8781 29.7862 73.8991 30.3131 74.0847C30.8729 74.2792 31.274 74.5786 31.5165 74.9798C31.759 75.3809 31.7949 75.809 31.6213 76.2611L31.6063 76.279L30.6244 75.9348C30.7112 75.6833 30.7053 75.4618 30.6005 75.2732C30.4957 75.0846 30.3041 74.9409 30.0317 74.8451C29.7832 74.7582 29.5677 74.7493 29.3881 74.8211C29.2085 74.893 29.0887 75.0247 29.0229 75.2103C28.963 75.3809 28.9869 75.5486 29.0977 75.7102C29.2085 75.8719 29.421 76.0785 29.7413 76.3269C30.2412 76.6772 30.5915 77.0305 30.7951 77.3867C30.9986 77.7429 31.0256 78.1261 30.8819 78.5393C30.7292 78.9704 30.4418 79.2518 30.0167 79.3835C29.5916 79.5152 29.1007 79.4823 28.5469 79.2877C28.005 79.0961 27.5859 78.7997 27.2896 78.3926C26.9962 77.9854 26.9483 77.5154 27.1459 76.9825L27.1608 76.9646L28.1427 77.3089C28.038 77.6082 28.0499 77.8567 28.1757 78.0603C28.3014 78.2639 28.5139 78.4165 28.8163 78.5213C29.0857 78.6171 29.3132 78.6321 29.4958 78.5692C29.6785 78.5063 29.8012 78.3806 29.867 78.189L29.8641 78.195Z" fill="#87754E"/>
<path d="M34.073 76.2156L33.4713 77.1496L32.9564 77.0299L33.4085 75.084L34.2886 75.2876L34.073 76.2156Z" fill="#87754E"/>
<path d="M40.554 80.2669L38.8237 80.18L38.4046 81.3146L37.285 81.2578L39.3566 76.0068L40.4522 76.0637L41.973 81.4973L40.8534 81.4404L40.548 80.2699L40.554 80.2669ZM39.1291 79.3508L40.3355 79.4137L39.8416 77.5007H39.8206L39.1291 79.3508Z" fill="#87754E"/>
<path d="M46.1851 79.7784C46.1671 79.5748 46.0803 79.4161 45.9246 79.3054C45.7719 79.1946 45.5085 79.0988 45.1403 79.024C44.5086 78.8952 44.0237 78.7186 43.6794 78.4971C43.3382 78.2755 43.1466 77.9462 43.1076 77.5121C43.0687 77.0751 43.2124 76.7038 43.5477 76.3925C43.88 76.0812 44.326 75.9015 44.8799 75.8506C45.4696 75.7968 45.9575 75.9015 46.3467 76.165C46.7329 76.4284 46.9424 76.8026 46.9754 77.2876L46.9694 77.3116L45.9336 77.4074C45.9096 77.1409 45.8109 76.9433 45.6342 76.8176C45.4576 76.6919 45.2271 76.638 44.9367 76.6649C44.6733 76.6889 44.4757 76.7727 44.344 76.9104C44.2123 77.0511 44.1554 77.2188 44.1734 77.4163C44.1913 77.596 44.2811 77.7367 44.4488 77.8385C44.6164 77.9402 44.8948 78.039 45.29 78.1318C45.8917 78.2426 46.3557 78.4192 46.688 78.6587C47.0203 78.8982 47.2059 79.2365 47.2448 79.6706C47.2867 80.1256 47.143 80.5028 46.8107 80.7992C46.4784 81.0956 46.0204 81.2692 45.4367 81.3231C44.8649 81.377 44.359 81.2782 43.9219 81.0327C43.4848 80.7872 43.2454 80.3771 43.2064 79.8113L43.2124 79.7873L44.2482 79.6915C44.2781 80.0059 44.3919 80.2304 44.5895 80.3621C44.79 80.4939 45.0475 80.5448 45.3648 80.5148C45.6492 80.4879 45.8617 80.41 46.0024 80.2753C46.1401 80.1436 46.203 79.9759 46.1821 79.7754L46.1851 79.7784Z" fill="#87754E"/>
<path d="M51.5944 78.7423C51.5465 78.5418 51.4387 78.3981 51.2711 78.3112C51.1034 78.2244 50.831 78.1676 50.4538 78.1436C49.8102 78.1077 49.3043 78.0029 48.9331 77.8323C48.5619 77.6616 48.3284 77.3652 48.2266 76.9401C48.1248 76.515 48.2146 76.1229 48.502 75.7696C48.7894 75.4164 49.1995 75.1739 49.7443 75.0421C50.3191 74.9044 50.819 74.9374 51.2411 75.1439C51.6632 75.3505 51.9237 75.6918 52.0255 76.1648V76.1887L51.0136 76.4312C50.9508 76.1708 50.825 75.9911 50.6334 75.8894C50.4418 75.7876 50.2054 75.7696 49.921 75.8385C49.6635 75.9013 49.4809 76.0091 49.3701 76.1678C49.2594 76.3264 49.2265 76.5001 49.2744 76.6947C49.3163 76.8713 49.427 76.997 49.6066 77.0749C49.7863 77.1527 50.0766 77.2066 50.4808 77.2455C51.0915 77.2694 51.5764 77.3772 51.9416 77.5658C52.3039 77.7544 52.5374 78.0628 52.6391 78.4879C52.7469 78.9339 52.6571 79.3261 52.3697 79.6674C52.0823 80.0087 51.6543 80.2482 51.0825 80.3829C50.5227 80.5176 50.0078 80.4936 49.5408 80.311C49.0738 80.1284 48.7774 79.7602 48.6577 79.2034V79.1794L49.6695 78.9369C49.7443 79.2453 49.888 79.4489 50.1036 79.5506C50.3191 79.6524 50.5825 79.6674 50.8909 79.5925C51.1693 79.5267 51.3669 79.4159 51.4866 79.2632C51.6064 79.1106 51.6393 78.9369 51.5944 78.7423Z" fill="#87754E"/>
<path d="M57.9288 75.6147C58.1773 76.2254 58.1922 76.8062 57.9707 77.357C57.7492 77.9078 57.3301 78.312 56.7164 78.5605C56.1057 78.8089 55.5279 78.8149 54.9831 78.5724C54.4383 78.3299 54.0461 77.9078 53.7976 77.3001L53.4324 76.408C53.184 75.8033 53.169 75.2225 53.3875 74.6717C53.6061 74.1178 54.0192 73.7167 54.6269 73.4682C55.2405 73.2167 55.8213 73.2107 56.3691 73.4532C56.917 73.6957 57.3151 74.1178 57.5606 74.7226L57.9258 75.6147H57.9288ZM56.5727 75.1207C56.414 74.7345 56.1895 74.4591 55.8961 74.2885C55.6028 74.1208 55.2855 74.1058 54.9442 74.2436C54.6089 74.3813 54.3964 74.6118 54.3125 74.9351C54.2257 75.2584 54.2616 75.6117 54.4203 75.9979L54.7855 76.896C54.9472 77.2881 55.1717 77.5695 55.4591 77.7402C55.7495 77.9108 56.0608 77.9258 56.3991 77.7881C56.7403 77.6504 56.9529 77.4169 57.0427 77.0935C57.1325 76.7702 57.0966 76.411 56.9379 76.0188L56.5727 75.1207Z" fill="#87754E"/>
<path d="M63.0149 73.1655L63.0329 73.1805C63.3352 73.6655 63.416 74.1385 63.2753 74.5995C63.1346 75.0605 62.7964 75.4527 62.2575 75.776C61.7067 76.1053 61.1559 76.1951 60.6081 76.0455C60.0572 75.8958 59.6142 75.5395 59.2789 74.9797L58.7311 74.0696C58.3958 73.5098 58.285 72.956 58.4018 72.4021C58.5185 71.8483 58.8419 71.4112 59.3777 71.0879C59.9375 70.7526 60.4554 70.6269 60.9344 70.7107C61.4133 70.7945 61.7965 71.0879 62.0869 71.5878L62.0929 71.6118L61.1978 72.1477C61.0212 71.8543 60.8176 71.6777 60.5901 71.6178C60.3626 71.5579 60.0992 71.6178 59.8028 71.7974C59.5274 71.9621 59.3807 72.2016 59.3597 72.5159C59.3388 72.8302 59.4346 73.1625 59.6441 73.5128L60.195 74.4289C60.4075 74.7821 60.662 75.0216 60.9583 75.1443C61.2547 75.2701 61.5481 75.2431 61.8384 75.0695C62.1138 74.9049 62.2755 74.7103 62.3234 74.4827C62.3713 74.2582 62.3084 73.9948 62.1288 73.6984L63.0209 73.1625L63.0149 73.1655Z" fill="#87754E"/>
<path d="M66.224 72.9443L65.3708 73.597L62.1228 69.3489L62.976 68.6963L66.224 72.9443Z" fill="#87754E"/>
<path d="M69.074 68.8755L67.8257 70.0759L68.3645 71.1567L67.5563 71.932L65.1494 66.8278L65.9397 66.0674L70.942 68.6779L70.1337 69.4532L69.071 68.8755H69.074ZM67.4305 69.2856L68.3017 68.4474L66.5684 67.4984L66.5534 67.5133L67.4305 69.2856Z" fill="#87754E"/>
<path d="M70.5199 62.0169L69.5649 63.2113L73.0973 66.0344L72.4268 66.8726L68.8943 64.0496L67.9544 65.2261L67.3077 64.7112L69.8702 61.502L70.5169 62.0169H70.5199Z" fill="#87754E"/>
<path d="M75.4981 62.5831L74.9204 63.4872L70.415 60.6072L70.9928 59.7031L75.4981 62.5831Z" fill="#87754E"/>
<path d="M76.4861 55.9998C77.0788 56.2872 77.477 56.7093 77.6805 57.2692C77.8841 57.829 77.8422 58.4068 77.5518 59.0025C77.2644 59.5982 76.8363 59.9874 76.2705 60.17C75.7048 60.3527 75.127 60.3018 74.5373 60.0174L73.6721 59.5983C73.0824 59.3139 72.6842 58.8917 72.4777 58.3349C72.2711 57.7781 72.31 57.2033 72.5974 56.6105C72.8878 56.0148 73.3159 55.6226 73.8847 55.434C74.4534 55.2454 75.0312 55.2963 75.6209 55.5807L76.4861 55.9998ZM75.145 56.5387C74.7708 56.3561 74.4175 56.3022 74.0852 56.374C73.7529 56.4459 73.5075 56.6465 73.3488 56.9758C73.1901 57.3021 73.1872 57.6134 73.3398 57.9128C73.4925 58.2122 73.7559 58.4517 74.1301 58.6313L75.0043 59.0534C75.3844 59.239 75.7407 59.2959 76.07 59.23C76.3993 59.1642 76.6417 58.9666 76.8004 58.6373C76.9621 58.308 76.9651 57.9906 76.8154 57.6883C76.6657 57.3859 76.3993 57.1434 76.0161 56.9578L75.142 56.5357L75.145 56.5387Z" fill="#87754E"/>
<path d="M80.4047 50.9703L80.0994 51.9971L76.0251 53.0299V53.0509L79.4737 54.0807L79.1683 55.1076L74.0433 53.5778L74.3487 52.5509L78.417 51.5151V51.4942L74.9713 50.4643L75.2797 49.4375L80.4047 50.9673V50.9703Z" fill="#87754E"/>
</g>
<defs>
<clipPath id="clip0_10323_2928">
<rect width="83.1617" height="83.1617" fill="white"/>
</clipPath>
</defs>
</svg>
