<svg width="91" height="80" viewBox="0 0 91 80" fill="none" xmlns="http://www.w3.org/2000/svg">
<path d="M0.00212321 53.6582V53.5938C-0.00265401 53.6344 0.00212321 53.6582 0.00212321 53.6582Z" fill="url(#paint0_linear_10323_2926)"/>
<path d="M4.44017 19.5982L5.28813 19.025L6.13847 19.5982L5.83989 18.638L6.66397 18.0313L5.6297 18.0098L5.28813 17.0615L4.94655 18.0098L3.91467 18.0313L4.73636 18.638L4.44017 19.5982Z" fill="white"/>
<path d="M1.8533 24.5184L1.84613 30.3061V30.4064L1.84135 30.5401L1.67176 31.154L2.30952 30.6739L2.50539 30.5258L2.75142 30.3419L2.50539 30.2463V29.1428C2.503 29.0544 2.55794 28.9756 2.63915 28.9398C3.10732 28.7439 3.48233 28.5218 3.77374 28.2638L3.85973 28.5886L4.14636 28.4907C4.34701 28.5815 4.56437 28.6149 5.17347 28.5982C5.3765 28.5934 5.55803 28.5552 5.72524 28.4979C6.06442 29.2264 6.62336 29.525 6.92432 29.6372C7.63135 29.9 8.45781 29.7567 8.90926 29.31H8.91404V29.3052C8.91404 29.2622 8.90448 29.2813 8.91404 29.2264V29.1476L8.92837 28.3498L8.88298 28.4286L8.78266 28.5743L8.6489 28.7105L8.51275 28.8156L8.46975 28.8562C8.44826 28.8824 8.45542 28.8562 8.42676 28.8824C8.40765 28.8992 8.38854 28.9135 8.36465 28.9302C8.08996 29.1213 7.60985 29.2073 7.14646 29.0353C6.8861 28.9398 6.51826 28.7152 6.28895 28.1969C6.55647 27.9987 6.72846 27.7789 6.80011 27.6738C7.0748 27.2821 7.11063 26.7446 6.89566 26.2765L6.8861 26.255V26.2502L6.87416 26.2359C6.69979 25.9659 6.56125 25.7964 6.363 25.6339C6.54692 25.2613 6.81206 25.0081 7.14407 24.9102C7.52864 24.7979 7.93709 24.915 8.25 25.2088L8.41243 25.3951L8.42437 25.4094L8.46975 25.4548L8.54141 25.5312L8.65129 25.6172L8.81133 25.7271V24.6833L8.72534 24.743L8.67279 24.7358C8.19745 24.3011 7.55491 24.1243 6.96254 24.2987C6.47526 24.442 6.08831 24.7836 5.82556 25.278C5.65358 25.1777 5.45055 25.0631 5.19735 24.9197L5.18541 24.9126C4.55004 24.497 4.22519 24.1697 4.22041 23.5511C4.25624 23.2214 4.44494 22.9396 4.75307 22.7533C5.15914 22.512 5.70135 22.4881 6.2149 22.6912C6.24118 22.7007 6.26506 22.7174 6.28656 22.7365L6.81922 23.2262L6.50393 22.0701C6.4681 21.9364 6.31761 21.8695 6.19579 21.9316L6.16235 21.9483C6.11936 21.9698 6.0692 21.9746 6.02143 21.965C5.45532 21.8432 4.89161 21.9244 4.42583 22.2039C3.94094 22.4929 3.6352 22.9659 3.58265 23.5009V23.5152V23.5296C3.58265 24.5399 4.20608 25.032 4.84623 25.45L4.85339 25.4548L4.86295 25.4596L4.87728 25.4667L4.88445 25.4715C5.04687 25.5623 5.18302 25.6387 5.30484 25.708C5.32873 25.7223 5.355 25.7366 5.3765 25.7486C5.39083 25.7558 5.40278 25.7629 5.41472 25.7725C5.44577 25.7892 5.47682 25.8083 5.50549 25.825C5.51504 25.8322 5.52459 25.837 5.53415 25.8417C5.55326 25.8537 5.56998 25.8632 5.5867 25.8728C5.50071 26.1833 5.44816 26.5297 5.4386 26.9047C5.42905 27.2749 5.4601 27.595 5.51982 27.8744C5.40755 27.9127 5.28812 27.9413 5.15436 27.9461C4.61214 27.9604 4.35179 27.9007 4.1607 27.8171C4.39478 27.4851 4.53332 27.1005 4.58826 26.6491V26.6324V26.6157C4.59542 25.9755 4.30401 25.3115 3.79046 24.7908C3.31035 24.3059 2.70364 24.0168 2.1662 24.0168H2.00617L1.36841 23.9762L1.77447 24.3393C1.81986 24.3799 1.84613 24.4396 1.84613 24.5017L1.8533 24.5184ZM6.08114 26.9381C6.08592 26.7184 6.11219 26.5177 6.14802 26.3266C6.15519 26.3362 6.16235 26.3433 6.16952 26.3529C6.1743 26.3577 6.17907 26.3648 6.18146 26.3696C6.19341 26.3863 6.20535 26.4007 6.21729 26.4174C6.21968 26.4222 6.22207 26.4246 6.22446 26.4293C6.25073 26.4676 6.2794 26.5058 6.30806 26.5512C6.31761 26.5655 6.32478 26.5798 6.33195 26.5942C6.43227 26.8426 6.41316 27.122 6.27701 27.3155C6.25312 27.349 6.19341 27.4254 6.10742 27.5138C6.08592 27.3394 6.07398 27.1507 6.08114 26.9381ZM2.81591 24.8576C2.99983 24.958 3.18137 25.0917 3.34379 25.2565C3.72836 25.6435 3.94811 26.126 3.95766 26.5822C3.95766 26.5989 3.95766 26.6133 3.95528 26.63C3.90989 26.9548 3.80718 27.2271 3.63759 27.466L3.54205 27.3919L3.58265 27.5424C3.34857 27.841 2.99983 28.087 2.503 28.3068L2.49583 25.0511C2.49583 24.8863 2.67259 24.7788 2.8183 24.8552L2.81591 24.8576Z" fill="white"/>
<path d="M5.43143 30.7456C5.34544 30.6787 5.22601 30.6811 5.14002 30.7456L0.998169 33.9511V34.5172L1.7888 33.9057V41.1408C1.93928 41.0047 2.09932 40.8733 2.26652 40.7443V33.6358C2.26652 33.6047 2.25936 33.5761 2.2498 33.5498L3.41783 32.6469V39.9775C3.43217 39.9704 3.4465 39.9608 3.46083 39.9537C3.58265 39.8844 3.70686 39.8151 3.83584 39.7482C3.85734 39.7363 3.87645 39.7267 3.89556 39.7148V32.3961C3.89556 32.3603 3.886 32.3268 3.87167 32.2958L5.04687 31.3857V39.175C5.20452 39.1081 5.36216 39.0436 5.52459 38.9791V31.3809L6.70695 32.2838C6.68784 32.3173 6.6759 32.3531 6.6759 32.3937V38.5707C6.81922 38.5253 6.96492 38.4799 7.11063 38.4369C7.12496 38.4321 7.13929 38.4273 7.15362 38.4226V32.6254L8.3336 33.5259C8.31688 33.5593 8.30493 33.5952 8.30493 33.6334V38.1049C8.3551 38.0929 8.40526 38.081 8.45542 38.069C8.56052 38.0428 8.66562 38.0189 8.7731 37.9926C8.77549 37.9926 8.78027 37.9926 8.78266 37.9926V33.8699L9.49924 34.4169V33.8531L5.43143 30.7456Z" fill="white"/>
<path d="M3.42024 62.5146C3.33425 62.5863 3.22199 62.6436 3.08345 62.689C2.94491 62.7344 2.7777 62.7559 2.58184 62.7559C2.4003 62.7559 2.2331 62.7368 2.07784 62.6961C1.92258 62.6555 1.78643 62.5911 1.667 62.5027C1.54757 62.4143 1.45441 62.302 1.38753 62.1635C1.32065 62.0249 1.28721 61.8577 1.28721 61.6619H0.391479C0.396257 61.9772 0.455972 62.2495 0.570625 62.4812C0.685279 62.7129 0.83815 62.9016 1.02924 63.0497C1.22033 63.1978 1.44486 63.3076 1.70283 63.3793C1.9608 63.4509 2.23549 63.4868 2.5269 63.4868C2.78009 63.4868 3.02851 63.4581 3.27215 63.396C3.51578 63.3363 3.73315 63.2431 3.92424 63.1142C4.11533 62.9852 4.2682 62.8204 4.38524 62.6173C4.50228 62.4143 4.55961 62.1706 4.55961 61.884C4.55961 61.7503 4.53811 61.6165 4.49989 61.4827C4.45929 61.349 4.39718 61.2248 4.31358 61.1077C4.22998 60.9907 4.12727 60.888 4.00306 60.7972C3.87885 60.7064 3.73315 60.6348 3.56595 60.5822C3.49906 60.5631 3.38919 60.5321 3.23393 60.4915C3.07867 60.4509 2.92102 60.4102 2.75859 60.3672C2.59617 60.3243 2.45046 60.286 2.31909 60.2502C2.18772 60.2144 2.11367 60.1953 2.09456 60.1905C1.91303 60.1379 1.76732 60.0615 1.65506 59.9588C1.54279 59.8561 1.48785 59.7152 1.48785 59.5336C1.48785 59.4046 1.51652 59.2972 1.57623 59.2112C1.63595 59.1252 1.70999 59.0583 1.80076 59.0081C1.89153 58.958 1.99185 58.9221 2.10173 58.9006C2.2116 58.8791 2.31909 58.8696 2.42419 58.8696C2.73471 58.8696 2.99029 58.9389 3.19093 59.0726C3.39158 59.2064 3.50384 59.4405 3.52773 59.7701H4.42346C4.42346 59.5026 4.37091 59.2685 4.26581 59.0655C4.16071 58.8624 4.01978 58.6928 3.84064 58.5543C3.66149 58.4158 3.45368 58.313 3.21721 58.2438C2.98074 58.1745 2.72993 58.1387 2.46241 58.1387C2.2331 58.1387 2.00618 58.1697 1.78165 58.2294C1.55712 58.2892 1.35648 58.3799 1.17972 58.5041C1.00296 58.6283 0.862036 58.7836 0.754549 58.9723C0.647061 59.161 0.594512 59.3831 0.594512 59.6411C0.594512 59.7749 0.611232 59.9062 0.647061 60.0352C0.68289 60.1642 0.742606 60.286 0.828596 60.4007C0.914586 60.5153 1.02924 60.6181 1.17494 60.7112C1.32065 60.8044 1.50218 60.8784 1.72194 60.9357C2.07545 61.0313 2.37164 61.1077 2.61289 61.1674C2.85414 61.2271 3.06434 61.2893 3.24587 61.3561C3.35097 61.3944 3.44652 61.4588 3.53489 61.552C3.62327 61.6452 3.66627 61.7885 3.66627 61.9843C3.66627 62.0799 3.64716 62.173 3.60894 62.2662C3.57072 62.3594 3.50862 62.4406 3.42263 62.5122L3.42024 62.5146Z" fill="#10069F"/>
<path d="M7.72217 63.3675V59.0298H9.34643V58.2559H5.20935V59.0298H6.82644V63.3675H7.72217Z" fill="#10069F"/>
<path d="M14.9023 61.406C15.2654 61.406 15.5616 61.3558 15.7909 61.2531C16.0202 61.1504 16.1969 61.0214 16.3211 60.8638C16.4454 60.7061 16.529 60.5366 16.5743 60.3526C16.6197 60.1687 16.6412 59.9991 16.6412 59.8415C16.6412 59.6838 16.6173 59.5118 16.5743 59.3255C16.529 59.1392 16.4454 58.9672 16.3211 58.8096C16.1969 58.6519 16.0202 58.5206 15.7909 58.4155C15.5616 58.3104 15.2654 58.2578 14.9023 58.2578H12.6475V63.3694H13.5432V61.4084H14.9023V61.406ZM13.5432 58.9863H14.8665C14.9859 58.9863 15.0982 58.9983 15.2033 59.0222C15.3084 59.0461 15.4015 59.0914 15.4827 59.1535C15.564 59.218 15.6285 59.304 15.6762 59.4139C15.724 59.5238 15.7479 59.6623 15.7479 59.8295C15.7479 59.9967 15.7192 60.1257 15.6667 60.2332C15.6117 60.3407 15.5401 60.4267 15.4517 60.4912C15.3633 60.5557 15.2678 60.601 15.1627 60.6297C15.0576 60.6584 14.9549 60.6727 14.8545 60.6727H13.5456V58.984L13.5432 58.9863Z" fill="#10069F"/>
<path d="M18.619 58.2559L16.658 63.3675H17.5824L18.0625 62.0131H20.1023L20.5824 63.3675H21.5427L19.5745 58.2559H18.6214H18.619ZM18.3037 61.3348L19.0776 59.1373H19.0991L19.8659 61.3348H18.3061H18.3037Z" fill="#10069F"/>
<path d="M23.7521 63.3675V59.0298H25.3763V58.2559H21.2393V59.0298H22.8563V63.3675H23.7521Z" fill="#10069F"/>
<path d="M29.8192 60.8403C29.9123 60.7973 30.0055 60.7281 30.101 60.6301C30.1966 60.5322 30.2802 60.4032 30.3518 60.2432C30.4235 60.0831 30.4593 59.8825 30.4593 59.6389C30.4593 59.2041 30.3184 58.865 30.0365 58.6213C29.7547 58.3777 29.3319 58.2559 28.7682 58.2559H26.327V63.3675H27.2228V61.2631H28.5389C28.7443 61.2631 28.9115 61.2894 29.0429 61.3419C29.1743 61.3945 29.277 61.4781 29.3534 61.588C29.4298 61.7002 29.4824 61.8412 29.511 62.0108C29.5397 62.1803 29.554 62.381 29.554 62.6151C29.554 62.7393 29.5588 62.8683 29.5708 63.002C29.5827 63.1358 29.6209 63.2576 29.6878 63.3675H30.648C30.5525 63.2624 30.4832 63.088 30.4378 62.842C30.3924 62.596 30.3709 62.3237 30.3709 62.0227C30.3709 61.8221 30.3471 61.6549 30.2969 61.5211C30.2467 61.3873 30.1822 61.2798 30.1082 61.1962C30.0318 61.1126 29.9506 61.0529 29.8622 61.0147C29.7738 60.9765 29.6926 60.9526 29.6161 60.943V60.9287C29.6591 60.9144 29.726 60.8857 29.8192 60.8427V60.8403ZM29.3415 60.3769C29.1934 60.5131 28.976 60.58 28.6894 60.58H27.2228V58.9844H28.675C28.7897 58.9844 28.8996 58.9939 29.007 59.013C29.1145 59.0322 29.2101 59.0704 29.2937 59.1277C29.3773 59.185 29.4418 59.2639 29.4895 59.3666C29.5373 59.4693 29.5612 59.6006 29.5612 59.7631C29.5612 60.0354 29.4872 60.2384 29.3391 60.3746L29.3415 60.3769Z" fill="#10069F"/>
<path d="M32.6211 58.2559H31.7253V63.3675H32.6211V58.2559Z" fill="#10069F"/>
<path d="M35.0621 59.4695C35.1864 59.2855 35.3464 59.1398 35.5446 59.03C35.7429 58.9201 35.977 58.8651 36.2493 58.8651C36.4356 58.8651 36.598 58.889 36.739 58.9392C36.8799 58.9893 37.0017 59.0586 37.1068 59.1494C37.2119 59.2402 37.2979 59.3476 37.3648 59.4718C37.4316 59.5961 37.4842 59.7322 37.5224 59.8803H38.4181C38.3895 59.6032 38.3154 59.3572 38.196 59.1422C38.0766 58.9272 37.9213 58.7457 37.7278 58.5952C37.5344 58.4447 37.3122 58.3301 37.059 58.2513C36.8058 58.1724 36.5359 58.1318 36.2493 58.1318C35.8671 58.1318 35.5255 58.2035 35.2222 58.3468C34.9188 58.4901 34.6632 58.6836 34.453 58.9272C34.2428 59.1709 34.0828 59.4551 33.9706 59.78C33.8583 60.1048 33.8033 60.4488 33.8033 60.8119C33.8033 61.1749 33.8583 61.5261 33.9706 61.8509C34.0828 62.1758 34.2428 62.46 34.453 62.7036C34.6632 62.9473 34.9188 63.1384 35.2222 63.2793C35.5255 63.4202 35.8671 63.4895 36.2493 63.4895C36.5598 63.4895 36.8441 63.4393 37.102 63.339C37.36 63.2387 37.5845 63.0978 37.7756 62.9138C37.9667 62.7299 38.1172 62.5126 38.2294 62.2594C38.3417 62.0062 38.4062 61.7267 38.4253 61.421H37.5511C37.532 61.6073 37.4914 61.7816 37.4293 61.9441C37.3672 62.1065 37.2812 62.2474 37.1713 62.3692C37.0614 62.4911 36.93 62.5866 36.7772 62.6559C36.6243 62.7251 36.4475 62.7586 36.2469 62.7586C35.9746 62.7586 35.7405 62.7036 35.5423 62.5938C35.344 62.4839 35.184 62.3382 35.0598 62.1543C34.9355 61.9703 34.8448 61.7625 34.7851 61.5284C34.7253 61.2944 34.6943 61.0555 34.6943 60.8119C34.6943 60.5682 34.723 60.3294 34.7851 60.0953C34.8448 59.8612 34.9355 59.6534 35.0598 59.4695H35.0621Z" fill="#10069F"/>
<path d="M39.6006 58.2559V63.3675H40.4963V61.6477L41.2272 60.9263L42.9017 63.3675H44.0195L41.8339 60.2957L43.8762 58.2559H42.7727L40.4963 60.5824V58.2559H39.6006Z" fill="#10069F"/>
<path d="M44.8698 59.8586V60.2742C45.1469 60.236 45.3643 60.1214 45.5243 59.9279C45.6843 59.7344 45.7632 59.5003 45.7632 59.2232V58.2559H44.8674V59.2232H45.3045C45.3045 59.3809 45.2759 59.5194 45.2138 59.6413C45.1517 59.7631 45.0394 59.8347 44.8674 59.8586H44.8698Z" fill="#10069F"/>
<path d="M49.9313 62.5146C49.8454 62.5863 49.7331 62.6436 49.5946 62.689C49.456 62.7344 49.2888 62.7559 49.0929 62.7559C48.9114 62.7559 48.7442 62.7368 48.5889 62.6961C48.4337 62.6555 48.2975 62.5911 48.1781 62.5027C48.0587 62.4143 47.9655 62.302 47.8986 62.1635C47.8318 62.0249 47.7983 61.8577 47.7983 61.6619H46.9026C46.9074 61.9772 46.9671 62.2495 47.0817 62.4812C47.1964 62.7129 47.3493 62.9016 47.5403 63.0497C47.7314 63.1978 47.956 63.3076 48.2139 63.3793C48.4719 63.4509 48.7466 63.4868 49.038 63.4868C49.2912 63.4868 49.5396 63.4581 49.7833 63.396C50.0269 63.3363 50.2443 63.2431 50.4353 63.1142C50.6264 62.9852 50.7793 62.8204 50.8963 62.6173C51.0134 62.4143 51.0707 62.1706 51.0707 61.884C51.0707 61.7503 51.0516 61.6165 51.011 61.4827C50.9704 61.349 50.9083 61.2248 50.8247 61.1077C50.7411 60.9907 50.6384 60.888 50.5142 60.7972C50.39 60.7064 50.2443 60.6348 50.0771 60.5822C50.0102 60.5631 49.8979 60.5321 49.745 60.4915C49.5898 60.4509 49.4321 60.4102 49.2697 60.3672C49.1073 60.3243 48.9616 60.286 48.8302 60.2502C48.6988 60.2144 48.6248 60.1953 48.6057 60.1905C48.4241 60.1379 48.2784 60.0615 48.1662 59.9588C48.0539 59.8561 47.999 59.7152 47.999 59.5336C47.999 59.4046 48.0276 59.2972 48.0873 59.2112C48.1471 59.1252 48.2211 59.0583 48.3119 59.0081C48.4026 58.958 48.503 58.9221 48.6128 58.9006C48.7227 58.8791 48.8302 58.8696 48.9353 58.8696C49.2458 58.8696 49.5014 58.9389 49.702 59.0726C49.9027 59.2088 50.0149 59.4405 50.0388 59.7701H50.9346C50.9346 59.5026 50.882 59.2685 50.7769 59.0655C50.6718 58.8624 50.5309 58.6928 50.3517 58.5543C50.1726 58.4158 49.9648 58.313 49.7283 58.2438C49.4918 58.1745 49.241 58.1387 48.9735 58.1387C48.7442 58.1387 48.5173 58.1697 48.2928 58.2294C48.0682 58.2892 47.8676 58.3799 47.6908 58.5041C47.5141 58.6283 47.3731 58.7836 47.2657 58.9723C47.1582 59.161 47.1056 59.3831 47.1056 59.6411C47.1056 59.7749 47.1247 59.9062 47.1582 60.0352C47.194 60.1642 47.2561 60.286 47.3397 60.4007C47.4233 60.5153 47.5403 60.6181 47.6861 60.7112C47.8318 60.8044 48.0133 60.8784 48.233 60.9357C48.5866 61.0313 48.8827 61.1077 49.124 61.1674C49.3652 61.2271 49.5754 61.2893 49.757 61.3561C49.8621 61.3944 49.9576 61.4588 50.046 61.552C50.1344 61.6452 50.1774 61.7885 50.1774 61.9843C50.1774 62.0799 50.1583 62.173 50.12 62.2662C50.0818 62.3594 50.0197 62.4406 49.9337 62.5122L49.9313 62.5146Z" fill="#10069F"/>
<path d="M57.9141 61.9411C57.852 62.1036 57.766 62.2445 57.6561 62.3663C57.5462 62.4881 57.4149 62.5837 57.262 62.6529C57.1091 62.7222 56.9324 62.7557 56.7317 62.7557C56.4594 62.7557 56.2253 62.7007 56.0271 62.5908C55.8288 62.481 55.6688 62.3353 55.5446 62.1513C55.4204 61.9674 55.3296 61.7596 55.2699 61.5255C55.2102 61.2914 55.1791 61.0526 55.1791 60.8089C55.1791 60.5653 55.2078 60.3264 55.2699 60.0923C55.3296 59.8583 55.4204 59.6505 55.5446 59.4665C55.6688 59.2826 55.8288 59.1369 56.0271 59.027C56.2253 58.9171 56.4594 58.8622 56.7317 58.8622C56.918 58.8622 57.0804 58.8861 57.2214 58.9363C57.3623 58.9864 57.4841 59.0557 57.5892 59.1465C57.6943 59.2372 57.7803 59.3447 57.8472 59.4689C57.9141 59.5931 57.9666 59.7293 58.0048 59.8774H58.9006C58.8719 59.6003 58.7979 59.3543 58.6784 59.1393C58.559 58.9243 58.4037 58.7428 58.2103 58.5923C58.0168 58.4418 57.7946 58.3272 57.5414 58.2483C57.2883 58.1695 57.0183 58.1289 56.7317 58.1289C56.3495 58.1289 56.008 58.2006 55.7046 58.3439C55.4012 58.4872 55.1457 58.6807 54.9355 58.9243C54.7253 59.168 54.5652 59.4522 54.453 59.777C54.3407 60.1019 54.2858 60.4459 54.2858 60.8089C54.2858 61.172 54.3407 61.5231 54.453 61.848C54.5652 62.1728 54.7253 62.4571 54.9355 62.7007C55.1457 62.9443 55.4012 63.1354 55.7046 63.2764C56.008 63.4173 56.3495 63.4866 56.7317 63.4866C57.0422 63.4866 57.3265 63.4364 57.5844 63.3361C57.8424 63.2358 58.0669 63.0948 58.258 62.9109C58.4491 62.727 58.5996 62.5096 58.7119 62.2564C58.8241 62.0032 58.8886 61.7238 58.9077 61.418H58.0335C58.0144 61.6043 57.9738 61.7787 57.9117 61.9411H57.9141Z" fill="#10069F"/>
<path d="M61.2318 63.2764C61.5352 63.4173 61.8768 63.4866 62.2589 63.4866C62.6411 63.4866 62.9827 63.4173 63.286 63.2764C63.5894 63.1354 63.845 62.9443 64.0552 62.7007C64.2654 62.4571 64.4254 62.1728 64.5377 61.848C64.6499 61.5231 64.7049 61.1768 64.7049 60.8089C64.7049 60.4411 64.6475 60.1019 64.5377 59.777C64.4254 59.4522 64.2654 59.168 64.0552 58.9243C63.845 58.6807 63.5894 58.4872 63.286 58.3439C62.9827 58.2006 62.6411 58.1289 62.2589 58.1289C61.8768 58.1289 61.5352 58.2006 61.2318 58.3439C60.9285 58.4872 60.6729 58.6807 60.4627 58.9243C60.2525 59.168 60.0925 59.4522 59.9802 59.777C59.8679 60.1019 59.813 60.4459 59.813 60.8089C59.813 61.172 59.8679 61.5231 59.9802 61.848C60.0925 62.1728 60.2525 62.4571 60.4627 62.7007C60.6729 62.9443 60.9285 63.1354 61.2318 63.2764ZM60.7971 60.0947C60.8568 59.8606 60.9476 59.6528 61.0718 59.4689C61.196 59.285 61.356 59.1393 61.5543 59.0294C61.7525 58.9195 61.9866 58.8646 62.2589 58.8646C62.5312 58.8646 62.7653 58.9195 62.9636 59.0294C63.1618 59.1393 63.3219 59.285 63.4461 59.4689C63.5703 59.6528 63.661 59.8606 63.7208 60.0947C63.7805 60.3288 63.8115 60.5677 63.8115 60.8113C63.8115 61.055 63.7829 61.2938 63.7208 61.5279C63.661 61.762 63.5703 61.9698 63.4461 62.1537C63.3219 62.3376 63.1618 62.4833 62.9636 62.5932C62.7653 62.7031 62.5312 62.758 62.2589 62.758C61.9866 62.758 61.7525 62.7031 61.5543 62.5932C61.356 62.4833 61.196 62.3376 61.0718 62.1537C60.9476 61.9698 60.8568 61.762 60.7971 61.5279C60.7374 61.2938 60.7063 61.055 60.7063 60.8113C60.7063 60.5677 60.735 60.3288 60.7971 60.0947Z" fill="#10069F"/>
<path d="M65.8824 58.2559V63.3675H69.377V62.5936H66.7782V58.2559H65.8824Z" fill="#10069F"/>
<path d="M70.3491 58.2559V63.3675H73.8437V62.5936H71.2449V58.2559H70.3491Z" fill="#10069F"/>
<path d="M78.4967 59.0298V58.2559H74.8182V63.3675H78.5469V62.5936H75.7116V61.0983H78.2889V60.3674H75.7116V59.0298H78.4967Z" fill="#10069F"/>
<path d="M80.7085 59.469C80.8327 59.2851 80.9928 59.1394 81.191 59.0295C81.3893 58.9196 81.6233 58.8647 81.8957 58.8647C82.0581 58.8647 82.2133 58.8862 82.3614 58.9292C82.5095 58.9722 82.6433 59.0367 82.7627 59.1227C82.8821 59.2087 82.9801 59.3138 83.0589 59.4404C83.1377 59.567 83.1879 59.7127 83.2118 59.8799H84.086C84.0526 59.5932 83.9714 59.34 83.8424 59.1203C83.7134 58.9005 83.551 58.719 83.3551 58.5733C83.1592 58.4276 82.9371 58.3177 82.6863 58.2437C82.4355 58.1696 82.1727 58.1338 81.8957 58.1338C81.5135 58.1338 81.1719 58.2054 80.8685 58.3488C80.5652 58.4921 80.3096 58.6856 80.0994 58.9292C79.8892 59.1728 79.7292 59.4571 79.6169 59.7819C79.5046 60.1068 79.4497 60.4507 79.4497 60.8138C79.4497 61.1769 79.5046 61.528 79.6169 61.8529C79.7292 62.1777 79.8892 62.462 80.0994 62.7056C80.3096 62.9492 80.5652 63.1403 80.8685 63.2812C81.1719 63.4222 81.5135 63.4914 81.8957 63.4914C82.2062 63.4914 82.4809 63.4389 82.7197 63.3338C82.9586 63.2287 83.1974 63.04 83.4363 62.7677L83.5725 63.3696H84.1457V60.6777H81.9697V61.3584H83.3312C83.3264 61.5734 83.293 61.7693 83.2309 61.946C83.1688 62.1228 83.078 62.2709 82.9562 62.3927C82.8344 62.5145 82.6863 62.6077 82.5095 62.6722C82.3328 62.7366 82.1297 62.7653 81.9004 62.7605C81.6281 62.7605 81.394 62.7056 81.1958 62.5957C80.9975 62.4858 80.8375 62.3401 80.7133 62.1562C80.5891 61.9723 80.4983 61.7645 80.4386 61.5304C80.3789 61.2963 80.3478 61.0575 80.3478 60.8138C80.3478 60.5702 80.3765 60.3313 80.4386 60.0972C80.4983 59.8631 80.5891 59.6553 80.7133 59.4714L80.7085 59.469Z" fill="#10069F"/>
<path d="M89.157 59.0298V58.2559H85.4762V63.3675H89.2072V62.5936H86.3719V61.0983H88.9492V60.3674H86.3719V59.0298H89.157Z" fill="#10069F"/>
<path d="M17.5178 78.3702L17.4031 78.4084C16.9278 78.707 16.4716 78.8527 16.0082 78.8527C15.1148 78.8527 14.2645 78.3104 13.278 77.6846C12.0216 76.8844 10.469 75.8955 8.28342 75.7546C9.05255 74.8135 9.91006 73.4377 11.0972 71.4981C12.5184 69.1692 13.5981 67.9558 14.2573 67.3443C14.3457 67.3228 14.4222 67.2942 14.4986 67.2655C15.1029 67.0362 15.5114 66.7161 15.5114 66.4653C15.5114 66.439 15.5066 66.4104 15.497 66.3865L15.3943 66.2766C15.3537 66.2551 15.3012 66.2432 15.2391 66.2432C14.8425 66.2432 13.9803 66.9048 13.8274 67.0242C13.4237 67.1341 12.9675 67.1891 12.4348 67.1891C11.4842 67.1891 10.3758 67.0171 9.20303 66.8355C8.92834 66.7925 8.64888 66.7496 8.36463 66.7066C6.77859 66.4629 5.35976 66.2623 4.08424 66.2623C1.78878 66.2623 0.503707 66.9693 0.0427048 68.4956L0.0307617 68.5697C0.0307617 68.6628 0.100031 68.7393 0.181244 68.7393C0.255291 68.7393 0.348447 68.6915 0.367556 68.5721C0.7569 67.2846 1.90582 66.6851 3.98153 66.6851C5.27377 66.6851 6.78337 66.9144 8.24281 67.1341C9.71897 67.3563 11.1115 67.5688 12.3226 67.5688C12.6856 67.5688 13.0033 67.5497 13.2876 67.5139C12.153 68.7249 11.1904 70.3349 10.2564 71.8946C9.4419 73.2561 8.59871 74.6654 7.66477 75.7546C6.60661 75.8287 5.48635 76.2992 5.48635 76.9489C5.48635 77.0397 5.51024 77.1161 5.54846 77.2021C5.58667 77.2857 5.687 77.4267 5.94497 77.4267C6.41552 77.4267 7.12733 76.9776 7.85586 76.2252H7.88691C9.96261 76.2252 11.4961 77.1615 12.8504 77.9856C13.9492 78.6544 14.8951 79.2324 15.9389 79.2324C16.505 79.2324 17.0425 79.0628 17.5751 78.7165C17.6492 78.6807 17.6922 78.6138 17.6922 78.5374C17.6922 78.4394 17.6181 78.3678 17.5226 78.3678L17.5178 78.3702ZM5.91391 77.0254C5.96408 76.8725 6.38208 76.4354 7.16794 76.2753C6.65438 76.7865 6.27698 77.0086 5.91391 77.0254Z" fill="#27251F"/>
<path d="M38.9628 68.7376C38.9054 68.7376 38.8624 68.7638 38.817 68.7949C38.3775 69.1389 37.5391 69.3132 36.3233 69.3132C34.9666 69.3132 33.4331 69.0911 32.3941 68.9239C32.3176 68.9143 32.2436 68.9 32.1648 68.8857C32.1361 68.8809 32.1074 68.8761 32.0788 68.8689C32.4251 68.353 33.0294 67.5098 33.4689 66.927C33.5096 66.8864 33.5358 66.8267 33.5358 66.7717C33.5358 66.6332 33.3901 66.54 33.2516 66.54C33.1656 66.54 33.0868 66.5735 33.0151 66.6475C32.5875 67.1873 31.8351 68.224 31.4625 68.7567C30.3805 68.5632 29.1575 68.3482 27.9847 68.3482C26.8119 68.3482 25.8827 68.5656 25.1661 69.0146C25.116 69.0481 25.061 69.1102 25.061 69.1866C25.061 69.2774 25.1303 69.3467 25.2211 69.3467L25.3357 69.3084C25.9472 68.9263 26.7546 68.7399 27.7984 68.7399C28.9377 68.7399 30.1703 68.9669 31.1926 69.1651L31.0517 69.3705C30.5023 70.1779 29.6281 71.4606 28.8231 72.8173C28.3573 72.9821 27.6957 73.4861 27.0531 73.9782C26.401 74.4774 25.663 75.0435 25.3453 75.0435C25.3166 75.0411 25.2784 74.9742 25.2784 74.8333C25.2784 74.6924 25.319 74.3842 25.5913 73.8946C25.7657 73.5793 25.9735 73.2234 26.1765 72.9654L26.1885 72.9487L26.2123 72.8603C26.2123 72.7313 26.0666 72.5976 25.9281 72.5976C25.8517 72.5976 25.7896 72.6334 25.7681 72.6812L25.7155 72.76C25.534 72.5522 25.3381 72.4542 25.1064 72.4542C25.0371 72.4542 24.9535 72.4542 24.8795 72.4781C24.5308 72.5737 24.2632 72.7648 24.0745 72.9869C23.1095 73.6796 21.9296 74.3627 21.2751 74.3627H21.2297C20.9646 74.3508 20.9335 74.186 20.9335 74.0618C20.9335 73.9209 20.9837 73.7465 21.0816 73.5411C21.9176 73.3619 22.4144 72.9248 22.4144 72.5928C22.4144 72.4471 22.2831 72.299 21.9869 72.299C21.8364 72.299 21.3658 72.3539 20.9048 72.9367C20.3005 73.381 18.8697 74.3651 18.0743 74.3651H18.029C17.8188 74.3556 17.7113 74.2553 17.7113 74.0642C17.7113 73.8922 17.7829 73.6772 17.9239 73.4192C18.1006 73.0777 18.4732 72.7552 18.6906 72.7552C18.736 72.7552 18.7646 72.7671 18.8053 72.8054C18.8053 72.8078 18.8148 72.8197 18.8244 72.8603C18.8506 72.9415 18.9199 72.9941 18.9987 72.9941C19.0871 72.9941 19.1803 72.92 19.1803 72.7743C19.1659 72.5259 18.9438 72.3539 18.6404 72.3539C18.3371 72.3539 18.0433 72.5259 17.7686 72.8269C16.9899 73.0968 16.1396 73.7059 15.3848 74.2457C14.7613 74.6924 14.1713 75.1152 13.9062 75.1152C13.8895 75.1152 13.8632 75.1152 13.8513 75.1104C13.7916 75.0769 13.7796 74.9981 13.7796 74.9384C13.7796 74.3938 14.5702 73.1828 14.8569 72.7839C14.8712 72.7552 14.8903 72.717 14.8903 72.6692C14.8903 72.5546 14.79 72.4686 14.6586 72.4686C14.5941 72.4686 14.5344 72.4925 14.4962 72.5307C14.1546 72.8364 12.7501 73.9638 12.3966 74.1C12.442 73.7775 13.1442 72.8651 13.3043 72.7146C13.3592 72.6597 13.3712 72.6047 13.3712 72.5689C13.3712 72.4304 13.2255 72.3372 13.0869 72.3372C13.0153 72.3372 12.9484 72.3659 12.9054 72.4065C12.6641 72.6143 12.0431 73.6079 12.0431 74.1096C12.0431 74.2457 12.0813 74.346 12.1601 74.4081L12.1816 74.4225C12.2079 74.4344 12.2485 74.4559 12.3178 74.4559C12.5972 74.4559 13.2278 74.0522 13.6602 73.7513C13.481 74.1167 13.2971 74.5944 13.2971 74.9647C13.2971 75.2967 13.4548 75.4472 13.5885 75.5141L13.6052 75.5212C13.6578 75.5379 13.708 75.5475 13.7557 75.5475C14.1236 75.5475 14.7446 75.108 15.5281 74.5538C16.13 74.1287 16.7917 73.6605 17.4007 73.3548C17.2909 73.5769 17.2288 73.8229 17.2288 74.0331C17.2288 74.3675 17.3673 74.6136 17.6181 74.7282C17.7256 74.776 17.845 74.7999 17.974 74.7999C18.7025 74.7999 19.7726 74.1597 20.5203 73.6414C20.4725 73.7895 20.4438 73.9376 20.4438 74.0737C20.4438 74.3866 20.5752 74.6135 20.8141 74.7163C20.9216 74.764 21.041 74.7879 21.17 74.7879C21.9057 74.7879 23.014 74.1358 23.7783 73.6175C23.7688 73.6748 23.7616 73.7322 23.7616 73.7871C23.7616 74.1334 23.9742 74.358 24.3015 74.358C24.4925 74.358 24.7195 74.2839 24.9727 74.1382C24.8938 74.3795 24.8508 74.6255 24.8508 74.8357C24.8508 75.3875 25.1637 75.4472 25.2999 75.4472H25.3333C25.7704 75.4352 26.4297 74.9265 27.1917 74.3389C27.6336 73.9973 28.085 73.6509 28.503 73.393C27.6264 74.936 26.905 76.4958 26.905 77.4966C26.905 77.6901 26.9313 77.8525 26.9839 77.991L26.9886 78.0006C27.0316 78.0842 27.0866 78.1272 27.1582 78.1272C27.2562 78.1272 27.3302 78.046 27.3302 77.9361L27.3087 77.8453C27.2753 77.7713 27.2586 77.6638 27.2586 77.5444C27.2586 75.7338 30.949 70.4765 31.8041 69.2822C31.8996 69.2965 31.9928 69.3156 32.0835 69.3323C32.1624 69.3467 32.2412 69.361 32.3152 69.3729C33.0844 69.5043 34.5868 69.7241 36.0319 69.7241C37.477 69.7241 38.4874 69.5043 39.0368 69.0767C39.0941 69.0385 39.13 68.9716 39.13 68.9048C39.13 68.8188 39.0559 68.7447 38.9699 68.7447L38.9628 68.7376ZM22.037 72.6836C22.037 72.6836 22.049 72.6836 22.0538 72.6836C21.9988 72.7839 21.7026 72.9917 21.373 73.0992C21.6405 72.7982 21.9033 72.6812 22.037 72.6812V72.6836ZM24.2871 73.9758C24.1796 73.9758 24.1796 73.928 24.1796 73.8898C24.1796 73.8014 24.225 73.639 24.4424 73.3548C24.6836 73.0347 24.9225 72.8579 25.1184 72.8579C25.2473 72.8579 25.3668 72.9391 25.4766 73.0992C24.9631 73.7393 24.4878 73.9734 24.2871 73.9734V73.9758Z" fill="#27251F"/>
<path d="M52.7976 78.3702L52.6829 78.4084C52.2076 78.707 51.7514 78.8527 51.288 78.8527C50.3946 78.8527 49.5443 78.3104 48.5578 77.6846C47.3014 76.8844 45.7488 75.8955 43.5632 75.7546C44.3323 74.8135 45.1898 73.4377 46.377 71.4981C47.7982 69.1668 48.8755 67.9558 49.5371 67.3443C49.6255 67.3228 49.7019 67.2942 49.7784 67.2655C50.3827 67.0362 50.7911 66.7161 50.7911 66.4653C50.7911 66.439 50.7864 66.4104 50.7768 66.3865L50.6741 66.2766C50.6335 66.2551 50.5809 66.2432 50.5188 66.2432C50.1223 66.2432 49.26 66.9048 49.1072 67.0242C48.7035 67.1341 48.2473 67.1891 47.7146 67.1891C46.7639 67.1891 45.6556 67.0171 44.4828 66.8355C44.2081 66.7925 43.9287 66.7496 43.6444 66.7066C42.0584 66.4629 40.6395 66.2623 39.364 66.2623C37.0686 66.2623 35.7835 66.9693 35.3225 68.4956L35.3105 68.5697C35.3105 68.6628 35.3798 68.7393 35.461 68.7393C35.5351 68.7393 35.6282 68.6915 35.6473 68.5721C36.0367 67.2846 37.1856 66.6851 39.2613 66.6851C40.5535 66.6851 42.0632 66.9144 43.5226 67.1341C44.9988 67.3563 46.3913 67.5688 47.6023 67.5688C47.9654 67.5688 48.2831 67.5497 48.5673 67.5139C47.4328 68.7249 46.4701 70.3349 45.5362 71.8946C44.7217 73.2561 43.8785 74.6654 42.9446 75.7546C41.8864 75.8287 40.7661 76.2992 40.7661 76.9489C40.7661 77.0397 40.79 77.1161 40.8282 77.2021C40.8665 77.2857 40.9668 77.4267 41.2248 77.4267C41.6953 77.4267 42.4071 76.9776 43.1356 76.2252H43.1667C45.2424 76.2252 46.7759 77.1615 48.1302 77.988C49.229 78.6568 50.1749 79.2348 51.2187 79.2348C51.7848 79.2348 52.3222 79.0652 52.8549 78.7189C52.929 78.6831 52.9719 78.6162 52.9719 78.5397C52.9719 78.4418 52.8979 78.3702 52.8024 78.3702H52.7976ZM41.1937 77.0254C41.2439 76.8725 41.6619 76.4354 42.4477 76.2753C41.9342 76.7865 41.5568 77.0086 41.1937 77.0254Z" fill="#27251F"/>
<path d="M57.3383 72.7952C57.3121 72.7952 57.2619 72.7952 57.2046 72.8334L57.1616 72.8596C55.4991 73.8915 54.2761 74.4576 53.7244 74.4576C53.6599 74.4576 53.6097 74.4505 53.5572 74.4337C53.4568 74.4003 53.3947 74.3024 53.3756 74.1543C53.4927 74.0468 53.6288 73.9202 53.7721 73.7864C54.3526 73.2442 55.2268 72.4225 55.5301 72.3843C55.7045 72.3557 55.7236 72.2482 55.7236 72.2052C55.7236 72.1502 55.6854 72.0547 55.5421 72.0547H55.4991C55.0715 72.1001 54.3096 72.8143 53.636 73.4449C53.5404 73.5332 53.4497 73.6192 53.3637 73.7004C53.3828 73.1081 53.538 72.7641 53.624 72.5754L53.6599 72.5324V72.4823C53.6599 72.3676 53.538 72.2816 53.4282 72.2816C53.3374 72.2816 53.2514 72.3318 53.2013 72.413C53.1463 72.5061 53.089 72.6542 53.0412 72.8286C52.2649 73.1009 51.417 73.7052 50.6645 74.245C50.0411 74.6917 49.4511 75.1145 49.186 75.1145C49.1693 75.1145 49.143 75.1145 49.1311 75.1097C49.0713 75.0763 49.0594 74.9975 49.0594 74.9377C49.0594 74.3931 49.85 73.1821 50.1367 72.7832C50.151 72.7545 50.1701 72.7163 50.1701 72.6686C50.1701 72.5539 50.0698 72.4679 49.9384 72.4679C49.8739 72.4679 49.8142 72.4918 49.776 72.53C49.432 72.8358 48.0299 73.9632 47.6764 74.0993C47.7218 73.7769 48.424 72.8644 48.5841 72.7139C48.639 72.659 48.6509 72.6041 48.6509 72.5682C48.6509 72.4297 48.5052 72.3365 48.3667 72.3365C48.295 72.3365 48.2282 72.3652 48.1852 72.4058C47.9439 72.616 47.3229 73.6073 47.3229 74.1089C47.3229 74.245 47.3611 74.3454 47.4399 74.4075L47.4614 74.4218C47.4949 74.4385 47.5331 74.4552 47.5976 74.4552C47.877 74.4552 48.5076 74.0516 48.94 73.7506C48.7608 74.1161 48.5769 74.5938 48.5769 74.964C48.5769 75.296 48.7345 75.4465 48.8683 75.5134L48.885 75.5206C48.9376 75.5373 48.9877 75.5468 49.0355 75.5468C49.4034 75.5468 50.0244 75.1073 50.8079 74.5532C51.5006 74.0635 52.2745 73.5141 52.9576 73.2251C52.9218 73.4281 52.9003 73.6431 52.9003 73.8461C52.9003 73.9441 52.9075 74.0396 52.9146 74.128C52.573 74.4433 52.0619 74.8374 51.6128 75.0357C51.5006 75.0643 51.46 75.1408 51.46 75.2029C51.46 75.2817 51.5316 75.3438 51.62 75.3438H51.6415L51.6916 75.3343C51.8397 75.2769 52.2721 75.1121 53.0149 74.4935C53.0842 74.632 53.1893 74.7395 53.3207 74.8016C53.4019 74.835 53.4951 74.8518 53.6145 74.8518C54.2618 74.8518 55.4895 74.2833 57.3765 73.1128C57.4721 73.0651 57.4936 72.9934 57.4936 72.9433C57.4936 72.8644 57.4267 72.8023 57.3431 72.8023L57.3383 72.7952ZM51.663 75.2602L51.6415 75.2124C51.6415 75.2124 51.651 75.2077 51.6534 75.2077L51.6797 75.2435C51.6797 75.2435 51.6678 75.2578 51.663 75.2602Z" fill="#27251F"/>
<path d="M78.6185 66.528C78.7069 66.5065 78.769 66.4301 78.769 66.3512C78.769 66.2724 78.6997 66.1816 78.5874 66.1816L78.5158 66.196C76.3302 66.7645 73.889 69.5711 71.5267 72.2822C70.8555 73.0513 70.2225 73.7798 69.6063 74.4439C69.5776 74.4749 69.5131 74.5418 69.4247 74.6373C67.6787 76.51 67.0839 77.0355 66.888 77.1573C66.8713 77.0809 66.8641 76.9853 66.8641 76.8778C66.8641 75.2799 68.6413 70.6173 70.1413 68.2741L70.17 68.169C70.17 68.0925 70.1246 68.0233 70.0625 67.9731L70.1413 67.8799L70.0338 67.9516C69.9789 67.9158 69.9144 67.8943 69.8547 67.8943L69.7543 67.9206L69.7233 67.9373C68.4048 68.8927 66.6444 69.6881 65.259 70.2757C63.4604 71.0281 60.9977 72.06 60.2286 74.3005L60.2142 74.3698C60.2142 74.4749 60.2859 74.5513 60.3838 74.5513C60.4603 74.5513 60.5295 74.494 60.5677 74.4009C61.2724 72.4446 63.6228 71.427 65.0297 70.8203C65.1706 70.7606 65.302 70.7033 65.4238 70.6483L65.9684 70.4071C67.0051 69.9509 68.0704 69.4803 69.0736 68.8688C68.099 70.5671 66.3267 75.244 66.3267 76.9041C66.3267 77.3914 66.4748 77.6398 66.7638 77.6398C66.8187 77.6398 66.8809 77.6279 66.9573 77.6016C67.3633 77.4583 68.2949 76.4527 69.5824 75.0601L69.9024 74.7138C70.5474 74.0187 71.2066 73.2591 71.9017 72.4517C74.1948 69.798 76.5667 67.0559 78.6161 66.5208L78.6185 66.528Z" fill="#27251F"/>
<path d="M77.3216 77.5372C77.3216 75.7266 81.012 70.4693 81.8671 69.275C81.9626 69.2893 82.0558 69.3084 82.1466 69.3252C82.2254 69.3395 82.3042 69.3538 82.3783 69.3658C83.1474 69.4971 84.6498 69.7169 86.0949 69.7169C87.5401 69.7169 88.5504 69.4971 89.0998 69.0696C89.1571 69.0314 89.193 68.9645 89.193 68.8976C89.193 68.8116 89.1189 68.7376 89.0329 68.7376C88.9756 68.7376 88.9326 68.7638 88.8872 68.7949C88.4477 69.1388 87.6093 69.3132 86.3935 69.3132C85.0368 69.3132 83.5033 69.0911 82.4643 68.9239C82.3878 68.9143 82.3138 68.9 82.2349 68.8857C82.2063 68.8809 82.1776 68.8761 82.149 68.8689C82.4953 68.353 83.0996 67.5098 83.5415 66.927C83.5821 66.8864 83.6084 66.8267 83.6084 66.7717C83.6084 66.6332 83.4627 66.54 83.3241 66.54C83.2382 66.54 83.1593 66.5735 83.0877 66.6475C82.6601 67.185 81.9077 68.224 81.5351 68.7567C80.453 68.5632 79.2301 68.3482 78.0573 68.3482C76.8845 68.3482 75.9553 68.5656 75.2387 69.0146C75.1885 69.0481 75.1336 69.1102 75.1336 69.1866C75.1336 69.2774 75.2029 69.3467 75.2936 69.3467L75.4083 69.3084C76.0222 68.9263 76.8271 68.7399 77.871 68.7399C79.0103 68.7399 80.2428 68.9669 81.2652 69.1651L81.1242 69.3705C80.5653 70.1922 79.6696 71.5084 78.8527 72.8914C78.4777 73.1326 77.5748 73.4718 76.2562 73.8659C76.273 73.7369 76.2825 73.6223 76.2921 73.5172C76.3088 73.3333 76.3231 73.1732 76.359 73.0084C76.5429 72.92 77.0946 72.6286 77.0923 72.2894L77.0827 72.2273L77.0755 72.1987C77.0278 72.0864 76.9251 72.0243 76.7913 72.0243C76.5094 72.0243 76.101 72.3061 75.929 72.76C75.9171 72.7934 75.9075 72.8316 75.898 72.8675C74.9067 73.6008 73.6216 74.3675 72.9289 74.3675H72.8835C72.6184 74.3556 72.5873 74.1908 72.5873 74.0666C72.5873 73.928 72.6375 73.7513 72.7354 73.5458C73.5714 73.3667 74.0683 72.9296 74.0683 72.5976C74.0683 72.4519 73.9369 72.3038 73.6407 72.3038C73.4616 72.3038 72.8358 72.3778 72.3031 73.3213C72.1669 73.5673 72.0929 73.8325 72.0929 74.0666C72.0929 74.3795 72.2243 74.6064 72.4631 74.7091C72.5706 74.7569 72.6901 74.7808 72.819 74.7808C73.6909 74.7808 75.0834 73.8659 75.8096 73.3428C75.7952 73.4575 75.7857 73.5745 75.7761 73.6892C75.7666 73.8158 75.7546 73.9376 75.7403 74.0546C75.2124 74.2768 74.8183 74.518 74.5364 74.7903C74.2068 75.0913 74.0253 75.4161 74.0253 75.7099C74.0253 76.0467 74.2833 76.2904 74.6368 76.2904C75.2172 76.2904 75.9171 75.6645 76.1894 74.2648C76.4067 74.1836 76.6862 74.0928 76.98 73.9973C77.5127 73.8253 78.0883 73.639 78.5445 73.4264C77.6775 74.9527 76.9704 76.4934 76.9704 77.4847C76.9704 77.6781 76.9967 77.8406 77.0493 77.9791L77.054 77.9887C77.097 78.0723 77.1544 78.1153 77.2236 78.1153C77.3216 78.1153 77.3932 78.034 77.3932 77.9242L77.3717 77.8334C77.3383 77.7594 77.3216 77.6519 77.3216 77.5324V77.5372ZM73.6909 72.6836C73.6909 72.6836 73.7028 72.6836 73.7076 72.6836C73.6527 72.7839 73.3565 72.9917 73.0268 73.0992C73.2944 72.7982 73.5571 72.6812 73.6909 72.6812V72.6836ZM74.6344 75.9273C74.5842 75.9273 74.5388 75.9106 74.4911 75.87C74.4385 75.8317 74.4051 75.7864 74.4051 75.6884C74.4051 75.5977 74.4505 75.3946 74.761 75.0745C74.9903 74.8452 75.3557 74.635 75.6734 74.4869C75.5014 75.2991 74.9521 75.9273 74.6368 75.9273H74.6344Z" fill="#27251F"/>
<path d="M89.4031 72.7743L89.329 72.7886C88.8609 72.9176 88.1562 73.4574 87.4779 73.9781C86.8258 74.4774 86.0877 75.0435 85.7676 75.0435C85.7389 75.0411 85.7007 74.9742 85.7007 74.8333C85.7007 74.6923 85.7413 74.3842 86.0136 73.8945C86.188 73.5792 86.3958 73.2233 86.5988 72.9654L86.6108 72.9486L86.6347 72.8603C86.6347 72.7313 86.489 72.5975 86.3504 72.5975C86.274 72.5975 86.2119 72.6334 86.1904 72.6811L86.1378 72.7599C85.9563 72.5521 85.7604 72.4542 85.5287 72.4542C85.4595 72.4542 85.3759 72.4542 85.3018 72.4781C84.9602 72.5712 84.6951 72.7576 84.5064 72.9749C83.7874 73.4765 81.9315 74.7736 81.3367 74.7736C81.3057 74.7736 81.2842 74.7735 81.2722 74.7688C81.234 74.7568 81.2316 74.7544 81.2316 74.7067C81.2316 74.5849 81.3487 74.3532 81.4633 74.131C81.6186 73.8229 81.7977 73.4741 81.7977 73.1875C81.7977 73.0848 81.7762 72.9964 81.7356 72.9224C81.91 72.7719 82.1584 72.49 82.1584 72.3061C82.1584 72.2106 82.1035 72.1437 82.0008 72.1174L81.9267 72.1055C81.5875 72.1055 81.2125 72.5497 81.2125 72.8507C81.2125 72.9701 81.2698 73.0681 81.363 73.1206C81.3726 73.1278 81.3773 73.1493 81.3773 73.178C81.3773 73.2329 81.3487 73.3284 81.3415 73.3571C81.3128 73.4431 81.2507 73.5769 81.1815 73.7178C81.031 74.0331 80.8423 74.4224 80.8423 74.7186C80.8423 74.9408 80.9522 75.0984 81.1528 75.1605L81.3128 75.1868C81.941 75.1868 83.2882 74.26 84.2007 73.6007C84.1911 73.6605 84.184 73.7178 84.184 73.7727C84.184 74.1191 84.3965 74.3436 84.7238 74.3436C84.9149 74.3436 85.1418 74.2672 85.395 74.1238C85.3162 74.3651 85.2732 74.6111 85.2732 74.8213C85.2732 75.3731 85.5861 75.4328 85.7222 75.4328H85.7557C86.1928 75.4209 86.852 74.9121 87.614 74.3245C88.2518 73.8324 88.911 73.3237 89.4652 73.092L89.5058 73.0633C89.5416 73.0275 89.5798 72.9893 89.5798 72.9295C89.5798 72.8412 89.5034 72.7695 89.4102 72.7695L89.4031 72.7743ZM84.7094 73.9758C84.602 73.9758 84.602 73.928 84.602 73.8898C84.602 73.8014 84.6473 73.639 84.8647 73.3547C85.106 73.0346 85.3448 72.8579 85.5407 72.8579C85.6697 72.8579 85.7891 72.9391 85.899 73.0991C85.3854 73.7393 84.9101 73.9734 84.7094 73.9734V73.9758Z" fill="#27251F"/>
<path d="M38.9652 38.3281C39.4883 38.3998 40.009 38.4738 40.5226 38.5479C40.0066 38.4738 39.4883 38.3998 38.9652 38.3281Z" fill="#10069F"/>
<path d="M56.1656 40.9412C55.9291 40.9102 55.6926 40.8768 55.4562 40.8457C55.6926 40.8791 55.9291 40.9102 56.1656 40.9412Z" fill="#10069F"/>
<path d="M17.9669 36.9544C18.0744 36.9544 18.1819 36.9497 18.2918 36.9473C18.1819 36.9473 18.0744 36.952 17.9669 36.9544Z" fill="#10069F"/>
<path d="M71.5626 42.0177C65.8777 42.0177 60.9141 41.571 56.168 40.9404C60.9165 41.5686 65.8777 42.0177 71.5626 42.0177Z" fill="#10069F"/>
<path d="M15.4182 37.0639C15.3179 37.0711 15.22 37.0759 15.1196 37.083C15.2176 37.0759 15.3179 37.0687 15.4158 37.0615L15.4182 37.0639Z" fill="#10069F"/>
<path d="M16.9374 36.985C17.064 36.9803 17.1882 36.9755 17.3148 36.9707C17.1882 36.9755 17.0616 36.9803 16.9374 36.985Z" fill="#10069F"/>
<path d="M2.26892 40.7451V40.7499C2.47673 40.5898 2.69409 40.4322 2.92818 40.2793C2.69648 40.4298 2.47434 40.585 2.26892 40.7451Z" fill="#10069F"/>
<path d="M3.96008 39.6822C4.08668 39.6153 4.21805 39.5508 4.35182 39.4863C4.21805 39.5508 4.08907 39.6153 3.96008 39.6822Z" fill="#10069F"/>
<path d="M7.33752 38.3709C7.47606 38.3303 7.61699 38.2921 7.76031 38.2539C7.61938 38.2921 7.47606 38.3303 7.33752 38.3709Z" fill="#10069F"/>
<path d="M8.30498 38.1084C8.2166 38.1299 8.12823 38.1538 8.04224 38.1777C8.12823 38.1562 8.21899 38.1323 8.30498 38.1108V38.1084Z" fill="#10069F"/>
<path d="M1.18687 41.7676C1.12238 41.844 1.06027 41.9228 0.998169 42.0017V42.0064C1.06027 41.9276 1.11999 41.8464 1.18687 41.77V41.7676Z" fill="#10069F"/>
<path d="M1.78886 41.1483V41.1436C1.5691 41.3418 1.37324 41.5496 1.19409 41.7598C1.37324 41.5496 1.57388 41.3466 1.78886 41.1483Z" fill="#10069F"/>
<path d="M8.78271 37.9931C8.91648 37.9621 9.05024 37.931 9.184 37.9023C9.04785 37.931 8.91409 37.9621 8.78271 37.9931Z" fill="#10069F"/>
<path d="M6.67595 38.5713C6.67595 38.5713 6.6664 38.5737 6.66162 38.5761C6.6664 38.5761 6.67118 38.5737 6.67595 38.5713Z" fill="#10069F"/>
<path d="M5.5246 38.9795C5.36217 39.0416 5.20213 39.1085 5.04688 39.173C5.20452 39.1061 5.36217 39.0416 5.5246 38.9795Z" fill="white"/>
<path d="M2.26886 40.7499V40.7451C2.10166 40.8741 1.94162 41.0079 1.79114 41.1416V41.1464C1.94162 41.0103 2.10166 40.8765 2.26886 40.7475V40.7499Z" fill="white"/>
<path d="M3.46326 39.9515C3.58508 39.8822 3.70928 39.813 3.83827 39.7461C3.71167 39.813 3.58508 39.8822 3.46326 39.9515Z" fill="white"/>
<path d="M7.11063 38.4375C6.96493 38.4805 6.81683 38.5259 6.6759 38.5713C6.81922 38.5259 6.96493 38.4829 7.11063 38.4375Z" fill="white"/>
<path d="M17.3148 36.9708C17.5298 36.9637 17.7472 36.9589 17.9669 36.9541C17.7495 36.9589 17.5298 36.9637 17.3148 36.9708Z" fill="#10069F"/>
<path d="M18.2893 36.9466C18.6165 36.9418 18.9486 36.9395 19.283 36.9395C18.9486 36.9395 18.6189 36.9418 18.2893 36.9466Z" fill="#10069F"/>
<path d="M15.4182 37.0637C15.5997 37.0518 15.7813 37.0422 15.9628 37.0303C15.7789 37.0398 15.5974 37.0518 15.4182 37.0637Z" fill="#10069F"/>
<path d="M7.76038 38.2512C7.85353 38.225 7.94669 38.2011 8.04223 38.1748C7.94669 38.1987 7.85353 38.225 7.76038 38.2512Z" fill="#10069F"/>
<path d="M4.90112 39.2354C4.93456 39.221 4.968 39.2067 5.00144 39.1924C4.968 39.2067 4.93218 39.221 4.90112 39.2354Z" fill="#10069F"/>
<path d="M9.49926 37.8359C9.39416 37.8574 9.28906 37.8789 9.18396 37.9028C9.28667 37.8789 9.39416 37.8574 9.49926 37.8359Z" fill="#10069F"/>
<path d="M6.60901 38.5953C6.62812 38.5905 6.64484 38.5833 6.66156 38.5762C6.64245 38.5809 6.62573 38.5881 6.60901 38.5953Z" fill="#10069F"/>
<path d="M1.18689 41.7674C1.18689 41.7674 1.19167 41.7626 1.19406 41.7578C1.19167 41.7602 1.18928 41.7626 1.18689 41.7674Z" fill="#10069F"/>
<path d="M3.41787 39.9756C3.39637 39.9875 3.37726 39.9995 3.35815 40.0114C3.37726 39.9995 3.39876 39.9875 3.41787 39.9756Z" fill="#10069F"/>
<path d="M3.96 39.6816C3.9385 39.6936 3.91701 39.7031 3.89551 39.7127C3.91701 39.7031 3.9385 39.6912 3.96 39.6816Z" fill="#10069F"/>
<path d="M4.35181 39.4865C4.3948 39.465 4.4378 39.4459 4.48079 39.4268C4.4378 39.4459 4.3948 39.4674 4.35181 39.4865Z" fill="#10069F"/>
<path d="M3.89797 39.7129C3.87647 39.7248 3.85737 39.7344 3.83826 39.7463C3.85737 39.7368 3.87886 39.7248 3.89797 39.7153V39.7129Z" fill="white"/>
<path d="M7.15359 38.4258C7.13926 38.4306 7.12493 38.4353 7.1106 38.4401C7.12493 38.4353 7.13926 38.4306 7.15359 38.4282V38.4258Z" fill="white"/>
<path d="M8.45544 38.0725C8.56054 38.0463 8.66564 38.0224 8.77313 37.9961C8.66564 38.02 8.56054 38.0463 8.45544 38.0725Z" fill="white"/>
<path d="M15.4183 37.0641C15.5998 37.0522 15.7813 37.0426 15.9629 37.0307C16.0942 37.0235 16.2256 37.0163 16.357 37.0092C16.5481 36.9996 16.7415 36.9924 16.935 36.9853C17.0616 36.9805 17.1858 36.9757 17.3124 36.9709C17.5274 36.9638 17.7448 36.959 17.9645 36.9542C18.072 36.9542 18.1795 36.9494 18.2894 36.9471C18.6166 36.9423 18.9486 36.9399 19.283 36.9399C26.2148 36.9399 32.0502 37.4367 37.3792 38.1175C37.9118 38.1868 38.4397 38.256 38.9628 38.3277C39.4859 38.3993 40.0066 38.4734 40.5202 38.5474C41.8076 38.7337 43.0736 38.9272 44.3229 39.1231C44.9128 39.2162 45.4981 39.3094 46.0809 39.4026C46.8166 38.7887 47.5117 38.127 48.1637 37.4224C48.1637 37.4224 46.5896 35.3109 45.5625 33.1587C44.5354 31.0042 43.9956 28.5678 43.9574 28.6395C41.6739 33.0154 37.0949 36.0036 31.8137 36.0036C24.2513 36.0036 18.0624 29.8792 18.0624 22.3144C18.0624 14.7497 24.2513 8.62528 31.8137 8.62528C39.376 8.62528 45.5028 14.7497 45.5028 22.3144C45.5028 27.2302 47.0984 31.7638 49.7952 35.4422C49.7976 35.4375 49.8023 35.4327 49.8047 35.4279C51.3549 37.549 53.2706 39.3858 55.4586 40.8453C55.695 40.8787 55.9315 40.9098 56.168 40.9408C60.9165 41.569 65.8777 42.0181 71.5626 42.0181C74.3023 42.0181 76.6264 41.9202 78.6018 41.7553C85.4428 37.9407 90.0791 30.634 90.0791 22.2523C90.0791 9.93902 80.078 0.00238861 67.7647 0.00238861C61.2916 0.00238861 55.4753 2.74929 51.4146 7.14434C51.4146 7.14434 52.9887 9.25587 54.0158 11.408C55.0429 13.5602 55.5828 15.9989 55.621 15.9273C57.9045 11.5513 62.4835 8.56318 67.7647 8.56318C75.327 8.56318 81.5159 14.6876 81.5159 22.2523C81.5159 29.8171 75.327 35.9415 67.7647 35.9415C60.2024 35.9415 54.0756 29.8171 54.0756 22.2523C54.0756 23.4848 53.9752 24.6959 53.7818 25.8758C53.9681 24.7174 54.0636 23.5278 54.0636 22.3144C54.0636 17.3987 52.48 12.8531 49.7928 9.16511C45.7512 3.61158 39.2112 0 31.8137 0C19.5004 0 9.49927 10.0011 9.49927 22.3144C9.49927 27.9898 11.6251 33.1587 15.1197 37.0832C15.2176 37.076 15.3179 37.0713 15.4183 37.0641Z" fill="#10069F"/>
<path d="M5.43143 30.7458L9.49924 33.8534V0.269531L0.998169 6.14313V33.9514L5.14002 30.7458C5.22601 30.679 5.34544 30.679 5.43143 30.7458ZM4.94655 18.0098L5.28812 17.0639L5.62969 18.0098L6.66396 18.0313L5.83989 18.638L6.13846 19.5982L5.28812 19.0273L4.43777 19.5982L4.73635 18.638L3.91228 18.0313L4.94655 18.0098ZM4.14875 28.4934L3.86212 28.5913L3.77613 28.2665C3.48233 28.5244 3.1097 28.7466 2.64153 28.9424C2.56032 28.9759 2.50538 29.0547 2.50538 29.1455V30.249L2.7538 30.3446L2.50777 30.5237L2.31191 30.6766L1.67415 31.1567L1.84374 30.5428L1.84852 30.409V30.3087L1.85568 24.5211C1.85568 24.459 1.82941 24.3993 1.78402 24.3587L1.37796 23.9956L2.01572 24.0362H2.17576C2.71319 24.0362 3.3199 24.3252 3.80001 24.8101C4.31356 25.3309 4.60497 25.9949 4.59781 26.635V26.6709C4.54048 27.1223 4.40194 27.5069 4.16786 27.8389C4.35895 27.9225 4.61692 27.9822 5.16152 27.9679C5.29528 27.9631 5.41471 27.9344 5.52698 27.8962C5.46726 27.6168 5.43621 27.2967 5.44577 26.9264C5.45532 26.549 5.50787 26.2051 5.59386 25.8946C5.57714 25.885 5.55803 25.8731 5.54131 25.8635C5.53176 25.8587 5.5222 25.8516 5.51265 25.8468C5.48398 25.8301 5.45293 25.8134 5.42188 25.7942C5.40755 25.7871 5.39561 25.7799 5.38366 25.7704C5.35978 25.7584 5.33589 25.7441 5.312 25.7298C5.19018 25.6605 5.05403 25.584 4.89161 25.4933L4.88444 25.4885L4.87011 25.4813L4.86056 25.4766L4.85339 25.4718C4.21324 25.0538 3.58981 24.5617 3.58981 23.5513V23.5203C3.64236 22.9852 3.95049 22.5123 4.43299 22.2233C4.89877 21.9438 5.4601 21.865 6.02859 21.9844C6.07636 21.994 6.12652 21.9892 6.16952 21.9677L6.20296 21.951C6.32716 21.8889 6.47526 21.9557 6.51109 22.0895L6.82638 23.2456L6.29372 22.7559C6.27223 22.7368 6.24834 22.7201 6.22207 22.7105C5.70851 22.5075 5.1663 22.529 4.76023 22.7726C4.4521 22.9566 4.2634 23.2408 4.22757 23.5704C4.23474 24.1891 4.55959 24.5163 5.19257 24.932L5.20452 24.9391C5.45771 25.0824 5.66313 25.1971 5.83272 25.2974C6.09547 24.803 6.48242 24.459 6.9697 24.3181C7.56447 24.1437 8.20461 24.3181 8.67995 24.7552L8.7325 24.7624L8.81849 24.7026V25.7465L8.65845 25.6366L8.54857 25.5506L8.47692 25.4742L8.43153 25.4288L8.41959 25.4145L8.25716 25.2281C7.94426 24.9343 7.5358 24.8173 7.15124 24.9296C6.81922 25.0275 6.55408 25.2807 6.37016 25.6533C6.56841 25.8157 6.70456 25.9853 6.88132 26.2552L6.89088 26.2696V26.2744L6.90282 26.2959C7.12018 26.764 7.08197 27.2991 6.80728 27.6932C6.73562 27.7959 6.56364 28.0157 6.29611 28.2163C6.52542 28.7322 6.89327 28.9568 7.15362 29.0547C7.61701 29.2267 8.09713 29.1407 8.37182 28.9496C8.39331 28.9353 8.41481 28.9186 8.43392 28.9018C8.46258 28.8779 8.45542 28.9018 8.47692 28.8756L8.51991 28.8349L8.65606 28.7298L8.78982 28.5937L8.89015 28.448L8.93553 28.3692L8.92359 29.167V29.2458C8.91164 29.3007 8.92359 29.2816 8.92359 29.3246L8.91881 29.3294C8.46736 29.7761 7.6409 29.9194 6.93387 29.6566C6.63291 29.5444 6.07397 29.2434 5.73479 28.5173C5.56997 28.5722 5.38605 28.6104 5.18302 28.6176C4.57392 28.6343 4.35656 28.6009 4.15591 28.5101L4.14875 28.4934Z" fill="#10069F"/>
<path d="M3.95531 26.583C3.94814 26.1244 3.726 25.6442 3.34143 25.2573C3.17901 25.0925 2.99747 24.9563 2.81355 24.8584C2.66785 24.7796 2.49109 24.8871 2.49109 25.0543L2.49825 28.3099C2.99509 28.0902 3.34382 27.8442 3.57791 27.5456L3.5373 27.3951L3.63285 27.4691C3.80005 27.2303 3.90515 26.9556 3.95053 26.6331C3.95053 26.6188 3.95292 26.6021 3.95292 26.5854L3.95531 26.583Z" fill="#10069F"/>
<path d="M3.41779 39.9762V32.6455L2.24976 33.5484C2.25931 33.5747 2.26648 33.6033 2.26648 33.6344V40.7429" fill="#10069F"/>
<path d="M6.33197 26.5947C6.32719 26.5803 6.31763 26.566 6.30808 26.5517C6.27942 26.5087 6.25075 26.4681 6.22448 26.4299C6.22209 26.4251 6.2197 26.4227 6.21731 26.4179C6.20537 26.4012 6.19343 26.3845 6.18148 26.3701C6.17671 26.3654 6.17193 26.3582 6.16954 26.3534C6.16237 26.3439 6.15521 26.3367 6.14804 26.3271C6.11221 26.5182 6.08833 26.7189 6.08116 26.9386C6.07638 27.1512 6.08594 27.3423 6.10744 27.5143C6.19343 27.4259 6.25314 27.3495 6.27703 27.316C6.41318 27.1226 6.43229 26.8431 6.33197 26.5947Z" fill="#10069F"/>
<path d="M5.0469 39.1731V31.3838L3.8717 32.2938C3.88604 32.3249 3.89559 32.3583 3.89559 32.3942V39.7129" fill="#10069F"/>
<path d="M6.67585 38.5716V32.3946C6.67585 32.354 6.68779 32.3182 6.7069 32.2847L5.52454 31.3818V38.98" fill="#10069F"/>
<path d="M8.30488 38.1084V33.6369C8.30488 33.5963 8.31682 33.5605 8.33354 33.5294L7.15356 32.6289V38.4261" fill="#10069F"/>
<path d="M1.7888 41.1414V33.9062L0.998169 34.5201V42.0013" fill="#10069F"/>
<path d="M9.4993 37.8352V34.4171L8.78271 33.8701V37.9929" fill="#10069F"/>
<path d="M0.00207923 53.6576V44.791C0.00207923 39.8681 7.97527 36.9277 19.283 36.9277C41.4636 36.9277 52.4106 42.0059 71.5625 42.0059C87.8863 42.0059 89.5488 38.5066 89.5488 38.5066C89.5488 38.5066 94.9136 49.5659 81.8527 53.0079C59.629 58.8624 36.3878 50.2395 20.6158 50.2395C-0.611794 50.2395 0.00207923 53.6576 0.00207923 53.6576Z" fill="url(#paint1_linear_10323_2926)"/>
<path d="M89.5489 38.5066C89.5489 38.5066 87.8864 42.0059 71.5626 42.0059C52.4131 42.0059 41.4637 36.9277 19.2831 36.9277C9.29866 36.9277 1.91784 39.2232 0.327026 43.1477C1.93456 39.7726 9.44197 38.0122 19.4407 38.0122C36.9397 38.0122 53.2682 43.3053 72.4177 43.3053C88.7415 43.3053 89.5465 38.5424 89.5465 38.5424" fill="url(#paint2_linear_10323_2926)" style="mix-blend-mode:screen"/>
<path d="M82.1107 52.2794C60.6538 57.1665 39.0106 48.8207 19.3762 48.8207C-0.258232 48.8207 0.00212691 53.1226 0.00212691 53.1226V53.5932C0.0451219 53.125 1.11044 50.2395 20.6135 50.2395C36.3855 50.2395 59.6267 58.8624 81.8503 53.0079C86.1355 51.8781 88.4357 49.9314 89.5966 47.8223C88.4142 49.6878 86.1594 51.3574 82.1083 52.2794H82.1107Z" fill="url(#paint3_linear_10323_2926)" style="mix-blend-mode:screen"/>
<path d="M29.7165 42.166C29.6162 42.2568 29.4991 42.3261 29.3654 42.3762C29.2316 42.4264 29.0859 42.455 28.9259 42.4646C28.7658 42.4741 28.6034 42.4694 28.4386 42.4503L28.3669 43.0689L29.5517 43.2051L29.4108 44.4328L29.16 46.6041L30.0199 46.7044L30.2731 44.5092L30.5764 41.8865L29.9363 41.8125C29.8909 41.9558 29.8192 42.0729 29.7189 42.1636L29.7165 42.166Z" fill="white"/>
<path d="M34.7421 42.5266C34.5391 42.3666 34.2692 42.2639 33.93 42.2185C33.6696 42.1827 33.4308 42.1922 33.2134 42.2471C32.996 42.3021 32.8073 42.3928 32.6449 42.5242C32.4825 42.6532 32.3511 42.8132 32.2508 43.0019C32.1505 43.1906 32.086 43.4032 32.0525 43.6349C32.0191 43.881 32.0263 44.1103 32.0716 44.3181C32.0907 44.4041 32.1194 44.4805 32.1481 44.5593C32.1911 44.6716 32.2436 44.7767 32.3105 44.8698C32.4252 45.0275 32.5685 45.1565 32.7428 45.2592C32.9172 45.3619 33.1202 45.4288 33.3495 45.4598C33.5693 45.4885 33.7771 45.467 33.973 45.3929C34.1688 45.3189 34.3337 45.1947 34.4626 45.0227L34.4746 45.0394C34.4388 45.1971 34.3958 45.3691 34.3456 45.5578C34.2954 45.7441 34.2238 45.9161 34.133 46.0737C34.0422 46.2313 33.9252 46.3579 33.7843 46.4535C33.6433 46.549 33.4666 46.5825 33.2564 46.5538C33.051 46.5251 32.8957 46.4439 32.7906 46.3054C32.6855 46.1669 32.6377 45.9997 32.6449 45.799L31.8614 45.6939C31.8447 45.8922 31.8662 46.0761 31.9259 46.2481C31.9856 46.42 32.074 46.5705 32.1887 46.7019C32.3033 46.8333 32.4419 46.9432 32.6019 47.0291C32.7619 47.1151 32.9387 47.1725 33.1322 47.1987C33.4714 47.2441 33.7652 47.2083 34.0184 47.0865C34.2692 46.967 34.4818 46.7951 34.6561 46.5753C34.8305 46.3532 34.969 46.1024 35.0693 45.8157C35.1697 45.5315 35.2413 45.2449 35.2795 44.9558C35.3106 44.7241 35.3249 44.502 35.3321 44.2846C35.3345 44.1771 35.3393 44.0697 35.3369 43.9646C35.3273 43.6516 35.2748 43.3722 35.1792 43.1285C35.0837 42.8849 34.9356 42.6843 34.7326 42.5242L34.7421 42.5266ZM34.2381 44.6405C34.1545 44.7241 34.0542 44.7862 33.9371 44.8268C33.8201 44.8675 33.6887 44.877 33.5406 44.8579C33.3997 44.8388 33.2779 44.7934 33.1823 44.7217C33.1083 44.6692 33.051 44.6047 33.0032 44.5354C32.9865 44.5115 32.9674 44.49 32.953 44.4638C32.8957 44.3635 32.8599 44.2488 32.8408 44.1246C32.8217 44.0004 32.8217 43.869 32.8408 43.7376C32.8575 43.6087 32.8909 43.4892 32.9411 43.3746C32.9913 43.2599 33.0581 43.162 33.137 43.0808C33.2182 42.9996 33.3137 42.9375 33.426 42.8992C33.5382 42.861 33.6648 42.8515 33.8082 42.8706C33.9539 42.8897 34.0781 42.9351 34.1808 43.0043C34.2835 43.0736 34.3647 43.1596 34.422 43.2575C34.4818 43.3555 34.52 43.4677 34.5415 43.5919C34.563 43.7161 34.563 43.8427 34.5462 43.9693C34.5271 44.1031 34.4937 44.2273 34.4388 44.342C34.4268 44.3682 34.4101 44.3921 34.3958 44.4184C34.3504 44.502 34.2978 44.5784 34.2333 44.6429L34.2381 44.6405Z" fill="white"/>
<path d="M39.7056 43.5729C39.6316 43.4511 39.5336 43.3388 39.4142 43.2385C39.3736 43.2051 39.3306 43.1716 39.2828 43.1382C39.1013 43.014 38.8648 42.928 38.571 42.885C38.3011 42.8444 38.0575 42.8563 37.8401 42.9184C37.6228 42.9805 37.4317 43.0856 37.2645 43.229C37.0973 43.3723 36.9635 43.5514 36.8584 43.7664C36.8202 43.8452 36.7915 43.9288 36.7629 44.0148C36.7103 44.1629 36.6673 44.3182 36.6434 44.4878L37.4245 44.6048C37.4532 44.4376 37.4962 44.2823 37.5463 44.139C37.5989 43.9981 37.6634 43.8763 37.7398 43.7783C37.7446 43.7736 37.7494 43.7712 37.7517 43.7664C37.8282 43.6756 37.9166 43.6064 38.024 43.561C38.1363 43.5156 38.2701 43.5037 38.4253 43.5275C38.454 43.5323 38.4803 43.5371 38.5065 43.5443C38.6379 43.5729 38.743 43.6159 38.8242 43.6756C38.9198 43.7497 38.9914 43.8309 39.0392 43.924C39.087 44.0172 39.1133 44.1151 39.118 44.2155C39.1228 44.3158 39.118 44.4113 39.1061 44.4973C39.0726 44.6836 39.001 44.8413 38.8887 44.9726C38.7765 45.1016 38.6403 45.2187 38.4803 45.3214C38.3202 45.4241 38.1483 45.5149 37.9619 45.5985C37.778 45.6797 37.5989 45.7681 37.4245 45.8564C37.0662 46.026 36.7724 46.2458 36.5407 46.5157C36.309 46.7856 36.1609 47.1176 36.0964 47.5141L39.3712 48.0062L39.4763 47.3063L37.1403 46.9552C37.188 46.8549 37.2621 46.7641 37.3624 46.6829C37.4627 46.6017 37.5774 46.5276 37.7087 46.4584C37.8377 46.3891 37.9787 46.3222 38.1291 46.2553C38.2796 46.1885 38.4301 46.1192 38.5806 46.0427C38.7311 45.9663 38.8792 45.8851 39.0249 45.7943C39.1682 45.7036 39.302 45.6009 39.4214 45.4862C39.5408 45.3715 39.6435 45.2402 39.7247 45.0945C39.8083 44.9488 39.8633 44.7792 39.8919 44.5881C39.9158 44.4328 39.9158 44.2656 39.8919 44.0865C39.8681 43.9073 39.806 43.7353 39.7056 43.5729Z" fill="white"/>
<path d="M42.9374 43.5605C42.4573 43.4865 42.0728 43.5438 41.779 43.7349C41.4852 43.926 41.306 44.2246 41.2415 44.6354C41.2057 44.8671 41.232 45.0797 41.3203 45.2684C41.4111 45.4571 41.5592 45.61 41.7646 45.727V45.7413C41.4828 45.7676 41.2487 45.8703 41.0576 46.0519C40.8689 46.2334 40.7495 46.4747 40.7041 46.7756C40.6682 47.0073 40.6778 47.2247 40.7327 47.4253C40.7877 47.626 40.8808 47.8027 41.0122 47.9556C41.1436 48.1085 41.306 48.2374 41.5043 48.3378C41.7001 48.4381 41.9199 48.5074 42.1611 48.5456C42.4024 48.5838 42.6341 48.5838 42.8514 48.548C43.0688 48.5121 43.2647 48.4405 43.4343 48.333C43.6062 48.2255 43.7472 48.087 43.8618 47.9126C43.9765 47.7382 44.0505 47.5352 44.0864 47.3035C44.1341 47.0025 44.0935 46.7374 43.9693 46.5081C43.8427 46.2788 43.6516 46.1092 43.3937 45.9969V45.9826C43.6277 45.9348 43.8141 45.8345 43.9574 45.6816C44.1007 45.5288 44.1891 45.3353 44.2273 45.1036C44.2918 44.6927 44.2129 44.3512 43.9908 44.0813C43.7687 43.8114 43.4175 43.637 42.9398 43.5629L42.9374 43.5605ZM43.3053 47.1817C43.2623 47.4635 43.1405 47.669 42.9422 47.7979C42.744 47.9269 42.5146 47.9699 42.2567 47.9293C41.9963 47.8887 41.7909 47.7764 41.6428 47.5949C41.4947 47.4134 41.4422 47.1793 41.4852 46.8974C41.5258 46.6323 41.6452 46.4388 41.8411 46.3194C42.0369 46.1976 42.2662 46.157 42.5266 46.1976C42.7869 46.2382 42.9924 46.3457 43.1428 46.5224C43.2933 46.6992 43.3483 46.9189 43.3053 47.1817ZM43.482 45.0272C43.4462 45.2565 43.3483 45.4189 43.1882 45.5168C43.0282 45.6148 42.8395 45.6482 42.6197 45.6148C42.4 45.5813 42.2304 45.4929 42.1062 45.3496C41.9844 45.2063 41.939 45.02 41.9748 44.7931C42.0106 44.5566 42.1134 44.387 42.2782 44.2843C42.443 44.1816 42.6317 44.1458 42.8419 44.1792C43.0521 44.2126 43.2193 44.3034 43.3459 44.4515C43.4725 44.5996 43.5179 44.7931 43.4796 45.0295L43.482 45.0272Z" fill="white"/>
<path d="M45.0119 46.6029L44.9117 47.3438L48.344 47.8078L48.4442 47.0669L45.0119 46.6029Z" fill="white"/>
<path d="M52.4848 45.3355C52.3797 45.1755 52.234 45.0369 52.0477 44.9175C51.8614 44.7981 51.6201 44.724 51.3263 44.6906C51.0564 44.6595 50.8128 44.681 50.5978 44.7527C50.3828 44.8243 50.1965 44.9342 50.0341 45.0847C49.874 45.2352 49.7451 45.4191 49.6495 45.6389C49.554 45.8586 49.4895 46.1022 49.4608 46.3674L50.2467 46.4534C50.2706 46.2838 50.304 46.1285 50.3518 45.9852C50.3972 45.8419 50.4569 45.7201 50.5309 45.6174C50.605 45.517 50.6957 45.4406 50.808 45.3904C50.9179 45.3403 51.0516 45.3236 51.2069 45.3403C51.3765 45.3594 51.5102 45.4024 51.6106 45.4717C51.7109 45.5409 51.7849 45.6198 51.8351 45.7129C51.8853 45.8037 51.9163 45.9016 51.9259 46.0019C51.9354 46.1022 51.9354 46.1978 51.9259 46.2838C51.8996 46.4725 51.8351 46.6325 51.7252 46.7663C51.6153 46.9 51.4864 47.0219 51.3287 47.1294C51.1735 47.2368 51.0039 47.3372 50.8223 47.4255C50.6408 47.5139 50.464 47.6071 50.2968 47.705C49.9457 47.8889 49.6615 48.1206 49.4393 48.3977C49.2172 48.6748 49.0834 49.014 49.0356 49.4129L52.3272 49.7759L52.4036 49.0737L50.0556 48.8157C50.0986 48.713 50.1702 48.6198 50.2682 48.5362C50.3661 48.4526 50.4784 48.3714 50.605 48.2974C50.7316 48.2233 50.8677 48.1493 51.0158 48.0776C51.1639 48.006 51.312 47.9295 51.4601 47.8483C51.6082 47.7671 51.7539 47.6787 51.8924 47.5832C52.031 47.4876 52.16 47.3802 52.277 47.2607C52.394 47.1413 52.4896 47.0075 52.566 46.8571C52.6424 46.7066 52.6926 46.537 52.7141 46.3435C52.7308 46.1882 52.7237 46.021 52.6926 45.8419C52.6616 45.6651 52.5923 45.4955 52.4872 45.3355H52.4848Z" fill="white"/>
<path d="M56.8249 46.05C56.7221 45.7944 56.5693 45.577 56.3639 45.4003C56.1584 45.2235 55.8837 45.1208 55.5374 45.0921C55.191 45.0635 54.9044 45.1208 54.6727 45.2617C54.441 45.4027 54.2547 45.5914 54.1114 45.8278C53.9681 46.0643 53.8654 46.3271 53.7961 46.6185C53.7292 46.9099 53.6838 47.1941 53.6599 47.4688C53.6384 47.7459 53.6361 48.0325 53.6552 48.3311C53.6743 48.6297 53.7364 48.9068 53.8367 49.1623C53.9394 49.4179 54.0923 49.6353 54.2977 49.812C54.5031 49.9888 54.7778 50.0915 55.1242 50.1202C55.4705 50.1488 55.7571 50.0915 55.9888 49.9506C56.2205 49.8096 56.4069 49.6209 56.5502 49.3845C56.6911 49.148 56.7962 48.8853 56.8655 48.5938C56.9323 48.3024 56.9777 48.0182 57.0016 47.7435C57.0231 47.4664 57.0255 47.1798 57.0064 46.8812C56.9873 46.5826 56.9252 46.3056 56.8249 46.05ZM56.2158 47.679C56.1943 47.9322 56.1608 48.1711 56.1154 48.3932C56.0701 48.6153 56.0056 48.8088 55.9267 48.9712C55.8455 49.1337 55.7452 49.2603 55.621 49.3486C55.4968 49.4394 55.3511 49.4752 55.1815 49.4633C55.0071 49.449 54.8662 49.3869 54.7611 49.2794C54.656 49.1719 54.5772 49.031 54.5246 48.8566C54.4721 48.6822 54.441 48.4816 54.4315 48.2547C54.4219 48.0277 54.4291 47.7865 54.4482 47.5333C54.4697 47.2801 54.5031 47.0436 54.5485 46.8215C54.5939 46.6017 54.6584 46.4083 54.7372 46.2435C54.8184 46.0786 54.9187 45.952 55.0382 45.8613C55.16 45.7705 55.3057 45.7347 55.4825 45.749C55.6521 45.7633 55.7906 45.8231 55.8981 45.9329C56.0056 46.0404 56.0844 46.1837 56.1369 46.3581C56.1895 46.5349 56.2205 46.7355 56.2301 46.96C56.2396 47.1846 56.2349 47.4258 56.2134 47.679H56.2158Z" fill="white"/>
<path d="M61.1412 45.9519C61.0265 45.799 60.8712 45.6676 60.6778 45.5625C60.4843 45.4574 60.2406 45.3953 59.9445 45.381C59.6722 45.3667 59.4309 45.4025 59.2207 45.4885C59.0105 45.5721 58.8314 45.6939 58.6785 45.8539C58.528 46.014 58.411 46.2051 58.3274 46.4296C58.2438 46.6541 58.196 46.9002 58.1841 47.1677L58.9723 47.2059C58.9842 47.0363 59.0105 46.8763 59.0463 46.7306C59.0846 46.5849 59.1347 46.4583 59.204 46.3532C59.2709 46.2481 59.3592 46.1669 59.4643 46.1095C59.5718 46.0522 59.7032 46.0283 59.8609 46.0355C60.0305 46.0426 60.169 46.0785 60.2717 46.143C60.3744 46.2051 60.4532 46.2815 60.5106 46.3699C60.5655 46.4583 60.6013 46.5514 60.618 46.6517C60.6348 46.7521 60.6395 46.8452 60.6348 46.9336C60.6204 47.1223 60.5655 47.2871 60.4652 47.428C60.3649 47.569 60.2406 47.698 60.0926 47.815C59.9445 47.932 59.782 48.0419 59.6053 48.1422C59.4285 48.2426 59.2589 48.3453 59.0989 48.4528C58.7597 48.6582 58.4898 48.9066 58.2868 49.198C58.0837 49.4894 57.9691 49.8358 57.9452 50.2347L61.251 50.3947L61.2845 49.6901L58.9245 49.5754C58.9627 49.4703 59.0272 49.3748 59.118 49.284C59.2112 49.1932 59.3163 49.1072 59.4381 49.026C59.5599 48.9448 59.6913 48.8636 59.8346 48.7824C59.9779 48.7012 60.1212 48.6152 60.2621 48.5268C60.4055 48.436 60.544 48.3405 60.6778 48.2354C60.8115 48.1303 60.9333 48.0156 61.0408 47.889C61.1483 47.7624 61.2367 47.6215 61.3036 47.4686C61.3705 47.3158 61.4087 47.1414 61.4182 46.9479C61.4254 46.7903 61.4087 46.6255 61.3657 46.4487C61.3227 46.2743 61.2439 46.1095 61.1292 45.9543L61.1412 45.9519Z" fill="white"/>
<path d="M65.6436 48.2691C65.486 48.0589 65.271 47.918 64.9987 47.8463V47.832C65.2209 47.7508 65.3928 47.6242 65.5123 47.4522C65.6317 47.2802 65.6914 47.0772 65.6938 46.8407C65.6986 46.4251 65.5696 46.1002 65.3116 45.8638C65.0537 45.6273 64.681 45.5079 64.1961 45.5031C63.7113 45.4983 63.3362 45.6106 63.0735 45.8423C62.8108 46.074 62.677 46.3964 62.6722 46.812C62.6722 47.0485 62.7271 47.2515 62.8418 47.4259C62.9588 47.6003 63.1261 47.7293 63.3482 47.8153V47.8296C63.0759 47.8965 62.8585 48.0326 62.6961 48.238C62.5361 48.4435 62.4525 48.699 62.4501 49.0048C62.4501 49.2413 62.4883 49.4538 62.5719 49.6425C62.6555 49.8336 62.7725 49.9937 62.923 50.1274C63.0735 50.2612 63.255 50.3639 63.4628 50.4332C63.673 50.5048 63.9 50.5407 64.1436 50.543C64.3872 50.5454 64.6165 50.512 64.8267 50.4451C65.0369 50.3782 65.2185 50.2803 65.3737 50.1489C65.529 50.0176 65.6484 49.8599 65.7344 49.6712C65.8204 49.4825 65.8658 49.2699 65.8682 49.0358C65.8706 48.7301 65.7941 48.4745 65.6365 48.2643L65.6436 48.2691ZM63.6515 46.3152C63.7996 46.1886 63.9812 46.1289 64.1938 46.1289C64.4063 46.1289 64.5855 46.1958 64.7312 46.3248C64.8769 46.4537 64.9509 46.6377 64.9486 46.8765C64.9486 47.1082 64.8721 47.2826 64.7288 47.4044C64.5855 47.5262 64.4016 47.5859 64.1794 47.5836C63.9573 47.5812 63.7758 47.5191 63.6348 47.3949C63.4939 47.2706 63.4222 47.0939 63.4246 46.8622C63.4246 46.6233 63.5035 46.4394 63.6515 46.3128V46.3152ZM64.8172 49.6951C64.6404 49.8504 64.4207 49.9268 64.1579 49.9244C63.8952 49.922 63.6754 49.8408 63.5011 49.6831C63.3267 49.5255 63.2407 49.301 63.2431 49.0167C63.2455 48.7492 63.3363 48.5414 63.513 48.3933C63.6898 48.2452 63.9095 48.1712 64.1723 48.1735C64.435 48.1759 64.6548 48.2524 64.8291 48.4052C65.0035 48.5581 65.0895 48.7659 65.0871 49.0358C65.0847 49.3225 64.9939 49.5422 64.8172 49.6975V49.6951Z" fill="white"/>
<defs>
<linearGradient id="paint0_linear_10323_2926" x1="0.00212321" y1="53.6248" x2="13.88" y2="53.6248" gradientUnits="userSpaceOnUse">
<stop offset="0.1" stop-color="#CF8B2D"/>
<stop offset="0.31" stop-color="#E3B75A"/>
<stop offset="0.47" stop-color="#EFD175"/>
<stop offset="0.56" stop-color="#F4DC80"/>
<stop offset="0.93" stop-color="#BB8732"/>
</linearGradient>
<linearGradient id="paint1_linear_10323_2926" x1="0.00207923" y1="45.9854" x2="90.6404" y2="45.9854" gradientUnits="userSpaceOnUse">
<stop offset="0.1" stop-color="#CF8B2D"/>
<stop offset="0.31" stop-color="#E3B75A"/>
<stop offset="0.47" stop-color="#EFD175"/>
<stop offset="0.56" stop-color="#F4DC80"/>
<stop offset="0.93" stop-color="#BB8732"/>
</linearGradient>
<linearGradient id="paint2_linear_10323_2926" x1="0.00217501" y1="40.1165" x2="90.447" y2="40.1165" gradientUnits="userSpaceOnUse">
<stop offset="0.1" stop-color="#CF8B2D"/>
<stop offset="0.31" stop-color="#E3B75A"/>
<stop offset="0.47" stop-color="#EFD175"/>
<stop offset="0.56" stop-color="#F4DC80"/>
<stop offset="0.93" stop-color="#BB8732"/>
</linearGradient>
<linearGradient id="paint3_linear_10323_2926" x1="0.00212691" y1="51.4338" x2="90.6428" y2="51.4338" gradientUnits="userSpaceOnUse">
<stop offset="0.1" stop-color="#CF8B2D"/>
<stop offset="0.31" stop-color="#E3B75A"/>
<stop offset="0.47" stop-color="#EFD175"/>
<stop offset="0.56" stop-color="#F4DC80"/>
<stop offset="0.93" stop-color="#BB8732"/>
</linearGradient>
</defs>
</svg>
